<?xml version="1.0" encoding="UTF-8"?><svg id="c" xmlns="http://www.w3.org/2000/svg" width="300" height="225" viewBox="0 0 300 225"><path d="M200.8162,7.596c-11.333.8969-20.4946,10.1097-21.3372,21.4468-.2416,3.2503.1851,6.3717,1.1563,9.2421,2.291,6.7716,1.6558,14.1926-1.4921,20.6109l-1.0371,2.1145,4.1034-2.6814c5.341-3.4901,11.7215-4.9947,18.0673-4.3323,1.2898.1346,2.6111.1637,3.9553.0781,11.465-.7305,20.8347-9.9608,21.7125-21.4155,1.0986-14.3358-10.7857-26.1984-25.1285-25.0633Z" fill="#ced3f4" stroke-width="0"/><path d="M201.0518,44.0508c-7.2939,0-13.2285-5.9346-13.2285-13.2285s5.9346-13.2285,13.2285-13.2285c6.5352,0,12.0283,4.6768,13.0605,11.1211.0879.5449-.2842,1.0586-.8291,1.1455-.5449.0879-1.0576-.2832-1.1455-.8291-.876-5.4688-5.5381-9.4375-11.0859-9.4375-6.1914,0-11.2285,5.0371-11.2285,11.2285s5.0371,11.2285,11.2285,11.2285c.5527,0,1,.4473,1,1s-.4473,1-1,1Z" fill="#1e1e1e" stroke-width="0"/><polygon points="204.0504 25.1934 204.9872 23.6545 212.5628 28.2782 216.6212 20.3839 218.2227 21.2092 213.2781 30.8225 204.0504 25.1934" fill="#1e1e1e" stroke-width="0"/><path d="M208.027,41.9525h-1.6934v-6.5273l-2.0215.627v-1.377l3.5332-1.2656h.1816v8.543Z" fill="#1e1e1e" stroke-width="0"/><path d="M211.0504,37.7572l.4922-4.3359h4.7812v1.4121h-3.3926l-.2109,1.834c.4023-.2148.8301-.3223,1.2832-.3223.8125,0,1.4492.252,1.9102.7559s.6914,1.209.6914,2.1152c0,.5508-.1162,1.0439-.3486,1.4795s-.5654.7734-.999,1.0137-.9453.3604-1.5352.3604c-.5156,0-.9941-.1045-1.4355-.3135s-.79-.5029-1.0459-.8818-.3916-.8105-.4072-1.2949h1.6758c.0352.3555.1592.6318.3721.8291s.4912.2959.835.2959c.3828,0,.6777-.1377.8848-.4131s.3105-.665.3105-1.1689c0-.4844-.1191-.8555-.3574-1.1133s-.5762-.3867-1.0137-.3867c-.4023,0-.7285.1055-.9785.3164l-.1641.1523-1.3477-.334Z" fill="#1e1e1e" stroke-width="0"/><path d="M128.5663,64.6528c1.6036-.6408,11.3193-4.6975,14.0755-14.3237,1.29-4.5056.54-8.431.083-10.822-.4551-2.3815-1.858-9.199-7.7055-14.1386-1.341-1.1328-2.4294-2.0522-4.1073-2.6277-6.4996-2.2293-13.7587,3.4364-16.0704,5.2418-10.8391,8.4649-12.6653,27.1576-13.5556,43.4161-.8956,16.3545-1.2981,38.5347.6379,65.193,17.9683-3.9472,25.5248-6.0147,43.4932-9.9619-5.6169-20.6589-11.2338-41.318-16.8507-61.9769Z" fill="#1e1e1e" stroke-width="0"/><polygon points="173.4686 78.8033 185.3238 119.3795 155.3678 103.5315 154.0803 83.0624 173.4686 78.8033" fill="#1e1e1e" stroke-width="0"/><path d="M203.1415,153.4044c-4.2539-20.5443-12.4453-31.4741-14.3058-33.8823-4.056-5.2496-10.9188-14.132-23.3411-19.2-21.2427-8.6664-41.2601.9535-45.6389,3.2167-2.4151,1.2482-11.598,6.2169-20.6198,17.8656-18.455,23.8286-29.1401,66.4491-9.7882,85.0822,9.5751,9.2195,24.328,10.4715,28.2109,10.801,10.9406.9285,16.1353-1.6771,27.5067-4.4011,30.3699-7.2749,41.4933,7.393,53.0823-1.5059,14.5804-11.196,8.017-42.8941,4.8941-57.9764Z" fill="#b7fdc0" stroke-width="0"/><path d="M197.9531,193.1787c-.3574,0-.6738-.2559-.7373-.6201l-4.1865-23.7842c-.0723-.4082.2002-.7969.6084-.8682.4092-.0703.7969.2002.8682.6084l4.1865,23.7842c.0723.4082-.2002.7969-.6084.8682-.0439.0078-.0879.0117-.1309.0117Z" fill="#1e1e1e" stroke-width="0"/><path d="M131.9889,74.1623l.9145,30.1147s3.8657,6.2686,12.4328,6.2686c8.5671,0,12.4328-4.1791,12.4328-4.1791l-.4179-15.5426" fill="#fff" stroke-width="0"/><path d="M145.3359,111.2959c-8.8838,0-12.9043-6.3545-13.0713-6.625-.0684-.1113-.1074-.2393-.1113-.3711l-.9141-30.1152c-.0127-.4141.3135-.7598.7275-.7725.4492.0078.7598.3145.7725.7275l.9072,29.9023c.6611.9648,4.3184,5.7539,11.6895,5.7539,7.0283,0,10.7822-2.9404,11.6738-3.7412l-.4092-15.21c-.0107-.4141.3154-.7588.7295-.7705.4307-.0049.7598.3154.7705.7295l.418,15.542c.0049.1963-.0664.3857-.1992.5293-.167.1807-4.1895,4.4209-12.9834,4.4209Z" fill="#1e1e1e" stroke-width="0"/><path d="M128.2172,76.5772s13.4988,22.486,30.6244,21.2019l-1.5382-7.0022s-7.9329-1.8427-11.3155-3.1926c-3.3826-1.3498-14.0272-11.3758-14.0272-11.3758l-3.7434.3687Z" fill="#1e1e1e" stroke-width="0"/><path d="M155.4685,41.5212c5.429,4.8299,13.3526,13.5134,16.4898,26.1086,1.2983,5.2124,2.754,11.4526-.7149,16.924-3.342,5.2713-9.2491,6.6652-10.4295,6.9165-7.2458,1.5425-13.295-2.312-18.1803-5.425-5.146-3.279-8.5792-7.0967-10.673-9.8367,0,0-9.2064,1.9154-13.0476-2.9101-3.8412-4.8255-2.4179-7.5984-2.4179-7.5984,3.3434-.1996,6.6869-.3993,10.0304-.5989" fill="#fff" stroke-width="0"/><path d="M157.4736,92.5732c-5.9922.001-11.0488-3.2227-15.2432-5.8955-4.0273-2.5654-7.5859-5.8105-10.584-9.6484-1.9951.3311-9.7061,1.2764-13.3203-3.2637-4.0947-5.1455-2.5654-8.2773-2.498-8.4082.1211-.2354.3574-.3896.6221-.4062l10.0303-.5986c.4082-.0244.7686.29.7939.7041.0244.4141-.291.7686-.7041.7939l-9.5127.5674c-.1631.8418-.2178,3.0723,2.4424,6.4141,3.5068,4.4033,12.2197,2.6592,12.3086,2.6426.2812-.0596.5732.0498.748.2793,2.9492,3.8574,6.4746,7.1074,10.4805,9.6582,4.7549,3.0322,10.6709,6.8018,17.6201,5.3242,1.5674-.333,6.915-1.792,9.9521-6.584,3.3691-5.3135,1.8447-11.4277.6211-16.3408-2.9785-11.9609-10.4863-20.5938-16.2598-25.7295-.3096-.2754-.3379-.75-.0625-1.0586.2764-.3115.751-.3359,1.0586-.0625,8.5068,7.5674,14.2881,16.7266,16.7188,26.4873,1.2256,4.917,2.9033,11.6504-.8086,17.5068-3.3516,5.2861-9.1963,6.8848-10.9072,7.248-1.1992.2559-2.3643.3701-3.4961.3701Z" fill="#1e1e1e" stroke-width="0"/><path d="M155.1283,30.7318c2.4476,1.8658,5.1895,4.5725,5.2758,7.8658.2277,8.6982-14.2072,8.9495-19.7498,7.3917-4.6453-1.3057-10.4696-4.4822-11.4773-9.6316-.8364-4.2742,2.313-10.2416,6.7565-11.2299,1.2635-.281,2.5771-.2195,3.8652-.0929,4.7972.4716,9.6744,1.9354,13.7776,4.604.5021.3266,1.0265.6924,1.552,1.093Z" fill="#1e1e1e" stroke-width="0"/><path d="M126.6114,65.8352c-2.2721-1.2314-6.5098-3.1476-12.173-3.543-5.7374-.4006-10.2504.9473-12.6755,1.8652,1.1408-14.2603,3.8228-28.9464,13.0787-36.1749,2.3116-1.8053,9.5708-7.471,16.0703-5.2417,1.6779.5755,2.7663,1.4948,4.1073,2.6277,5.8475,4.9396,7.2504,11.7572,7.7055,14.1386.4421,2.3133,1.1747,6.1404-.083,10.8221-1.8074,6.7282-6.9386,12.2967-13.0078,14.6253-1.2091.4639-2.2656.7264-3.0226.8808Z" fill="#1e1e1e" stroke-width="0"/><path d="M143.5537,40.0752c-.3506,0-.6631-.2471-.7344-.6035-.5566-2.792-1.5781-5.4775-3.0371-7.9795-.208-.3584-.0869-.8174.2705-1.0264.3613-.2051.8184-.0869,1.0264.2705,1.542,2.6465,2.6221,5.4863,3.2109,8.4424.0811.4062-.1826.8008-.5889.8818-.0498.0098-.0986.0146-.1475.0146Z" fill="#fff" stroke-width="0"/><path d="M158.6152,50.8438c-.3555,0-.6709-.2529-.7363-.6152-.0752-.4072.1943-.7979.6025-.8721l6.2998-1.1533c.4004-.0781.7988.1943.8721.6025.0752.4072-.1943.7979-.6025.8721l-6.2998,1.1533c-.0449.0088-.0908.0127-.1357.0127Z" fill="#1e1e1e" stroke-width="0"/><path d="M141.8555,56.3623c-.3135,0-.6055-.1973-.7109-.5107-.1318-.3926.0791-.8174.4717-.9502l6.0693-2.0439c.3936-.1309.8184.0791.9502.4717s-.0791.8174-.4717.9502l-6.0693,2.0439c-.0791.0264-.1602.0391-.2393.0391Z" fill="#1e1e1e" stroke-width="0"/><path d="M160.7529,72.2178c-.1836,0-.3672-.0664-.5107-.2012-.3037-.2822-.3203-.7568-.0381-1.0596l1.4092-1.5127c.2275-.2441.3184-.5713.25-.8975s-.2832-.5889-.5889-.7207l-2.5947-1.1162c-.1855-.0791-.3311-.2305-.4033-.4199l-3.5732-9.3037c-.1484-.3867.0449-.8203.4316-.9688.3828-.1484.8203.0439.9688.4316l3.46,9.0088,2.3037.9912c.749.3223,1.2969.9912,1.4648,1.79.167.7988-.0654,1.6309-.6211,2.2275l-1.4092,1.5117c-.1475.1592-.3477.2393-.5488.2393Z" fill="#1e1e1e" stroke-width="0"/><path d="M158.0811,81.5322c-2.9932,0-6.1621-1.7334-8.3252-4.7354-.2422-.3359-.166-.8047.1699-1.0469.3379-.2432.8057-.1641,1.0469.1699,2.3965,3.3262,6.1465,4.873,9.1172,3.7578,1.6387-.6152,2.6641-1.9297,3.2354-2.9248.2061-.3574.6631-.4824,1.0244-.2764.3584.2061.4824.665.2764,1.0244-.6943,1.208-1.9531,2.8096-4.0088,3.5811-.8115.3037-1.667.4502-2.5361.4502Z" fill="#1e1e1e" stroke-width="0"/><path d="M127.8037,71.0215c-.0244,0-.0488-.001-.0742-.0039l-5.4658-.5342c-.4121-.04-.7139-.4072-.6729-.8193.0391-.4121.4004-.7217.8193-.6729l5.4658.5342c.4121.04.7139.4072.6729.8193-.0371.3867-.3643.6768-.7451.6768Z" fill="#1e1e1e" stroke-width="0"/><path d="M153.0675,67.612c2.3846-2.3794,2.5645-4.858,4.559-5.1057,1.6842-.2091,2.1091,1.4895,5.3553,2.205.6493.1431,2.6337.5275,4.8548-.2715,1.0934-.3933,1.9592-.9774,2.645-1.5799.5628,1.5236,1.0633,3.1106,1.4766,4.7699,1.2983,5.2124,2.754,11.4526-.7149,16.924-3.342,5.2712-9.2491,6.6652-10.4295,6.9165-7.2458,1.5424-13.295-2.3121-18.1803-5.425-5.146-3.2789-8.5792-7.0967-10.673-9.8367,0,0-1.1491-3.9294,1.7752-5.193,2.1302-.9205,8.1919.8077,9.7454.4426,4.3501-1.0223,7.0938-1.3592,9.5863-3.8461Z" fill="#cef3f7" stroke-width="0"/><path d="M157.4756,92.5742c-5.9932,0-11.0498-3.2236-15.2451-5.8965-4.1533-2.6465-7.8096-6.0156-10.8652-10.0137l-.085-.1104-.0391-.1338c-.4619-1.5791-.5977-4.8848,2.1963-6.0928,1.4551-.6279,4.1651-.2363,6.5567.1104,1.3213.1904,2.8154.4102,3.3154.29.5586-.1309,1.0908-.251,1.5996-.3652,3.377-.7627,5.6084-1.2656,7.6289-3.2812.9297-.9277,1.5049-1.8789,2.0127-2.7178.751-1.2402,1.46-2.4121,2.9834-2.6016,1.0996-.1367,1.8076.3398,2.5537.8447.7188.4863,1.5342,1.0371,3.0547,1.3721,1.5244.3359,3.0586.252,4.4404-.2451.873-.3135,1.6592-.7832,2.4033-1.4365l.8203-.7197.3779,1.0234c.5986,1.6211,1.1035,3.252,1.501,4.8477,1.2256,4.917,2.9033,11.6504-.8086,17.5068-3.3486,5.2812-9.1943,6.8838-10.9072,7.249-1.1982.2549-2.3633.3701-3.4941.3701ZM132.6484,75.8721c2.9297,3.8057,6.4238,7.0156,10.3887,9.54,4.7559,3.0322,10.6768,6.8057,17.6201,5.3252,1.5674-.335,6.918-1.7979,9.9521-6.585,3.3691-5.3135,1.8447-11.4277.6211-16.3408-.3057-1.2256-.6758-2.4727-1.1064-3.7207-.6396.4453-1.3213.7988-2.0332,1.0547-1.6484.5928-3.4717.6943-5.2715.2979-1.8008-.3965-2.8242-1.0889-3.5713-1.5938-.6836-.4619-1.0117-.6621-1.5283-.5996-.7686.0957-1.1543.6807-1.8857,1.8906-.5244.8662-1.1777,1.9453-2.2363,3.0029h-.001c-2.3262,2.3213-4.8564,2.8916-8.3574,3.6816-.5049.1133-1.0322.2324-1.5859.3633-.7373.1709-1.9521.0107-3.874-.2666-1.9756-.2871-4.6855-.6777-5.7461-.2178-2.0459.8838-1.5361,3.5439-1.3848,4.168Z" fill="#1e1e1e" stroke-width="0"/><path d="M153.6641,78.2256c-4.7725,0-11.623-.9434-21.376-3.9033-.3066-.0928-.5225-.1582-.6357-.1895-.3994-.1084-.6357-.5205-.5273-.9199.1094-.3984.5205-.6328.9199-.5273.1211.0322.3516.1025.6787.2012,15.2617,4.6328,23.1338,4.248,27.0498,3.1104,1.5957-.4648,4.2607-1.2402,7.0332-3.4893,1.8105-1.4688,3.3105-3.2793,4.457-5.3809.1973-.3633.6523-.498,1.0176-.2988.3633.1982.4971.6543.2988,1.0176-1.2402,2.2734-2.8652,4.2344-4.8281,5.8262-3.0078,2.4414-5.9668,3.3018-7.5566,3.7646-1.5449.4482-3.6631.7891-6.5312.7891Z" fill="#1e1e1e" stroke-width="0"/><path d="M155.4365,84.9209c-9.0137,0-17.9902-4.1484-22.8867-6.8555-.3623-.2002-.4932-.6562-.293-1.0195.1992-.3613.6543-.4941,1.0195-.293,5.416,2.9941,15.9551,7.8086,25.7256,6.4238,2.7842-.3955,5.0977-1.2324,6.8779-2.4883,4.1309-2.916,5.5879-7.5303,6.0889-10.0205.0811-.4062.4756-.668.8828-.5879.4062.082.6699.4775.5879.8828-.5449,2.71-2.1396,7.7354-6.6943,10.9502-1.9766,1.3955-4.5107,2.3203-7.5322,2.748-1.252.1787-2.5146.2598-3.7764.2598Z" fill="#1e1e1e" stroke-width="0"/><path d="M133.7344,71.7656c-.3379,0-.6445-.2305-.7275-.5732-.0254-.1055-2.6172-10.501-8.7334-11.3525-.4102-.0576-.6963-.4365-.6396-.8467.0576-.4102.4336-.6982.8467-.6396,7.126.9932,9.8701,12.0166,9.9834,12.4854.0977.4033-.1494.8076-.5518.9053-.0596.0146-.1191.0215-.1777.0215Z" fill="#1e1e1e" stroke-width="0"/><path d="M142.9062,63.4609c-.0146,0-.0303,0-.0449-.001-.4131-.0244-.7295-.3799-.7051-.793.042-.709.3389-3.1504,2.4072-4.7764,2.0781-1.6328,5.1318-1.7637,7.6006-.3223.3574.208.4785.668.2695,1.0254-.208.3574-.667.4775-1.0254.2695-1.9424-1.1328-4.3203-1.0508-5.917.207-1.5771,1.2393-1.8047,3.1338-1.8369,3.6846-.0234.3984-.3545.7061-.748.7061Z" fill="#1e1e1e" stroke-width="0"/><path d="M160.4531,56.5088c-.1143,0-.2314-.0264-.3408-.082-.3691-.1895-.5146-.6416-.3262-1.0098.3965-.7744,1.3242-2.2148,3.0811-3.166,2.2529-1.2217,4.4629-.8867,5.3096-.6865.4033.0957.6523.499.5566.9023-.0947.4033-.5068.6484-.9023.5566-.6768-.1602-2.4502-.4297-4.249.5459-1.4014.7598-2.1436,1.9121-2.46,2.5312-.1328.2598-.3965.4082-.6689.4082Z" fill="#1e1e1e" stroke-width="0"/><path d="M91.7061,29.3555c-2.4463,0-4.4365-1.9902-4.4365-4.4375s1.9902-4.4365,4.4365-4.4365,4.4375,1.9902,4.4375,4.4365-1.9902,4.4375-4.4375,4.4375ZM91.7061,21.9814c-1.6191,0-2.9365,1.3174-2.9365,2.9365,0,1.6201,1.3174,2.9375,2.9365,2.9375,1.6201,0,2.9375-1.3174,2.9375-2.9375,0-1.6191-1.3174-2.9365-2.9375-2.9365Z" fill="#1e1e1e" stroke-width="0"/><path d="M204.3125,90.21c-2.4472,0-4.4375-1.9902-4.4375-4.4365s1.9902-4.4365,4.4375-4.4365,4.4365,1.9902,4.4365,4.4365-1.9902,4.4365-4.4365,4.4365ZM204.3125,82.8369c-1.6201,0-2.9375,1.3174-2.9375,2.9365s1.3174,2.9365,2.9375,2.9365c1.6192,0,2.9365-1.3174,2.9365-2.9365s-1.3174-2.9365-2.9365-2.9365Z" fill="#1e1e1e" stroke-width="0"/><path d="M77.6719,112.3174c-2.4473,0-4.4375-1.9902-4.4375-4.4365s1.9902-4.4375,4.4375-4.4375,4.4365,1.9902,4.4365,4.4375-1.9902,4.4365-4.4365,4.4365ZM77.6719,104.9434c-1.6201,0-2.9375,1.3174-2.9375,2.9375,0,1.6191,1.3174,2.9365,2.9375,2.9365,1.6191,0,2.9365-1.3174,2.9365-2.9365,0-1.6201-1.3174-2.9375-2.9365-2.9375Z" fill="#1e1e1e" stroke-width="0"/><rect x="150.4338" y="111.2314" width="44.422" height="44.4959" rx="1.2539" ry="1.2539" transform="translate(-7.2144 9.8928) rotate(-3.2151)" fill="#ced3f4" stroke-width="0"/><path d="M163.8278,115.7535l-8.643.4855c-.9356.0526-1.6514.8536-1.5989,1.7892l.4855,8.643c.0526.9356.8536,1.6514,1.7892,1.5989l8.643-.4855c.9356-.0526,1.6514-.8536,1.5989-1.7892l-.4855-8.643c-.0526-.9356-.8536-1.6514-1.7892-1.5989ZM162.7382,126.2069l-5.2999.2977c-.9356.0526-1.7366-.6633-1.7892-1.5989l-.2977-5.2999c-.0526-.9356.6633-1.7366,1.5989-1.7892l5.2999-.2977c.9356-.0526,1.7366.6633,1.7892,1.5989l.2977,5.2999c.0526.9356-.6633,1.7366-1.5989,1.7892Z" fill="#1e1e1e" stroke-width="0"/><rect x="157.2296" y="119.3972" width="5.2292" height="5.2292" rx="1.6967" ry="1.6967" transform="translate(-6.5913 9.1567) rotate(-3.2151)" fill="#1e1e1e" stroke-width="0"/><path d="M177.8223,116.6668l.4855,8.643c.0526.9356.8536,1.6514,1.7892,1.5989l8.643-.4855c.9356-.0526,1.6514-.8536,1.5989-1.7892l-.4855-8.643c-.0526-.9356-.8536-1.6514-1.7892-1.5989l-8.643.4855c-.9356.0526-1.6514.8536-1.5989,1.7892ZM186.9745,124.8455l-5.2999.2977c-.9356.0526-1.7366-.6633-1.7892-1.5989l-.2977-5.2999c-.0526-.9356.6633-1.7366,1.5989-1.7892l5.2999-.2977c.9356-.0526,1.7366.6633,1.7892,1.5989l.2977,5.2999c.0526.9356-.6633,1.7366-1.5989,1.7892Z" fill="#1e1e1e" stroke-width="0"/><rect x="181.4659" y="118.0358" width="5.2292" height="5.2292" rx="1.6967" ry="1.6967" transform="translate(-6.4768 10.5138) rotate(-3.2151)" fill="#1e1e1e" stroke-width="0"/><path d="M157.2134,152.3521l8.643-.4855c.9356-.0526,1.6514-.8536,1.5989-1.7892l-.4855-8.643c-.0526-.9356-.8536-1.6514-1.7892-1.5989l-8.643.4855c-.9356.0526-1.6514.8536-1.5989,1.7892l.4855,8.643c.0526.9356.8536,1.6514,1.7892,1.5989ZM158.303,141.8987l5.2999-.2977c.9356-.0526,1.7366.6633,1.7892,1.5989l.2977,5.2999c.0526.9356-.6633,1.7366-1.5989,1.7892l-5.2999.2977c-.9356.0526-1.7366-.6633-1.7892-1.5989l-.2977-5.2999c-.0526-.9356.6633-1.7366,1.5989-1.7892Z" fill="#1e1e1e" stroke-width="0"/><rect x="158.5824" y="143.4792" width="5.2292" height="5.2292" rx="1.6967" ry="1.6967" transform="translate(-7.9398 9.2705) rotate(-3.2151)" fill="#1e1e1e" stroke-width="0"/><rect x="154.3088" y="129.9827" width="3.4104" height="1.7307" rx=".8412" ry=".8412" transform="translate(-7.0929 8.9558) rotate(-3.2151)" fill="#1e1e1e" stroke-width="0"/><path d="M164.646,130.4699c.0261.4639.4232.8188.8871.7927l.8962-.0503.0929,1.6545-3.4386.1932.0133.2363.0838,1.4917.0968,1.7226.0971,1.728v.0008s1.7025-.0956,1.7025-.0956v-.0008s2.6476-.1487,2.6476-.1487c.4639-.0261.8188-.4232.7927-.8871l-.0027-.0482c-.0261-.4639-.4232-.8188-.8871-.7927l-1.8077.1015c-.4639.0261-.861-.3289-.8871-.7927l-.0024-.0428c-.0261-.4639.3289-.861.7927-.8871l1.8077-.1015c.4639-.0261.861.3289.8871.7927l.0024.042c.0261.4639.4232.8188.8871.7927l.0227-.0013c.4639-.0261.8188-.4232.7927-.8871l-.0495-.8819-.0838-1.4917-.0133-.2363-.0575.0032c-.9356.0526-1.7366-.6633-1.7892-1.5989v-.0004c-.0526-.9356-.8536-1.6514-1.7892-1.5989l-.0085.0005.0003.006-.8962.0503c-.4639.0261-.8188.4232-.7927.8871l.0027.0482Z" fill="#1e1e1e" stroke-width="0"/><path d="M175.1866,134.956l.0027.0483c.0261.4639-.3289.861-.7927.8871l-.0227.0013c-.4639.0261-.8188.4232-.7927.8871l.0024.0427c.0261.4639-.3289.861-.7927.8871l-.0227.0013c-.4639.0261-.8188.4232-.7927.8871l.0499.889-1.6612.0933.0493.8773c.0261.4639-.3289.861-.7927.8871l-.0227.0013c-.4639.0261-.861-.3289-.8871-.7927l-.0992-1.7658c-.026-.4637.3286-.8608.7923-.8871l.0235-.0013c.4637-.0263.8184-.4234.7923-.8871l-.0027-.0485c-.0261-.4639.3289-.861.7927-.8871l.0227-.0013c.4639-.0261.8188-.4232.7927-.8871l-.0024-.0429c-.0261-.4639.3289-.861.7927-.8871l1.6839-.0946c.4639-.0261.861.3289.8871.7927Z" fill="#1e1e1e" stroke-width="0"/><path d="M179.1347,142.4675l-.0928-1.6522-.0043-.0758-.0928-1.6522-1.7025.0956.0928,1.6522-4.3364.2436c-.4639.0261-.8188.4232-.7927.8871l.0027.0482c.0261.4639.4232.8188.8871.7927h.0021c.4639-.0262.861.3287.8871.7926l.0085.1509c.0261.4639-.3289.861-.7927.8871h-.0021c-.4639.0262-.861-.3287-.8871-.7926l-.0085-.1509c-.0261-.4639-.4232-.8188-.8871-.7927l-.0227.0013c-.4639.0261-.8188.4232-.7927.8871l.0065.1155c.0261.4639-.3289.861-.7927.8871l-.0654.0037c-.4639.0261-.8188.4232-.7927.8871l.0027.0482c.0261.4639.4232.8188.8871.7927l.0654-.0037c.4639-.0261.861.3289.8871.7927l.001.0179c.0261.4639-.3289.861-.7927.8871l-.0654.0037c-.4639.0261-.8188.4232-.7927.8871l.0489.8711c.0526.9356.8536,1.6514,1.7892,1.5989l.0512-.0029,1.6186-.0909.0839-.0047-.1441-2.5651c-.0261-.4639.3289-.861.7927-.8871h.0021c.4639-.0262.8188-.4233.7927-.8872l-.0029-.0508c-.0261-.4639.3289-.861.7927-.8871l.0227-.0013c.4639-.0261.8188-.4232.7927-.8871l-.0537-.9565c-.0526-.9356.6633-1.7366,1.5989-1.7892l1.8004-.1011Z" fill="#1e1e1e" stroke-width="0"/><path d="M177.6832,148.6291l.0027.0482c.0261.4639.4232.8188.8871.7927l3.5068-.197c.4639-.0261.861.3289.8871.7927l.0027.0482c.0261.4639.4232.8188.8871.7927l3.5543-.1997c.4639-.0261.8188-.4232.7927-.8871l-.0027-.0482c-.0261-.4639-.4232-.8188-.8871-.7927l-1.008.0566c-.9356.0526-1.7366-.6633-1.7892-1.5989l-.0019-.034-.05-.8907c-.0261-.4639-.4232-.8188-.8871-.7927l-.0227.0013c-.4639.0261-.8188.4232-.7927.8871l.0029.0508c.0261.4639-.3289.861-.7927.8871l-3.4965.1964c-.4639.0261-.8188.4232-.7927.8871Z" fill="#1e1e1e" stroke-width="0"/><rect x="174.3946" y="149.6108" width="3.3897" height="1.7307" rx=".8412" ry=".8412" transform="translate(-8.1621 10.1126) rotate(-3.2151)" fill="#1e1e1e" stroke-width="0"/><rect x="175.0881" y="132.2872" width="3.5543" height="1.7307" rx=".8412" ry=".8412" transform="translate(-7.1893 10.1289) rotate(-3.2151)" fill="#1e1e1e" stroke-width="0"/><path d="M188.9051,134.1866l.0014.0256c.0261.4639.4232.8188.8871.7927l.0157-.0009c.4639-.0261.861.3289.8871.7927l.0029.0512c.0261.4639-.3289.861-.7927.8871l-.0227.0013c-.4639.0261-.861-.3289-.8871-.7927l-.0029-.0512c-.0261-.4639-.4232-.8188-.8871-.7927l-.0227.0013c-.4639.0261-.8188.4232-.7927.8871l.0029.0512c.0261.4639-.3289.861-.7927.8871l-.0227.0013c-.4639.0261-.861-.3289-.8871-.7927l-.0029-.0512c-.0261-.4639-.4232-.8188-.8871-.7927l-.0109.0006c-.4639.0261-.861-.3289-.8871-.7927l-.0506-.9011c-.0525-.935.6624-1.7357,1.5973-1.7891l.8426-.0481c.4635-.0265.818-.4235.792-.887v-.0008c-.0261-.4639-.4233-.8188-.8871-.7927l-.065.0037c-.4639.0261-.861-.3289-.8871-.7927l-.0027-.0483c-.0261-.4639.3289-.861.7927-.8871l.9136-.0513c.9356-.0526,1.7366.6633,1.7892,1.5989l.0019.0341h-.0002s.0474.843.0474.843c.0261.4639.4232.8188.8871.7927l.0935-.0053c.4639-.0261.861.3289.8871.7927l.0027.0483c.0261.4639-.3289.861-.7927.8871l-.0675.0038c-.4639.0261-.8188.4232-.7927.8871Z" fill="#1e1e1e" stroke-width="0"/><path d="M173.678,138.5031l.0027.0482c.0261.4639.4232.8188.8871.7927l.0227-.0013c.4639-.0261.8188-.4232.7927-.8871l-.0024-.0436c-.0261-.4639.3289-.861.7927-.8871l.0227-.0013c.4639-.0261.8188-.4232.7927-.8871l-.0027-.0482c-.0261-.4639-.4232-.8188-.8871-.7927l-.0227.0013c-.4639.0261-.8188.4232-.7927.8871l.0024.0436c.0261.4639-.3289.861-.7927.8871l-.0227.0013c-.4639.0261-.8188.4232-.7927.8871Z" fill="#1e1e1e" stroke-width="0"/><rect x="175.8836" y="146.105" width="1.7052" height="1.7333" rx=".8412" ry=".8412" transform="translate(-7.9646 10.1434) rotate(-3.2151)" fill="#1e1e1e" stroke-width="0"/><rect x="186.1692" y="145.5252" width="1.7052" height="1.7333" rx=".8412" ry=".8412" transform="translate(-7.9159 10.7193) rotate(-3.2151)" fill="#1e1e1e" stroke-width="0"/><rect x="178.8019" y="135.5974" width="1.7052" height="1.7307" rx=".8412" ry=".8412" transform="translate(-7.3706 10.2905) rotate(-3.2151)" fill="#1e1e1e" stroke-width="0"/><path d="M179.431,132.1417l.0227-.0013c.4639-.0261.8188-.4232.7927-.8871h0c-.0261-.4639.3289-.861.7927-.8871l1.7571-.0987c.4639-.0261.8188-.4232.7927-.8871l-.0027-.0482c-.0261-.4639-.4232-.8188-.8871-.7927l-2.6056.1464c-.9356.0526-1.6514.8536-1.5989,1.7892l.0019.034h0s.0472.8399.0472.8399c.0261.4639.4232.8188.8871.7927Z" fill="#1e1e1e" stroke-width="0"/><rect x="154.6015" y="133.4853" width="1.7052" height="5.1948" rx=".8412" ry=".8412" transform="translate(-7.3874 8.9326) rotate(-3.2151)" fill="#1e1e1e" stroke-width="0"/><path d="M169.7287,129.2935l.0574-.0032.1428,2.5426c.0261.4639.4232.8188.8871.7927l.0227-.0013c.4639-.0261.8188-.4232.7927-.8871l-.0056-.0999c-.0261-.4639.3289-.861.7927-.8871l.8626-.0485-.09-1.6028,2.5329-.1423-.0003-.006.9502-.0534-.3418-6.0849c-.0261-.4639-.4232-.8188-.8871-.7927l-.0227.0013c-.4639.0261-.8188.4232-.7927.8871l.0065.1154c.0261.4639-.3289.861-.7927.8871l-.1008.0057c-.4639.0261-.8188.4232-.7927.8871l.0013.0227c.0261.4639.4232.8188.8871.7927l.1008-.0057c.4639-.0261.861.3289.8871.7927l.0029.0508c.0261.4639-.3289.861-.7927.8871l-.1008.0057c-.4639.0261-.861-.3289-.8871-.7927l-.0029-.0508c-.0261-.4639-.4232-.8188-.8871-.7927l-.0227.0013c-.4639.0261-.8188.4232-.7927.8871l.0029.0508c.0261.4639-.3289.861-.7927.8871l-.0717.004c-.4639.0261-.861-.3289-.8871-.7927l-.1978-3.5207c-.0261-.4639.3289-.861.7927-.8871l.0227-.0013c.4639-.0261.8188-.4232.7927-.8871l-.2946-5.245c-.0261-.4639-.4232-.8188-.8871-.7927l-.0227.0013c-.4639.0261-.8188.4232-.7927.8871l.0029.0514c.0261.4639-.3289.861-.7927.8871l-.0227.0013c-.4639.0261-.8188.4232-.7927.8871l.1001,1.7826c.0261.4639.4232.8188.8871.7927l.0227-.0013c.4639-.0261.861.3289.8871.7927l.0013.0236c.0261.4639-.3289.861-.7927.8871l-.0227.0013c-.4639.0261-.8188.4232-.7927.8871l.2466,4.3909c.0526.9356.8536,1.6514,1.7892,1.5989h0s.0003.0059.0003.0059Z" fill="#1e1e1e" stroke-width="0"/><path d="M189.2843,141.0631l.0071.1269c.0261.4639-.3289.861-.7927.8871l-.0227.0013c-.4639.0261-.861-.3289-.8871-.7927l-.0071-.1269c-.0261-.4639-.4232-.8188-.8871-.7927l-.0235.0013c-.4639.0261-.861-.3289-.8871-.7927l-.0989-1.7599c-.0261-.4639-.4232-.8188-.8871-.7927l-.0109.0006c-.4639.0261-.861-.3289-.8871-.7927l-.0029-.0512c-.0261-.4639-.4232-.8188-.8871-.7927l-.0227.0013c-.4639.0261-.8188.4232-.7927.8871l.0039.0695c.0261.4639-.3289.861-.7927.8871l-.0118.0007c-.4639.0261-.8188.4232-.7927.8871l.1917,3.413c.0261.4639-.3289.861-.7927.8871l-.0258.0014c-.4639.0261-.8188.4232-.7927.8871l.0499.8882,1.5448-.0868.0518.9224c.0261.4639.4232.8188.8871.7927l.1597-.009c.4639-.0261.8188-.4232.7927-.8871l-.0046-.0825c-.0261-.4639.3289-.861.7927-.8871l.0227-.0013c.4639-.0261.8188-.4232.7927-.8871l-.0501-.8925.0012.0022,1.7025-.0956-.0004-.0072.0012.0072.0499.8882c.0261.4639.4232.8188.8871.7927l.0227-.0013c.4639-.0261.861.3289.8871.7927l.0046.0825c.0261.4639.4232.8188.8871.7927l.0227-.0013c.4639-.0261.861.3289.8871.7927l.099,1.7621c.0261.4639.4232.8188.8871.7927l.0227-.0013c.4639-.0261.8188-.4232.7927-.8871l-.3888-6.9221c-.0261-.4639-.4232-.8188-.8871-.7927l-.0227.0013c-.4639.0261-.8188.4232-.7927.8871ZM184.1245,140.4515l-1.6788.0943-.0933-1.6612,1.6798-.0944.0923,1.6613Z" fill="#1e1e1e" stroke-width="0"/><rect x="187.4366" y="136.8287" width="1.7052" height="3.4451" rx=".8412" ry=".8412" transform="translate(-7.4741 10.7781) rotate(-3.2151)" fill="#1e1e1e" stroke-width="0"/><rect x="184.3678" y="143.8584" width="1.706" height="1.7651" rx=".8412" ry=".8412" transform="translate(-7.8261 10.6157) rotate(-3.2151)" fill="#1e1e1e" stroke-width="0"/><path d="M175.9327,115.9389l-.0013-.0227c-.0261-.4639-.4232-.8188-.8871-.7927l-.8493.0477-1.3008.0731-.4798.027.149,2.6522c.0261.4639.4232.8188.8871.7927l.1008-.0057c.4639-.0261.8188-.4232.7927-.8871l-.0062-.1098c-.0261-.4639.3289-.861.7927-.8871l.0094-.0005c.4639-.0261.8188-.4232.7927-.8871Z" fill="#1e1e1e" stroke-width="0"/><rect x="172.7526" y="120.4144" width="1.7834" height="1.7052" rx=".8412" ry=".8412" transform="translate(-6.5278 9.9295) rotate(-3.2151)" fill="#1e1e1e" stroke-width="0"/><rect x="174.4376" y="118.6119" width="1.7834" height="1.7052" rx=".8412" ry=".8412" transform="translate(-6.4241 10.0212) rotate(-3.2151)" fill="#1e1e1e" stroke-width="0"/><rect x="159.8061" y="136.6582" width="1.7052" height="1.7323" rx=".8412" ry=".8412" transform="translate(-7.46 9.2268) rotate(-3.2151)" fill="#1e1e1e" stroke-width="0"/><path d="M161.2738,133.2722l-.101-1.7987c-.0526-.9356-.8536-1.6514-1.7892-1.5989l-.0085.0005.0924,1.6457-.0085.0005c-.9356.0526-1.6514.8536-1.5989,1.7892l.101,1.7985c.0526.9356.8536,1.6514,1.7892,1.5989l.0085-.0005-.0924-1.6455.0085-.0005c.9356-.0526,1.6514-.8536,1.5989-1.7892Z" fill="#1e1e1e" stroke-width="0"/><path d="M133.6729,165.9219c-.2285,0-.4531-.1035-.6006-.2988-1.0537-1.4023-3.1045-2.1914-5.4824-2.1182-1.4258.0459-2.8164.3418-4.2881.6562-.7783.166-1.5566.3311-2.3398.459-2.9902.4873-5.3262.1973-7.1445-.8838-2.8408-1.6914-4.3018-5.5215-3.5527-9.3154.6982-3.5361,2.9873-6.5039,4.9033-8.6943.2744-.3115.748-.3418,1.0586-.0703.3115.2725.3428.7461.0703,1.0586-1.793,2.0488-3.9316,4.8105-4.5615,7.9971-.5137,2.6025.1592,6.1338,2.8496,7.7354,1.502.8936,3.5107,1.1182,6.1357.6924.7588-.124,1.5137-.2852,2.2686-.4463,1.4717-.3135,2.9932-.6377,4.5527-.6885,2.916-.0996,5.3613.8975,6.7295,2.7158.249.3311.1826.8018-.1484,1.0508-.1357.1016-.2939.1504-.4502.1504Z" fill="#1e1e1e" stroke-width="0"/><path d="M119.0957,200.4023c-.9316,0-1.873-.0684-2.8174-.2061-.4092-.0596-.6934-.4404-.6338-.8506.0605-.4102.4395-.6924.8506-.6338,1.7793.2588,3.5439.2539,5.2451-.0156,10.8652-1.7139,16.6211-13.7705,17.665-16.1699.165-.3799.6123-.5537.9863-.3887.3799.165.5537.6064.3887.9863-1.543,3.5488-7.459,15.2646-18.8057,17.0547-.9453.1484-1.9072.2236-2.8789.2236Z" fill="#1e1e1e" stroke-width="0"/><path d="M176.1187,151.1359c.27-.09.57-.14.88-.06.55.14.84.61.88.68.12.2.3.62.11,1.45-.32,1.43-1.35,2.41-1.57,2.61-.41.38-.83.74-1.26,1.09l.14.17c.27.12,1.09.55,1.34,1.39.23.81-.19,1.54-.65,2.31-.79,1.34-1.8,2.12-2.07,2.32-1.61,1.21-3.23,2.05-4.4,2.58l.04.11c.67-.03,1.61-.01,2.68.23.99.23,2.94.67,3.06,1.49.15,1.03-2.61,2.24-4.41,3.02-2.59,1.13-4.72,1.66-6.5,2.09-4.75,1.15-4.89,1.09-7.72,1.79-2.03.5-5.82,1.49-10.42,3.02-1.39.47-2.54.87-3.33,1.16-1.55.1-2.7-.27-3.37-.56-2.95-1.26-4.54-4.39-4.73-7.11-.11-1.48.21-2.69.47-3.41,1.75-2.73,3.07-4.99,3.91-6.47,1.64-2.91,3.39-5.79,6.88-11.55.09-.15.98-1.65,2.64-3.1.8-.7,2.55-2.23,3.38-1.75.71.4.27,1.98.19,4.32-.08,2.52.28,4.73.76,6.55,4.21-.53,7.32-1.63,9.4-2.55,4.03-1.78,6.04-2.67,7.17-3.43,1.59-1.06,3.21-2.4,4.91-1.96.24.06,1.3.33,1.7,1.22.31.66.15,1.47.11,1.67-.06.28-.14.51-.22.68Z" fill="#fff" stroke-width="0"/><path d="M169.5587,165.7859c.67-.03,1.61-.01,2.68.23.99.23,2.94.67,3.06,1.49.15,1.03-2.61,2.24-4.41,3.02-2.59,1.13-4.72,1.66-6.5,2.09-4.75,1.15-4.89,1.09-7.72,1.79-2.03.5-5.82,1.49-10.42,3.02-1.39.47-2.54.87-3.33,1.16-1.55.1-2.7-.27-3.37-.56-2.95-1.26-4.54-4.39-4.73-7.11-.11-1.48.21-2.69.47-3.41,1.75-2.73,3.07-4.99,3.91-6.47,1.64-2.91,3.39-5.79,6.88-11.55.09-.15.98-1.65,2.64-3.1.8-.7,2.55-2.23,3.38-1.75.71.4.27,1.98.19,4.32-.08,2.52.28,4.73.76,6.55,4.21-.53,7.32-1.63,9.4-2.55,4.03-1.78,6.04-2.67,7.17-3.43,1.59-1.06,3.21-2.4,4.91-1.96.24.06,1.3.33,1.7,1.22.31.66.15,1.47.11,1.67-.06.28-.14.51-.22.68" fill="none" stroke="#1e1e1e" stroke-linecap="round" stroke-linejoin="round" stroke-width="1.5"/><path d="M161.7887,168.2259c2.68-.62,4.86-1.37,6.45-2,.3-.12.74-.3,1.28-.55,1.17-.53,2.79-1.37,4.4-2.58.27-.2,1.28-.98,2.07-2.32.46-.77.88-1.5.65-2.31-.25-.84-1.07-1.27-1.34-1.39" fill="none" stroke="#1e1e1e" stroke-linecap="round" stroke-linejoin="round" stroke-width="1.5"/><path d="M159.4787,163.7959c1.12-.09,2.66-.29,4.42-.77,2.27-.63,3.78-1.42,6.01-2.6,0,0,2.67-1.42,5.25-3.52.43-.35.85-.71,1.26-1.09.22-.2,1.25-1.18,1.57-2.61.19-.83.01-1.25-.11-1.45-.04-.07-.33-.54-.88-.68-.31-.08-.61-.03-.88.06v.01c-.3.1-.55.26-.68.35-5.17,3.47-6.84,4.45-7.39,4.76-2.05,1.15-3.92,1.69-5.5,2.14-1.66.48-3.13.75-4.27.92" fill="none" stroke="#1e1e1e" stroke-linecap="round" stroke-linejoin="round" stroke-width="1.5"/></svg>