<?xml version="1.0" encoding="UTF-8"?><svg id="c" xmlns="http://www.w3.org/2000/svg" width="300" height="225" viewBox="0 0 300 225"><path d="M170.0409,67.279c-1.7038-.2818-12.0635-2.1594-16.8209-10.9701-2.2267-4.1239-2.3363-8.1188-2.403-10.5522-.0665-2.4236-.159-9.3834,4.4925-15.4626,1.0667-1.3942,1.9325-2.5257,3.4478-3.4478,5.8699-3.5719,14.1756.4044,16.8208,1.6716,12.4028,5.9421,18.1972,23.8077,22.5552,39.4965,4.3837,15.7814,9.5358,37.3587,13.3647,63.8116-18.3968,0-26.2209-.3981-44.6177-.3981,1.0535-21.383,2.107-42.766,3.1606-64.149Z" fill="#1e1e1e" stroke-width="0"/><polygon points="129.2203 90.7341 121.611 121.3694 152.2053 111.0027 149.071 90.7341 129.2203 90.7341" fill="#1e1e1e" stroke-width="0"/><path d="M106.157,170.7907c-.1044-9.5111-.0981-21.4811,6.4941-35.0117,2.6414-5.4214,8.1321-16.3483,20.047-24,21.5611-13.8464,46.5681-5.6713,52.3755-3.5517,22.1177,8.0724,32.7233,25.6567,35.6554,30.984,11.1135,20.1921,15.2445,51.4775,1.3528,68.2629-4.1498,5.0143-8.6539,7.2194-13.5882,9.635-14.0918,6.8989-23.644,3.9919-47.6366,3.8849-22.5258-.1004-26.8792,2.4051-31.5068,1.7084,0,0-2.1348-.4483-4.1768-1.3813-6.5899-3.0113-18.7045-22.1075-19.0164-50.5305Z" fill="#b7fdc0" stroke-width="0"/><circle cx="205.2794" cy="20.1226" r="17.9477" fill="#ced3f4" stroke-width="0"/><path d="M205.8635,17.3945c-1.9287,0-3.4321-.6797-4.355-1.252-.3521-.2188-.4604-.6807-.2422-1.0332.2178-.3516.6802-.46,1.0322-.2422.7573.4697,1.9893,1.0273,3.5654,1.0273h.0269c.9375-.0029,1.853-.2021,2.7217-.5918.3779-.1729.8213,0,.9912.3779.1694.3779,0,.8213-.3779.9912-1.061.4756-2.1812.7188-3.3291.7227h-.0332Z" fill="#1e1e1e" stroke-width="0"/><path d="M205.4114,28.5117c-5.2183,0-7.4639-2.0918-7.5566-2.1807-.1533-.1465-.2368-.3516-.231-.5625l.1797-6.4492c.0112-.415.3613-.71.7705-.7295.4141.0117.7402.3564.7285.7705l-.1689,6.0723c.647.4541,2.6216,1.5791,6.2778,1.5791,3.7656,0,5.6309-1.4863,6.1851-2.0273l-.27-5.6084c-.02-.4141.2993-.7656.7129-.7852.4185-.0439.7656.2998.7852.7129l.2852,5.9229c.0088.1807-.0483.3584-.1602.501-.0898.1133-2.2583,2.7842-7.5381,2.7842Z" fill="#1e1e1e" stroke-width="0"/><path d="M205.3816,22.9336c-5.2603,0-9.0112-3.3535-10.8472-9.6992-.1152-.3975.1138-.8135.5117-.9287.396-.1133.8135.1133.9287.5127,1.6548,5.7168,4.8193,8.6152,9.4067,8.6152,4.7163,0,7.8086-3.0674,9.1914-9.1172.0918-.4033.4941-.6562.8979-.5645.4038.0928.6562.4951.564.8984-1.5371,6.7275-5.2212,10.2832-10.6533,10.2832Z" fill="#1e1e1e" stroke-width="0"/><path d="M90.9199,156.1964c-.3965,4.1697-.6775,10.2294.065,17.4744,1.0006,9.7634,1.828,17.837,7.8009,24.4433,1.7586,1.9451,6.288,6.9547,13.1059,7.1769,4.5322.1477,9.4568-1.8402,12.4817-5.3047,8.8668-10.1556.327-31.7587-7.177-43.3739-4.3745-6.7712-9.1612-11.3311-12.0656-13.8339-4.737,4.4726-9.4739,8.9452-14.2109,13.4178Z" fill="#b7fdc0" stroke-width="0"/><path d="M105.1308,142.7786s-4.1606,18.5145-14.5223,17.8877c-.2374-2.2886.3114-4.4699.3114-4.4699l14.2109-13.4178Z" fill="#1e1e1e" stroke-width="0"/><path d="M74.0955,126.8955c-1.2085.001-2.062-.8184-2.583-1.3184-2.2354-2.1445-2.3828-5.1865-2.438-6.332-.0723-1.4805-.1709-3.5088,1.2163-4.3555,1.0029-.6123,2.1792-.2422,2.6377-.0547,1.1841.4863,1.6079,1.2861,3.4897,6.5771.1245.3486.2344.6602.3262.9434.127.3936-.0889.8164-.4829.9443-.397.126-.8174-.0898-.9443-.4834-.0874-.2695-.1934-.5674-.312-.9023-1.6792-4.7207-2.0732-5.4561-2.6455-5.6914-.3789-.1533-.9443-.2607-1.2866-.0537-.6279.3838-.5542,1.8984-.5005,3.0039.0522,1.0742.1738,3.5908,1.978,5.3223.54.5176,1.0464.9365,1.6333.8975.3667-.0273.7397-.2246,1.0234-.542.2754-.3076.7505-.334,1.0591-.0576s.3345.751.0581,1.0596c-.5396.6016-1.2793.9795-2.0288,1.0361-.0674.0049-.1343.0068-.2002.0068Z" fill="#1e1e1e" stroke-width="0"/><path d="M85.5863,119.8227c.3526,1.104-.4446,2.7601-1.5027,2.8521s-1.288-.368-3.6341-2.9901c-2.346-2.6221-2.9901-6.4401-3.1281-7.1761s.69-1.886,1.472-2.116,2.346.138,2.346.138l4.3241,1.702c-1.2004-1.5388-3.2325-4.1997-3.8915-5.0158-.0002-.0001-1.3847-1.7146-4.3887-5.9171-1.0442-1.4607-1.7999-2.5573-1.4108-3.4961.274-.6609.989-.9386,1.1042-.9813,1.4493-.5378,3.1486.778,6.624,3.6801,4.3194,3.607,6.503,5.4408,7.6668,6.9308,1.3186,1.6882,2.3016,3.2,3.4347,5.6428,4.4736,9.6447,6.6818,24.3155,9.1966,30.9601,0,0-3.1979,13.5641-10.1875,15.4079,0,0-4.5067-8.1362-8.3932-13.7994-1.9835-2.8902-2.9754-4.3353-4.1094-5.7041-1.0964-1.3232-1.6736-1.8819-2.4533-3.1281-1.3331-2.1307-1.8596-4.0459-2.1468-5.0908-1.0198-3.7111-.7927-7.0575-.478-9.1369" fill="#fff" stroke-width="0"/><path d="M93.6116,160.1943c-.2676,0-.5215-.1436-.6562-.3867-.0449-.0811-4.5342-8.1709-8.355-13.7383-1.9668-2.8662-2.9541-4.3047-4.0693-5.6504-.2808-.3389-.5278-.6279-.752-.8906-.6689-.7822-1.1519-1.3477-1.7593-2.3184-1.3901-2.2217-1.939-4.2148-2.2334-5.2861-.8135-2.96-.9849-6.2275-.4976-9.4512.0615-.4092.4385-.6934.854-.6289.4092.0615.6914.4434.6294.8535-.4565,3.0176-.2979,6.0693.4595,8.8262.2754.999.7861,2.8555,2.0596,4.8916.5483.876.978,1.3779,1.6279,2.1387.229.2676.4805.5625.7671.9082,1.1582,1.3984,2.1582,2.8555,4.1504,5.7578,3.2886,4.792,7.0566,11.4141,8.1313,13.3252,5.6543-2.1016,8.6182-12.8027,9.0469-14.4648-.9741-2.6455-1.8818-6.3604-2.9277-10.6445-1.6323-6.6846-3.4829-14.2607-6.165-20.0439-1.1543-2.4893-2.1357-3.9482-3.3452-5.4961-1.1382-1.458-3.418-3.3613-7.5571-6.8184-3.0371-2.5352-4.8052-3.9502-5.8823-3.5518-.0508.0195-.5225.2041-.6719.5654-.2397.5791.5215,1.6445,1.3281,2.7725,2.9517,4.1289,4.3481,5.8652,4.3618,5.8828.3975.4922,1.292,1.6514,2.2046,2.834.604.7832,1.2158,1.5771,1.6948,2.1914.208.2666.2119.6387.0093.9102-.2017.2705-.5605.3711-.8755.249l-4.272-1.6816c-.5762-.1309-1.5166-.2549-1.9111-.1367-.4819.1406-1.0015.9668-.9468,1.2578.6807,3.6797,1.9785,5.7285,2.9497,6.8145l.8408.9463c1.585,1.793,1.6729,1.8379,2.1694,1.7969.1748-.0156.3906-.1865.5645-.4473.292-.4385.4131-1.0391.2886-1.4297-.126-.3955.0918-.8174.4863-.9434.394-.124.8164.0928.9424.4863.2642.8271.0801,1.8945-.4692,2.7188-.439.6592-1.0371,1.0537-1.6826,1.1094-1.29.1094-1.7866-.4473-3.4229-2.2969l-.8354-.9404c-1.0991-1.2285-2.5625-3.5205-3.291-7.458-.2397-1.2773.915-2.7402,1.9834-3.0537.9238-.2734,2.4346.0586,2.7285.127.0352.0088.0693.0195.103.0322l1.7891.7051c-.0107-.0137-.021-.0273-.0312-.041-.9038-1.1719-1.79-2.3203-2.1836-2.8086-.0571-.0703-1.4326-1.7793-4.415-5.9512-1.1016-1.541-2.0522-2.8721-1.4937-4.2197.3638-.8789,1.1938-1.2695,1.5337-1.3965,1.8613-.6914,3.7051.748,7.3677,3.8057,4.2183,3.5225,6.5415,5.4629,7.7778,7.0459,1.2749,1.6318,2.3091,3.1689,3.5239,5.7891,2.7437,5.915,4.6128,13.5674,6.2612,20.3193,1.064,4.3564,1.9829,8.1191,2.9565,10.6904.0527.1396.0625.292.0283.4375-.1348.5723-3.3853,14.0254-10.7261,15.9619-.064.0166-.1279.0244-.1914.0244Z" fill="#1e1e1e" stroke-width="0"/><path d="M73.2957,116.7412c-.3091,0-.5986-.1924-.707-.5-.2778-.7871-.2012-1.5654.2212-2.2529.624-1.0146,1.8691-1.6016,2.7622-1.7178,1.2817-.166,2.1953.3496,2.2949.4102.356.2119.4731.6719.2612,1.0283-.2114.3535-.668.4678-1.0215.2646-.0229-.0127-.583-.3203-1.3413-.2148-.5503.0713-1.3481.4795-1.6777,1.0146-.1846.3008-.2114.6084-.085.9678.1382.3906-.0669.8193-.4575.957-.0825.0293-.1665.043-.2495.043Z" fill="#1e1e1e" stroke-width="0"/><path d="M78.1399,124.9238c-1.4624,0-2.6094-1.7275-2.7417-1.9346-.2222-.3486-.1201-.8105.228-1.0342.3472-.2236.812-.1221,1.0356.2256.3594.5586,1.0957,1.3018,1.5244,1.2402,1.0537-.1426,1.3657-.3457,1.6909-.6172.0918-.0762.8784-.7803.498-2.1924-.1079-.4004.1289-.8115.5288-.9199.3989-.1094.811.1299.9194.5293.4736,1.7578-.2354,3.1104-.9858,3.7354-.5615.4688-1.1431.7744-2.4502.9512-.0835.0117-.166.0166-.2476.0166Z" fill="#1e1e1e" stroke-width="0"/><path d="M125.5398,174.7891c-.3145,0-.6074-.1992-.7119-.5137-1.9331-5.832-4.9443-12.1211-8.2612-17.2559-3.0107-4.6602-7.7959-9.832-14.2241-15.3711-.3135-.2705-.3486-.7441-.0786-1.0576.271-.3145.7446-.3496,1.0581-.0791,6.5361,5.6338,11.4165,10.9131,14.5044,15.6934,3.3828,5.2373,6.4536,11.6514,8.4253,17.5977.1304.3936-.0825.8184-.4761.9482-.0781.0264-.1577.0381-.2358.0381Z" fill="#1e1e1e" stroke-width="0"/><path d="M88.5003,135.5693c-.2808,0-.5503-.1582-.6782-.4287-.9316-1.9678-1.9946-5.126-1.77-8.9961.1064-1.8379.4878-3.6367,1.1353-5.3643-.5942-.0225-1.1841-.0977-1.7632-.2256-.9922-.2197-2.835-.627-4.1558-2.2148-1.0601-1.2754-1.4116-2.4131-1.0449-3.3828.2949-.7783,1.0283-1.3145,2.3789-1.7383,1.1147-.3486,4.1519-1.0059,8.2622.4375.7266.2559,1.4131.5488,2.1001.8965.3696.1865.5181.6377.3311,1.0068-.1865.3711-.6367.5205-1.0078.3311-.6284-.3174-1.2568-.585-1.9209-.8193-3.687-1.2949-6.3447-.7266-7.3159-.4209-.5732.1797-1.2856.4707-1.4243.8379-.0913.2402-.1089.8057.7944,1.8926.9932,1.1934,2.4521,1.5156,3.3242,1.709.8208.1816,1.6655.2393,2.5098.1699.27-.0195.52.0977.6729.3145.1533.2158.1807.4971.0723.7393-.8442,1.8857-1.3325,3.876-1.4512,5.917-.2061,3.5547.772,6.458,1.6284,8.2676.1772.375.0176.8223-.3569.999-.1035.0488-.2129.0723-.3203.0723Z" fill="#1e1e1e" stroke-width="0"/><path d="M172.9403,78.8507l-.9145,30.1147s-3.8657,6.2686-12.4328,6.2686-12.4328-4.1791-12.4328-4.1791l.4179-15.5426" fill="#fff" stroke-width="0"/><path d="M159.593,115.9844c-8.7939,0-12.8164-4.2402-12.9834-4.4209-.1328-.1436-.2041-.333-.1987-.5293l.418-15.542c.0107-.4141.3467-.748.7695-.7295.4141.0117.7407.3564.7295.7705l-.4087,15.21c.8887.7979,4.6431,3.7412,11.6738,3.7412,7.3105,0,11.0356-4.8203,11.6895-5.7559l.9082-29.9004c.0127-.4141.354-.7295.7725-.7275.4141.0127.7393.3584.7266.7725l-.9146,30.1152c-.0039.1318-.042.2598-.1113.3711-.1665.2705-4.187,6.625-13.0708,6.625Z" fill="#1e1e1e" stroke-width="0"/><path d="M172.9403,78.8507s-8.3599,24.8587-25.3621,27.2789v-7.1692s7.3527-3.5019,10.367-5.5461,11.2598-14.1205,11.2598-14.1205l3.7354-.4431Z" fill="#1e1e1e" stroke-width="0"/><path d="M138.8021,50.4582c-4.2663,5.8822-10.1422,16.0636-10.5039,29.0386-.1497,5.3696-.2326,11.7768,4.3294,16.3764,4.3952,4.4314,10.4638,4.5255,11.6706,4.5176,7.408-.0481,12.4893-5.1107,16.5929-9.1994,4.3226-4.3067,6.8568-8.7722,8.3139-11.8976,0,0,9.403-.1045,12.1194-5.6418,2.7164-5.5373.7313-7.9403.7313-7.9403-3.3084.5224-6.6169,1.0448-9.9253,1.5672" fill="#fff" stroke-width="0"/><path d="M144.2146,101.1406c-1.8569,0-7.7852-.3691-12.1196-4.7393-4.8809-4.9209-4.6875-11.8594-4.5464-16.9248.2803-10.0547,3.9614-20.2412,10.6465-29.459.2432-.3359.7109-.4082,1.0474-.167.335.2432.4097.7119.1665,1.0479-6.5063,8.9727-10.0894,18.8691-10.3613,28.6191-.1406,5.0625-.3159,11.3623,4.1128,15.8271,3.9937,4.0264,9.5356,4.3223,11.1328,4.2959,7.1016-.0459,12.0732-5,16.0684-8.9805,3.3657-3.3535,6.1123-7.2842,8.1636-11.6836.1216-.2607.3828-.4287.6709-.4326.0894-.001,8.9756-.168,11.4551-5.2217,1.8774-3.8271,1.3511-5.9922,1.0078-6.7881l-9.4116,1.4863c-.4106.0605-.7935-.2158-.8579-.624-.0649-.4092.2144-.793.6235-.8584l9.9253-1.5674c.2617-.041.5264.0596.6953.2637.0938.1133,2.2607,2.8447-.6357,8.748-2.5557,5.209-10.2886,5.9424-12.3101,6.0449-2.1035,4.3906-4.8833,8.3232-8.2676,11.6953-4.1885,4.1738-9.4014,9.3682-17.1172,9.418h-.0884Z" fill="#1e1e1e" stroke-width="0"/><path d="M136.8194,39.8471c-1.9903,2.3475-4.0876,5.5794-3.4652,8.8146,1.6439,8.5445,15.7966,5.6928,20.8758,2.982,4.257-2.2719,9.2641-6.6242,9.1435-11.8698-.1001-4.3541-4.4565-9.5068-9.0086-9.5187-1.2943-.0034-2.5641.3385-3.7951.7386-4.5842,1.4899-9.0338,3.966-12.4689,7.4529-.4204.4267-.8541.8965-1.2814,1.4005Z" fill="#1e1e1e" stroke-width="0"/><path d="M172.204,68.0145c1.955-1.6902,5.6829-4.471,11.1294-6.0723,5.5178-1.6223,10.215-1.274,12.7805-.8979-4.1739-13.6835-9.9445-27.4521-20.5358-32.5263-2.6451-1.2673-10.9509-5.2435-16.8207-1.6716-1.5153.9221-2.3812,2.0535-3.4479,3.4478-4.6515,6.0792-4.559,13.039-4.4925,15.4626.0646,2.3543.1701,6.2494,2.403,10.5522,3.2089,6.1837,9.4154,10.5216,15.8428,11.4938,1.2805.1937,2.3687.2234,3.1411.2118Z" fill="#1e1e1e" stroke-width="0"/><path d="M149.9671,46.5068c-.4072,0-.7412-.3262-.7495-.7354-.0586-3.0117.3867-6.0176,1.3247-8.9336.1265-.3945.5483-.6104.9434-.4844.3945.127.6113.5488.4844.9434-.8867,2.7588-1.3081,5.5996-1.2524,8.4453.0078.4141-.3213.7568-.7354.7646h-.0151Z" fill="#fff" stroke-width="0"/><path d="M131.1663,60.4814c-.4019,0-.7349-.3184-.749-.7236-.0146-.4141.3091-.7617.7231-.7764l6.4004-.2256c.4136-.0293.7612.3086.7759.7236.0146.4141-.3091.7617-.7231.7764l-6.4004.2256h-.0269Z" fill="#1e1e1e" stroke-width="0"/><path d="M155.1228,62.0498c-.0273,0-.0547-.001-.0825-.0049l-6.3667-.6943c-.4116-.0449-.709-.415-.6641-.8262.0449-.4121.4131-.7285.8271-.6641l6.3667.6943c.4116.0449.709.415.6641.8262-.042.3848-.3672.6689-.7446.6689Z" fill="#1e1e1e" stroke-width="0"/><path d="M134.8611,69.8809c-.0303,0-.0601-.001-.0903-.0029-.6841-.0488-1.2002-.6465-1.1509-1.3311l.2744-3.7314c.0508-.6836.6504-1.2021,1.3311-1.1504.686.0518,1.2012.6494,1.1509,1.332l-.2744,3.7314c-.0483.6533-.5962,1.1523-1.2407,1.1523Z" fill="#1e1e1e" stroke-width="0"/><path d="M150.7683,71.2246c-.686,0-1.2441-.5586-1.2441-1.2441v-3.7412c0-.6855.5581-1.2441,1.2441-1.2441s1.2441.5586,1.2441,1.2441v3.7412c0,.6855-.5581,1.2441-1.2441,1.2441Z" fill="#1e1e1e" stroke-width="0"/><path d="M140.0657,81.5908c-.147,0-.2954-.043-.4253-.1328l-1.7012-1.1738c-.6719-.4639-1.0771-1.2275-1.0845-2.0439s.3838-1.5869,1.0469-2.0625l2.0366-1.4619,1.4463-9.541c.0625-.4092.4434-.6914.854-.6289.4097.0615.6914.4443.6294.8535l-1.4937,9.8535c-.0303.2002-.1401.3789-.3042.4971l-2.2939,1.6465c-.271.1943-.4248.4971-.4214.8301.0029.334.1621.6338.4365.8232l1.7007,1.1738c.3413.2354.4268.7021.1914,1.043-.1455.2109-.3794.3242-.6177.3242Z" fill="#1e1e1e" stroke-width="0"/><path d="M143.2512,90.2725c-.3301,0-.6606-.0225-.9897-.0703-2.1738-.3115-3.7471-1.6064-4.6836-2.6387-.2783-.3066-.2559-.7803.0508-1.0596.3076-.2764.7817-.2549,1.0596.0518.771.8486,2.0542,1.9131,3.7861,2.1621,3.146.4453,6.4717-1.8643,8.0996-5.627.1646-.3799.604-.5557.9863-.3906.3804.165.5552.6064.3906.9863-1.7324,4.0039-5.208,6.5859-8.6997,6.5859Z" fill="#1e1e1e" stroke-width="0"/><path d="M171.9925,73.3525c-.3164,0-.6104-.2012-.7134-.5186-.1279-.3936.0879-.8174.4819-.9453l5.2231-1.6943c.396-.125.8169.0879.9448.4824.1279.3936-.0879.8174-.4819.9453l-5.2231,1.6943c-.0771.0244-.1548.0361-.2314.0361Z" fill="#1e1e1e" stroke-width="0"/><path d="M146.7452,75.4262c-2.8395-1.8123-3.5471-4.1946-5.5483-4.0086-1.6898.1571-1.7404,1.9073-4.7575,3.3027-.6035.2791-2.4592,1.0803-4.8.7765-1.1523-.1495-2.1233-.5343-2.9224-.9756-.2228,1.6089-.3712,3.2663-.4188,4.9756-.1497,5.3696-.2326,11.7768,4.3294,16.3765,4.3952,4.4314,10.4638,4.5255,11.6706,4.5176,7.408-.0482,12.4893-5.1108,16.5929-9.1994,4.3226-4.3067,6.8568-8.7722,8.3139-11.8976,0,0,.2792-4.0844-2.848-4.6912-2.2781-.442-7.8279,2.5465-9.4235,2.5232-4.4681-.0652-7.2202.1945-10.1882-1.6997Z" fill="#cef3f7" stroke-width="0"/><path d="M144.2146,101.1406c-1.8564,0-7.7847-.3682-12.1196-4.7393-4.8809-4.9209-4.6875-11.8594-4.5464-16.9248.0459-1.6484.189-3.3506.4258-5.0576l.1494-1.082.9561.5283c.8652.4775,1.7339.7686,2.6562.8877,1.4512.1885,2.9688-.0586,4.3892-.7129,1.4126-.6543,2.0903-1.3662,2.6885-1.9951.6216-.6533,1.2085-1.2705,2.314-1.374,1.5283-.1299,2.4717.8496,3.4712,1.9004.6758.71,1.4419,1.5156,2.5498,2.2227h0c2.4058,1.5352,4.6934,1.5479,8.1553,1.5674.5215.0029,1.0669.0059,1.6401.0146.4678-.0098,1.9272-.5244,3.1772-.9951,2.3716-.8926,4.8218-1.8164,6.3779-1.5146,2.9888.5791,3.5659,3.8369,3.4536,5.4785l-.0093.1396-.0591.127c-2.1255,4.5586-4.9731,8.6338-8.4644,12.1113-4.1885,4.1738-9.4014,9.3682-17.1172,9.418h-.0884ZM129.3299,75.6475c-.1519,1.3076-.2466,2.6055-.2822,3.8701-.1406,5.0625-.3159,11.3623,4.1128,15.8271,3.9937,4.0264,9.5356,4.3223,11.1328,4.2959,7.1016-.0459,12.0732-5,16.0684-8.9805,3.3311-3.3193,6.0562-7.2031,8.1001-11.5479.0137-.6416-.0601-3.3496-2.2476-3.7734-1.1392-.2168-3.6963.7432-5.5645,1.4453-1.7944.6758-2.9404,1.0918-3.6978,1.0918h-.0298c-.5684-.0088-1.1094-.0117-1.6265-.0146-3.5894-.0195-6.1826-.0342-8.9536-1.8037h0c-1.2617-.8047-2.1313-1.7178-2.8296-2.4521-.9741-1.0234-1.4766-1.5176-2.2456-1.4404-.5234.0488-.7974.3145-1.3662.9131-.6216.6543-1.4731,1.5488-3.1465,2.3232-1.6777.7734-3.4766,1.0635-5.2114.8398-.752-.0977-1.4932-.2969-2.2129-.5938Z" fill="#1e1e1e" stroke-width="0"/><path d="M142.971,86.5859c-.3833,0-.7407-.0127-1.0757-.0352-1.6523-.1104-4.728-.3154-8.1924-2.0547-2.2573-1.1328-4.2646-2.6992-5.9663-4.6553-.272-.3125-.2388-.7861.0737-1.0576.313-.2725.7861-.2402,1.0581.0732,1.5728,1.8076,3.4258,3.2539,5.5073,4.2998,3.1938,1.6025,5.9639,1.7881,7.6191,1.8984,4.0669.2705,11.8394-1.043,25.752-8.8408.2979-.167.5083-.2852.6191-.3428.3672-.1895.8203-.0488,1.0122.3184.1914.3672.0493.8203-.3179,1.0117-.104.0537-.3008.165-.5801.3213-13.1172,7.3525-21.0088,9.0635-25.5093,9.0635Z" fill="#1e1e1e" stroke-width="0"/><path d="M142.6604,93.4648c-2.3335,0-4.415-.3809-6.2065-1.1357-5.1387-2.1631-7.7739-6.7295-8.8872-9.2598-.167-.3789.0054-.8213.3843-.9883.3799-.166.8218.0059.9888.3848,1.0234,2.3252,3.4365,6.5195,8.0967,8.4805,2.0044.8467,4.4438,1.168,7.2524.9551,9.8379-.7402,19.1016-7.707,23.748-11.7939.3105-.2734.7856-.2432,1.0581.0684.2739.3105.2432.7852-.0679,1.0586-4.7871,4.21-14.3521,11.3896-24.626,12.1631-.5942.0449-1.1753.0674-1.7407.0674Z" fill="#1e1e1e" stroke-width="0"/><path d="M166.3572,75.3525h-.0166c-.4141-.0088-.7427-.3516-.7339-.7656.0103-.4824.3262-11.8379,7.0728-14.3369.3892-.1465.8203.0537.9639.4424.144.3887-.0542.8203-.4424.9639-5.791,2.1455-6.0923,12.8545-6.0942,12.9619-.0093.4092-.3433.7344-.7495.7344Z" fill="#1e1e1e" stroke-width="0"/><circle cx="94.9917" cy="52.7494" r="17.9477" fill="#ced3f4" stroke-width="0"/><path d="M95.1487,63.5713c-.1157,0-.2324-.0264-.3423-.083-.3687-.1895-.5137-.6416-.3242-1.0098.0972-.1895.208-.4922.1812-.8564-.0347-.4756-.292-.9375-.6558-1.1777-.1104-.0723-.1328-.0801-.562-.1084-.2876-.0195-.6772-.0449-1.2549-.124-.9663-.1318-1.605-.2188-2.3594-.5527-.542-.2412-1.2808-.5693-1.8486-1.3545-.9473-1.3076-.666-2.8154-.5571-3.2461.2207-.8721.6807-1.4297.9556-1.7637.6333-.7715,1.0601-1.6318,1.5122-2.542.2432-.4902.4868-.9805.7568-1.4521,1.0186-1.7764,2.1328-4.1025,3.312-6.9131.1602-.3818.5986-.5625.9814-.4014.3818.1602.562.5996.4014.9814-1.2026,2.8672-2.3442,5.249-3.3931,7.0791-.2559.4453-.4854.9092-.7153,1.373-.4692.9453-.9546,1.9229-1.6582,2.7812-.2598.3145-.5605.6797-.6987,1.2256-.0488.1924-.2627,1.1973.3179,1.999.3315.458.7729.6543,1.2407.8623.5376.2373.9878.3057,1.9551.4375.5303.0723.8877.0957,1.1514.1133.4858.0322.8364.0557,1.2876.3525.751.4951,1.2593,1.3838,1.3271,2.3213.041.5635-.0776,1.1348-.3433,1.6514-.1328.2588-.3955.4072-.6675.4072Z" fill="#1e1e1e" stroke-width="0"/><path d="M97.2771,58.499c-.1919,0-.3838-.0732-.5303-.2197-.2852-.2852-.6133-.5234-.9761-.708-.7783-.3945-1.5103-.4199-1.873-.4141-.4873.0205-.9614.1348-1.4092.3408-.376.1748-.8213.0078-.9946-.3682-.1729-.377-.0078-.8223.3687-.9951.626-.2871,1.2896-.4473,1.9727-.4756.5107-.0225,1.5312.0254,2.6152.5752.5039.2568.9604.5879,1.3569.9844.293.293.293.7676,0,1.0605-.1465.1465-.3384.2197-.5303.2197Z" fill="#1e1e1e" stroke-width="0"/><path d="M98.5603,60.5684c-.2505,0-.4956-.126-.6377-.3545-.2183-.3516-.1104-.8145.2417-1.0322.2734-.1699.7671-.5508,1.0034-1.1953.2129-.582.1099-1.1016.0264-1.5195-.208-1.0479-.7954-1.8125-1.252-2.2686-.293-.293-.293-.7676,0-1.0605s.7676-.293,1.0605,0c.6035.6035,1.3818,1.6201,1.6631,3.0361.1001.5059.2686,1.3506-.0898,2.3281-.3906,1.0674-1.1831,1.6816-1.6206,1.9531-.123.0771-.2598.1133-.395.1133Z" fill="#1e1e1e" stroke-width="0"/><circle cx="200.3458" cy="130.0851" r="17.9477" fill="#ced3f4" stroke-width="0"/><path d="M200.346,137.709c-2.3042,0-3.9961-.7471-5.0068-1.1924-1.7129-.7559-2.8125-1.6357-4.4771-2.9668-1.1909-.9521-2.2734-1.9248-3.2803-2.9434-.1484-.1504-.2271-.3555-.2158-.5664s.1108-.4072.2739-.541c1.2046-.9854,2.374-2.0146,3.4761-3.0576l.4795-.457c1.0771-1.0312,2.0073-1.9219,3.5205-2.7197,1.1943-.6289,2.0903-.8701,2.9873-.7891.9277.0781,1.6841.4434,2.2427.8301.5581-.3867,1.3135-.752,2.2412-.8301.8989-.0732,1.7935.1602,2.9888.7891,1.5122.7969,2.4419,1.6875,3.5186,2.7178l.4814.459h0c1.0996,1.041,2.2686,2.0693,3.4756,3.0576.1631.1338.2627.3301.2739.541.0112.21-.0674.416-.2158.5664-1.0039,1.0156-2.0859,1.9883-3.2168,2.8926-1.7295,1.3828-2.8281,2.2617-4.54,3.0176-1.0107.4453-2.7026,1.1924-5.0068,1.1924ZM189.2317,130.1279c.7964.7686,1.6362,1.5059,2.5034,2.1992,1.6924,1.3535,2.6753,2.1396,4.2095,2.8164.9609.4248,2.4131,1.0654,4.4014,1.0654s3.4404-.6406,4.4014-1.0654c1.5332-.6758,2.5151-1.4619,4.1416-2.7627.9238-.7383,1.7739-1.4844,2.5708-2.2529-1.0078-.8457-1.9854-1.7168-2.915-2.5967l-.4873-.4648c-1.0767-1.0312-1.8545-1.7754-3.1807-2.4746-1.1597-.6104-1.7456-.6562-2.1636-.6221-.8311.0703-1.4761.501-1.8706.8496-.2832.252-.709.251-.9932.001-.395-.3496-1.0405-.7803-1.8721-.8506-.415-.0312-1.0034.0117-2.1621.6221-1.3271.6992-2.1055,1.4443-3.1821,2.4756l-.4858.4639c-.9316.8809-1.9097,1.752-2.9155,2.5967Z" fill="#1e1e1e" stroke-width="0"/><path d="M200.346,133.5605c-4.3296,0-7.7271-2.7803-7.8696-2.8984-.1699-.1406-.269-.3496-.271-.5703-.002-.2197.0928-.4307.2598-.5742.1377-.1191,3.4194-2.9082,7.8809-2.9082s7.7427,2.7891,7.8804,2.9082c.167.1436.2617.3545.2598.5742-.002.2207-.1011.4297-.271.5703-.1426.1182-3.54,2.8984-7.8691,2.8984ZM194.2371,130.0771c1.165.752,3.4736,1.9834,6.1089,1.9834,2.6465,0,4.9492-1.2305,6.1099-1.9824-1.1392-.751-3.4053-1.9688-6.1099-1.9688s-4.9688,1.2168-6.1089,1.9678Z" fill="#1e1e1e" stroke-width="0"/><path d="M181.2259,7.7832c-.0728,0-.1465-.0107-.2192-.0322-1.4048-.4287-2.8501-.8174-4.2969-1.1562-.4033-.0947-.6533-.498-.5586-.9014s.4956-.6562.9014-.5596c1.478.3467,2.9556.7441,4.3916,1.1816.396.1211.6196.54.4985.9365-.0986.3232-.3955.5312-.7168.5312Z" fill="#1e1e1e" stroke-width="0"/><path d="M116.9749,20.6934c-.2153,0-.4292-.0928-.5776-.2705-.2646-.3193-.2207-.792.0981-1.0566,2.0596-1.709,4.2407-3.3174,6.4829-4.7793.3467-.2275.811-.1289,1.0381.2188.2261.3467.1284.8115-.2188,1.0371-2.1943,1.4307-4.3286,3.0049-6.3442,4.6777-.1401.1162-.3096.1729-.4785.1729ZM130.3035,12.0059c-.2754,0-.5405-.1523-.6719-.415-.1846-.3711-.0342-.8213.3364-1.0059,2.394-1.1943,4.8857-2.2607,7.4058-3.1689.3877-.1416.8188.0605.96.4502.1406.3896-.0615.8203-.4512.96-2.4653.8896-4.9028,1.9326-7.2446,3.1006-.1079.0537-.2217.0791-.3345.0791ZM145.2674,6.6055c-.3408,0-.6489-.2334-.73-.5791-.0942-.4033.1562-.8066.5596-.9014,2.6089-.6094,5.2793-1.0732,7.9375-1.3779.417-.0391.7837.249.8306.6602.0474.4111-.248.7832-.6597.8301-2.6011.2979-5.2139.752-7.7666,1.3486-.0576.0137-.1152.0195-.1714.0195ZM169.033,5.2461c-.0288,0-.0576-.002-.0869-.0049-2.5977-.2998-5.2451-.4512-7.8687-.4512-.4141,0-.75-.3359-.75-.75s.3359-.75.75-.75c2.6807,0,5.3857.1553,8.0405.4609.4116.0479.7065.4199.6592.8311-.0439.3818-.3682.6641-.7441.6641Z" fill="#1e1e1e" stroke-width="0"/><path d="M108.1345,29.4756c-.1704,0-.3413-.0576-.4819-.1758-.3174-.2666-.3584-.7393-.0918-1.0566.9688-1.1523,1.9902-2.291,3.0361-3.3838.2866-.3008.7603-.3096,1.0605-.0234.2993.2861.3096.7617.0234,1.0605-1.0239,1.0693-2.0239,2.1836-2.9717,3.3115-.1484.1768-.3608.2676-.5747.2676Z" fill="#1e1e1e" stroke-width="0"/><path d="M219.3372,111.126c-.1387,0-.2783-.0381-.4038-.1182-.3486-.2236-.4507-.6875-.2275-1.0361.7939-1.2402,1.5596-2.5264,2.2749-3.8223.2007-.3643.6558-.4951,1.0195-.2939.3623.2002.4941.6562.2939,1.0186-.7314,1.3242-1.5137,2.6387-2.3247,3.9062-.1431.2236-.3853.3457-.6323.3457Z" fill="#1e1e1e" stroke-width="0"/><path d="M225.4754,99.0879c-.0913,0-.1836-.0166-.2734-.0518-.3857-.1514-.5762-.5859-.4248-.9717,1.0835-2.7656,1.9937-5.6299,2.7046-8.5137.0991-.4014.5078-.6445.9077-.5488.4019.0996.6475.5059.5483.9082-.7266,2.9473-1.6562,5.875-2.7642,8.7012-.1157.2959-.3989.4766-.6982.4766ZM229.7913,81.5879c-.0278,0-.0557-.001-.0835-.0049-.4116-.0449-.7085-.416-.6631-.8271.2769-2.501.417-5.0508.4165-7.5781,0-.4512-.0044-.9014-.0132-1.3496-.0078-.4141.3213-.7568.7354-.7646.4253-.0449.7563.3213.7646.7354.0088.458.0132.918.0132,1.3789.0005,2.583-.1426,5.1875-.4253,7.7422-.0425.3838-.3677.668-.7446.668ZM229.4343,63.5635c-.3647,0-.6846-.2666-.7407-.6377-.4438-2.9375-1.0874-5.873-1.9126-8.7275-.1152-.3975.1138-.8135.5117-.9287.3979-.1123.8135.1133.9287.5127.8442,2.916,1.502,5.917,1.9556,8.9189.0615.4102-.2202.792-.6299.8535-.0376.0059-.0757.0088-.1128.0088Z" fill="#1e1e1e" stroke-width="0"/><path d="M224.4182,46.2266c-.2891,0-.564-.168-.6875-.4492-.5898-1.3447-1.2349-2.6963-1.918-4.0146-.1904-.3672-.0469-.8203.3213-1.0107.3657-.1885.8203-.0469,1.0107.3213.6978,1.3467,1.3569,2.7275,1.96,4.1025.166.3789-.0063.8213-.3857.9873-.0981.043-.2002.0635-.3008.0635Z" fill="#1e1e1e" stroke-width="0"/><path d="M92.8587,85.2168c-.3608,0-.6787-.2607-.7393-.6289-.2441-1.4893-.4429-3.0068-.5908-4.5107-.04-.4121.2612-.7793.6733-.8193.4106-.0459.7793.2607.8198.6729.144,1.4717.3389,2.957.5781,4.415.0669.4082-.21.7939-.6187.8613-.041.0068-.082.0098-.1226.0098Z" fill="#1e1e1e" stroke-width="0"/><path d="M161.0022,143.0635h-.0005c-3.2783-.0029-6.5728-.2354-9.792-.6904-.4102-.0576-.6958-.4365-.6377-.8467.0586-.4102.4424-.7002.8477-.6377,3.1504.4443,6.3745.6719,9.583.6748.4146,0,.75.3369.7495.751s-.3359.749-.75.749ZM141.8201,140.3477c-.0693,0-.1392-.0098-.209-.0293-3.1333-.9072-6.2319-2.0469-9.21-3.3887-.3774-.1699-.5459-.6143-.376-.9912.1704-.3779.6133-.5459.9922-.376,2.9136,1.3125,5.9453,2.4277,9.0107,3.3145.398.1152.627.5312.5117.9297-.0947.3281-.3945.541-.7197.541ZM124.159,132.3936c-.1372,0-.2759-.0371-.4004-.1162-2.7524-1.7402-5.4126-3.6973-7.9067-5.8164-.3159-.2676-.3545-.7412-.0864-1.0566.269-.3164.7422-.3545,1.0571-.0859,2.4414,2.0732,5.0444,3.9883,7.7378,5.6914.3501.2217.4546.6846.2329,1.0342-.1426.2266-.3857.3496-.6343.3496ZM109.3938,119.8486c-.207,0-.4126-.085-.561-.252-2.1714-2.4414-4.188-5.0576-5.9941-7.7754-.2295-.3447-.1357-.8105.2095-1.04.3433-.2275.8101-.1367,1.0396.21,1.7676,2.6592,3.7412,5.2197,5.8662,7.6094.2754.3096.2476.7832-.062,1.0586-.1431.127-.3208.1895-.498.1895ZM98.6682,103.708c-.2798,0-.5483-.1572-.6772-.4268-1.4097-2.9482-2.6201-6.0225-3.5981-9.1367-.1245-.3945.0952-.8164.4907-.9404.396-.125.8159.0957.9399.4912.957,3.0459,2.1416,6.0537,3.521,8.9395.1787.373.0205.8213-.3535,1-.104.0498-.2144.0732-.3228.0732Z" fill="#1e1e1e" stroke-width="0"/><path d="M170.7385,142.3916c-.3677,0-.689-.2705-.7417-.6455-.0576-.4102.228-.7891.6382-.8477,1.4668-.2061,2.9424-.4619,4.3853-.7607.4004-.0869.8022.1758.8867.582.084.4062-.1768.8027-.582.8867-1.4746.3057-2.9824.5674-4.481.7783-.0356.0049-.0708.0068-.1055.0068Z" fill="#1e1e1e" stroke-width="0"/><path d="M195.2385,210.8291c-.3315,0-.6343-.2207-.7241-.5566-2.1279-7.96-1.3486-16.3184-.5952-24.4023.2036-2.1855.4146-4.4453.562-6.6514.8848-13.1982-1.4932-22.5371-7.269-28.5498-.2866-.2988-.2773-.7734.0215-1.0605.2979-.2871.7725-.2783,1.0605.0215,6.0845,6.334,8.5981,16.0459,7.6841,29.6885-.1494,2.2256-.3608,4.4961-.5654,6.6904-.7417,7.9531-1.5078,16.1758.5508,23.877.1069.3994-.1309.8105-.5308.918-.0649.0176-.1304.0254-.1943.0254Z" fill="#1e1e1e" stroke-width="0"/></svg>