<?xml version="1.0" encoding="UTF-8"?><svg id="c" xmlns="http://www.w3.org/2000/svg" width="300" height="225" viewBox="0 0 300 225"><path d="M181.6971,85.0696c-3.1287-21.7786,1.9799-30.4939-5.0449-42.2183-4.9096-8.1941-14.4962-15.7723-25.8662-16.4446-11.5082-.6805-23.471,5.7949-29.3627,15.3383-8.5797,13.8976.9239,25.8649-5.6645,55.76-1.3027,5.9112-2.8231,10.6563-3.8944,13.7187,7.2718-3.8054,16.4244-7.6107,23.6962-11.4161l.6517-7.6209c-2.8958-3.09-4.531-6.7539-5.8394-10.2073-1.362-3.5948-2.0137-6.8387-2.3354-9.3658-8.1061,1.3953-11.5477-15.3737-1.0651-10.6177-.0322-1.5103-.0364-3.0764-.006-4.6947.0312-1.6589.0965-3.2618.189-4.8049.5178.2132,9.9154,3.9031,17.3698-1.783,1.3473-1.0277,2.5921-2.3369,3.6464-3.7991,1.2569,1.5923,3.0663,2.3292,4.569,2.908,8.4242,3.2447,16.0673-1.9354,18.2549,1.0846.2251.3107.3753,1.9618.47,5.259.0658,2.2884.1328,4.1423.1776,5.3186l.0035-.0631c10.0028-3.6784,7.3954,11.7646-.6249,11.2447l.0017-.0298c-.7819,5.9414-2.4697,14.1111-7.5149,19.5504l.569,7.6209c7.5438,4.5577,17.9088,9.1153,25.4526,13.673-2.5543-6.1475-6.0437-15.956-7.833-28.411Z" fill="#1e1e1e" stroke-width="0"/><path d="M189.5303,114.2305c-.1338,0-.2681-.0352-.3877-.1084-3.7485-2.2646-8.2881-4.5742-12.6777-6.8086-4.4146-2.2471-8.9795-4.5713-12.7749-6.8643-.208-.125-.3423-.3438-.3604-.5859l-.5693-7.6211c-.0156-.208.0562-.4131.1982-.5654,3.7666-4.0605,6.1611-10.3213,7.3213-19.1377.0522-.3994.416-.6885.8115-.6494.0605.0059.1187.0186.1738.0371,2.2119.0566,4.2002-1.3047,5.3481-3.6875,1.0513-2.1807,1.0371-4.6191-.0342-5.7998-1.1064-1.2197-3.042-.8887-4.5264-.3672-.1191.083-.2686.1484-.4141.1309-.4009-.0029-.73-.29-.7451-.6904-.0449-1.1768-.1118-3.0342-.1777-5.3252-.1128-3.916-.2915-4.7305-.3633-4.8994-.7021-.959-2.7246-.6309-5.2852-.2178-3.3203.5381-7.8677,1.2734-12.5962-.5479-1.1831-.4561-2.8848-1.1123-4.2471-2.4346-.981,1.2383-2.0898,2.3418-3.2437,3.2217-6.5239,4.9785-14.397,3.1113-17.1318,2.2295-.0645,1.2588-.1089,2.5244-.1323,3.7764-.0293,1.5527-.0273,3.1221.0059,4.665.0054.2568-.1221.5-.3369.6416-.2153.1416-.4883.1631-.7231.0566-2.2021-.998-3.8901-1.042-4.752-.1162-1.0679,1.1445-.9517,3.7139.27,5.9756.5015.9277,2.3926,3.9131,5.73,3.3359.2036-.0332.4092.0146.5732.1367.1646.1211.2725.3047.2983.5078.3999,3.1426,1.1714,6.2363,2.2925,9.1953,1.2861,3.3945,2.8647,6.9502,5.6855,9.96.1455.1553.2183.3643.1997.5762l-.6519,7.6211c-.0215.2559-.1724.4824-.3994.6006-3.6523,1.9121-7.8359,3.8506-11.8818,5.7256-4.0288,1.8662-8.1948,3.7969-11.8145,5.6904-.2715.1426-.605.1045-.8379-.0967s-.3193-.5244-.2178-.8154c1.5527-4.4375,2.8545-9.0244,3.8701-13.6318,3.1714-14.3906,2.585-24.6504,2.1138-32.8945-.5024-8.792-.8999-15.7363,3.645-23.0977,6.1255-9.9229,18.478-16.3818,30.0454-15.6943,12.5454.7432,22.0972,9.5186,26.4653,16.8086,4.2607,7.1123,4.1733,13.083,4.0522,21.3467-.0801,5.4805-.1802,12.3008,1.0913,21.1504h0c1.3843,9.6348,4.0029,19.1318,7.7832,28.2295.1245.2998.0425.6455-.2031.8564-.1396.1201-.314.1816-.4893.1816ZM164.7969,99.3643c3.6831,2.2012,8.0859,4.4424,12.3481,6.6123,3.6953,1.8809,7.4961,3.8145,10.8623,5.7402-3.3838-8.5859-5.7544-17.5049-7.0522-26.541h0c-1.2886-8.9668-1.1875-15.8525-1.1064-21.3848.1172-8.0166.2021-13.8086-3.8398-20.5537-4.1797-6.9766-13.3052-15.374-25.2671-16.082-11.0337-.6768-22.832,5.5098-28.6802,14.9834-4.2964,6.96-3.9307,13.3633-3.4238,22.2246.4766,8.3359,1.0693,18.7109-2.1465,33.3027-.8945,4.0586-2.0083,8.1006-3.3179,12.042,3.2319-1.6328,6.7769-3.2754,10.2222-4.8721,3.8955-1.8047,7.9189-3.6689,11.4531-5.5029l.5884-6.8809c-2.856-3.1436-4.459-6.7588-5.7651-10.207-1.0762-2.8389-1.8418-5.7979-2.2788-8.8066-2.6123.1133-5.021-1.3906-6.5322-4.1875-1.3198-2.4424-1.7598-5.876-.0474-7.7119.8481-.9062,2.4517-1.6914,5.3901-.6621-.0137-1.1934-.0093-2.3965.0127-3.5889.0303-1.6055.0942-3.2324.1904-4.8369.0142-.2422.145-.4619.3501-.5908s.4609-.1504.6846-.0576c.3823.1582,9.4385,3.7998,16.6294-1.6855,1.2617-.9629,2.4692-2.2227,3.4922-3.6416.1377-.1904.3569-.3066.5918-.3115.2637-.002.46.1006.6055.2852,1.0845,1.374,2.6294,2.0488,4.25,2.6729,4.3511,1.6777,8.4912,1.0068,11.8179.4678,3.0708-.4971,5.4951-.8887,6.7749.8779.2559.3525.4785,1.0234.6118,5.6768.0488,1.6914.0981,3.1445.1387,4.2627,2.8872-.7949,4.4858.0869,5.3364,1.0244,1.5122,1.666,1.6221,4.6641.2744,7.46-1.3394,2.7773-3.6567,4.4307-6.291,4.5322-1.2134,8.6074-3.6357,14.8418-7.3931,19.0293l.5166,6.9111Z" fill="#1e1e1e" stroke-width="0"/><path d="M213.4266,163.5979c0-36.2691-28.7092-65.671-64.1238-65.671s-64.1238,29.4019-64.1238,65.671c0,19.2693,8.1036,36.6002,21.0112,48.6134h86.2253c12.9075-12.0132,21.0112-29.3441,21.0112-48.6134Z" fill="#b7fdc0" stroke-width="0"/><path d="M106.1901,212.2113c-11.0887-3.7306-16.7728-9.4482-19.639-13.0992-17.6002-22.4194-4.2958-62.8973,16.0421-82.0299,8.3423-7.8479,18.1171-12.3387,19.3418-12.8909,11.2244-5.0611,21.3282-6.098,27.3678-6.2645" fill="#b7fdc0" stroke-width="0"/><path d="M193.8099,212.2113c11.0887-3.7306,16.7728-9.4482,19.639-13.0992,17.6002-22.4194,4.2958-62.8973-16.0421-82.0299-8.3423-7.8479-18.1171-12.3387-19.3418-12.8909-11.2244-5.0611-21.3282-6.098-27.3678-6.2645" fill="#b7fdc0" stroke-width="0"/><path d="M134.4536,60.3008c-.3779,0-.7026-.2842-.7446-.6689-.0449-.4111.2524-.7812.6641-.8262l5.9873-.6533c.4155-.0508.7822.252.8271.6641.0449.4111-.2524.7812-.6641.8262l-5.9873.6533c-.0278.0039-.0552.0049-.0825.0049Z" fill="#1e1e1e" stroke-width="0"/><path d="M165.2383,60.3008c-.0273,0-.0547-.001-.0825-.0049l-5.9873-.6533c-.4116-.0449-.709-.415-.6641-.8262.0449-.4121.4121-.7266.8271-.6641l5.9873.6533c.4116.0449.709.415.6641.8262-.042.3848-.3672.6689-.7446.6689Z" fill="#1e1e1e" stroke-width="0"/><path d="M137.644,68.9287c-.6694,0-1.2144-.5449-1.2144-1.2148v-3.5186c0-.6699.5449-1.2148,1.2144-1.2148.6699,0,1.2148.5449,1.2148,1.2148v3.5186c0,.6699-.5449,1.2148-1.2148,1.2148Z" fill="#1e1e1e" stroke-width="0"/><path d="M161.1431,68.9287c-.6699,0-1.2148-.5449-1.2148-1.2148v-3.5186c0-.6699.5449-1.2148,1.2148-1.2148s1.2148.5449,1.2148,1.2148v3.5186c0,.6699-.5449,1.2148-1.2148,1.2148Z" fill="#1e1e1e" stroke-width="0"/><path d="M149.9248,79.0967c-.2778,0-.5444-.1543-.6743-.4209-.1816-.3721-.0273-.8213.3452-1.0029l1.7476-.8525c.2681-.1318.4497-.376.4971-.6709s-.0483-.584-.2617-.792l-1.9009-1.8535c-.145-.1416-.2266-.335-.2266-.5371v-9.373c0-.4141.3359-.75.75-.75s.75.3359.75.75v9.0566l1.6743,1.6328c.5596.5459.8198,1.332.6958,2.1035-.124.7725-.6177,1.4385-1.3203,1.7812l-1.748.8525c-.1055.0518-.2178.0762-.3281.0762Z" fill="#1e1e1e" stroke-width="0"/><path d="M150.9702,87.4971c-3.7124,0-6.6089-1.3105-8.3892-2.4131-.3521-.2188-.4604-.6807-.2427-1.0322.2188-.3535.6816-.4609,1.0327-.2432,1.6143,1,4.2397,2.1885,7.5996,2.1885h.0566c1.998-.0068,3.9507-.4316,5.8032-1.2617.377-.1719.8213-.001.9912.3779.1694.3779,0,.8213-.3779.9912-2.0449.916-4.2021,1.3848-6.4106,1.3926h-.063Z" fill="#1e1e1e" stroke-width="0"/><path d="M163.5085,92.1868l.5756,11.9563s-3.981,5.045-14.0276,5.045-14.2065-3.9829-14.2065-3.9829l.3622-13.0184" fill="#fff" stroke-width="0"/><path d="M150.0566,109.9385c-10.2305,0-14.5464-4.0205-14.7251-4.1914-.1533-.1465-.2368-.3516-.231-.5625l.3623-13.0186c.0117-.4141.3535-.7266.7705-.7295.4141.0117.7402.3564.7285.7705l-.3521,12.6562c1.002.7793,5.1714,3.5752,13.4468,3.5752,8.3931,0,12.4077-3.668,13.2637-4.5654l-.561-11.6504c-.02-.4141.2993-.7656.7129-.7852.4092-.0469.7656.2998.7852.7129l.5757,11.957c.0088.1807-.0483.3584-.1602.501-.1719.2178-4.3247,5.3301-14.6162,5.3301Z" fill="#1e1e1e" stroke-width="0"/><path d="M162.5071,93.2241c-5.6842,7.0615-14.0173,10.1556-20.8129,7.8651-3.7943-1.2789-6.2341-3.9414-7.5628-5.7477l.513-5.0749s1.8904,2.9143,5.3207,4.9657c3.4304,2.0515,6.7154,2.7784,9.3441,2.6946s5.0917-.0082,8.9266-1.7529c1.8877-.8153,4.2715-2.9499,4.2715-2.9499Z" fill="#1e1e1e" stroke-width="0"/><path d="M146.3076,102.5781c-1.6626,0-3.2954-.2539-4.853-.7783-3.0469-1.0264-5.7881-3.1064-7.9272-6.0137-.1104-.1494-.1606-.335-.1421-.5195l.5127-5.0752c.0317-.3164.2603-.5781.5688-.6533.3115-.0762.6323.0527.8062.3193.0181.0283,1.8486,2.8008,5.0767,4.7314,2.9419,1.7598,6.1108,2.6992,8.9355,2.5879l.6338-.0176c2.3745-.0645,4.6172-.126,8.0063-1.668,1.7686-.7637,4.0581-2.8057,4.0811-2.8262.291-.2607.7334-.2549,1.0166.0146.2832.2686.313.71.0684,1.0146-4.5547,5.6572-10.856,8.8838-16.7837,8.8838ZM134.9067,95.127c1.3862,1.8213,3.6899,4.127,7.0269,5.251,4.665,1.5723,10.104.4512,14.8154-2.793-2.7246.9629-4.7852,1.0186-6.7891,1.0732l-.627.0186c-2.1948.0625-5.6709-.3594-9.7529-2.8008-1.9668-1.1758-3.4414-2.6133-4.3774-3.6787l-.2959,2.9297Z" fill="#1e1e1e" stroke-width="0"/><path d="M149.9966,98.6768c-11.9121,0-19.7095-8.7285-22.5806-25.2529-.0356,0-.0718.001-.1074.001-2.0449,0-4.2637-1.1826-5.8555-3.1768-2.4604-3.083-2.5781-7.0967-.2612-8.9453,1.3281-1.0596,3.1943-1.2207,5.0625-.4883l.2725-9.9277c.0107-.415.3862-.7451.77-.7295.4141.0117.7407.3564.729.7705l-.3042,11.0889c-.0068.2646-.1538.5068-.3857.6348-.2319.1299-.5146.126-.7427-.0078-1.6646-.9766-3.3755-1.0391-4.4658-.1689-1.6704,1.334-1.4468,4.4004.4985,6.8379,1.417,1.7754,3.4658,2.7988,5.1367,2.584.0552-.0225.1138-.0381.1753-.0459.3994-.0596.77.2031.8359.6035,2.6699,16.4043,9.8105,24.7227,21.2227,24.7227,11.3813,0,18.2056-8.2881,20.2827-24.6348.0518-.3994.4189-.6748.8101-.6523.0586.0049.1147.0166.168.0342h.0322c1.5913,0,3.4082-1.0049,4.6899-2.6113,1.9453-2.4375,2.1689-5.5039.4985-6.8379-1.0308-.8213-2.7026-1.3623-4.3433-.4678-.1367.124-.3193.1719-.5078.1963-.4048-.0098-.731-.3086-.7339-.7129-.0435-6.0176-.6348-10.4385-.6406-10.4824-.0557-.4102.2319-.7881.6421-.8438.4043-.0615.7881.2305.8442.6426.0059.041.5322,3.9707.6382,9.4697,1.9517-.623,3.8223.0566,5.0366,1.0264,2.3169,1.8486,2.1992,5.8623-.2612,8.9453-1.4834,1.8584-3.5269,3.0244-5.4746,3.1621-2.2705,16.5342-9.7578,25.2666-21.6812,25.2666Z" fill="#1e1e1e" stroke-width="0"/><path d="M128.626,49.2217h-.0103c-.4141-.0059-.7451-.3457-.7397-.7598.0391-2.8799.7402-5.748,2.0273-8.2939.1875-.3701.6396-.5195,1.0078-.3311.3696.1865.5181.6377.3311,1.0068-1.1851,2.3447-1.8306,4.9854-1.8662,7.6377-.0059.4111-.3403.7402-.75.7402Z" fill="#fff" stroke-width="0"/><path d="M109.4614,148.7188c-.2139,0-.4258-.0908-.5742-.2666-.2666-.3174-.2261-.79.0903-1.0566l6.9717-5.874c.3169-.2686.7905-.2266,1.0571.0898.2666.3174.2261.79-.0903,1.0566l-6.9717,5.874c-.1406.1191-.3125.1768-.4829.1768Z" fill="#1e1e1e" stroke-width="0"/><path d="M181.7671,161.7891c-.168,0-.3374-.0566-.4771-.1719-.3193-.2637-.3647-.7363-.1011-1.0557,5.0952-6.1729,7.1836-14.54,5.5859-22.3828-.0825-.4053.1792-.8018.585-.8848.4043-.0771.8022.1797.8848.5859,1.687,8.2822-.5181,17.1182-5.8984,23.6367-.1484.1797-.3628.2725-.5791.2725Z" fill="#1e1e1e" stroke-width="0"/><path d="M115.29,162.9678c-.207,0-.4136-.085-.5615-.252-5.375-6.0596-7.8267-14.4531-6.5581-22.4531.0649-.4082.4502-.6836.8584-.624.4087.0654.688.4492.623.8584-1.1992,7.5615,1.1182,15.4951,6.1987,21.2227.2749.3105.2466.7842-.0635,1.0596-.1426.126-.3203.1885-.4971.1885Z" fill="#1e1e1e" stroke-width="0"/><path d="M192.4266,218.5309h-86.2345c-2.0624.0038-3.8157-1.5053-4.1189-3.5453l-8.2003-56.6402c-.3116-2.2639,1.271-4.3517,3.5348-4.6633.1904-.0262.3825-.0391.5747-.0386h102.6539c2.2852-.0058,4.1424,1.8421,4.1482,4.1273.0005.1922-.0124.3843-.0386.5747l-8.2003,56.612c-.2906,2.0512-2.0473,3.5753-4.1189,3.5735Z" fill="#fff" stroke-width="0"/><path d="M106.1851,219.2812c-2.4126,0-4.499-1.7979-4.8535-4.1855l-8.2007-56.6426c-.1792-1.2988.1572-2.584.9458-3.625.7886-1.04,1.9355-1.7119,3.229-1.8896.2275-.0303.4585-.0518.6807-.0449h102.6626c2.6875,0,4.8789,2.1846,4.8857,4.875.0005.2275-.0151.4551-.0464.6797l-8.2007,56.6162c-.3403,2.4033-2.4292,4.2168-4.8589,4.2168h-86.2437ZM97.9663,154.3936c-.1562,0-.3081.0117-.4595.0312-.8931.123-1.688.5879-2.2349,1.3096-.5464.7207-.7793,1.6123-.6558,2.5088l8.1992,56.6348c.2461,1.6543,1.6948,2.9033,3.3706,2.9033h86.2427c1.687,0,3.1377-1.2588,3.374-2.9297l8.2007-56.6133c.021-.1514.0317-.3086.0312-.4658-.0024-.9053-.3569-1.7549-.9985-2.3926-.6392-.6367-1.4873-.9863-2.3892-.9863h-102.6807Z" fill="#1e1e1e" stroke-width="0"/><path d="M148.4165,13.8408c-.4141,0-.75-.3359-.75-.75v-6.6221c0-.4141.3359-.75.75-.75s.75.3359.75.75v6.6221c0,.4141-.3359.75-.75.75Z" fill="#1e1e1e" stroke-width="0"/><path d="M169.2344,17.626c-.0952,0-.1924-.0186-.2866-.0566-.3823-.1592-.5645-.5977-.4058-.9805l2.5337-6.1182c.1587-.3828.5952-.5615.98-.4062.3823.1592.5645.5977.4058.9805l-2.5337,6.1182c-.1196.2891-.3989.4629-.6934.4629Z" fill="#1e1e1e" stroke-width="0"/><path d="M187.021,29.0889c-.1919,0-.3838-.0732-.5303-.2197-.293-.293-.293-.7676,0-1.0605l4.6812-4.6826c.293-.293.7676-.293,1.0605,0s.293.7676,0,1.0605l-4.6812,4.6826c-.1465.1465-.3384.2197-.5303.2197Z" fill="#1e1e1e" stroke-width="0"/><path d="M199.0684,46.4844c-.2944,0-.5737-.1738-.6934-.4629-.1587-.3828.0229-.8213.4058-.9795l6.1167-2.5352c.3818-.1602.8213.0225.98.4053s-.0229.8213-.4058.9795l-6.1167,2.5352c-.0938.0391-.1909.0576-.2866.0576Z" fill="#1e1e1e" stroke-width="0"/><path d="M203.542,67.165c-.4141,0-.75-.3359-.75-.75s.3354-.75.75-.75l6.6216-.002c.4141,0,.75.3359.75.75s-.3354.75-.75.75l-6.6216.002Z" fill="#1e1e1e" stroke-width="0"/><path d="M205.8809,90.5166c-.0952,0-.1924-.0186-.2861-.0566l-6.1182-2.5312c-.3828-.1582-.5649-.5977-.4062-.9805.1587-.3818.5952-.5615.9795-.4062l6.1182,2.5312c.3828.1582.5649.5977.4062.9805-.1196.2891-.3989.4629-.6934.4629Z" fill="#1e1e1e" stroke-width="0"/><path d="M93.4482,92.2334c-.2944,0-.5732-.1738-.6934-.4619-.1587-.3828.0229-.8223.4053-.9805l6.1152-2.5391c.3843-.1602.8218.0225.9805.4043.1587.3828-.0229.8223-.4053.9805l-6.1152,2.5391c-.0942.0391-.1914.0576-.2871.0576Z" fill="#1e1e1e" stroke-width="0"/><path d="M88.4546,69.0215c-.4141,0-.7495-.335-.75-.749s.335-.751.7495-.751l6.6216-.0059h.0005c.4141,0,.7495.335.75.749s-.335.751-.7495.751l-6.6216.0059h-.0005Z" fill="#1e1e1e" stroke-width="0"/><path d="M98.8418,48.1934c-.0952,0-.1924-.0186-.2856-.0566l-6.1196-2.5273c-.3828-.1582-.5654-.5967-.4072-.9795.1587-.3818.5972-.5625.9795-.4072l6.1196,2.5273c.3828.1582.5654.5967.4072.9795-.1196.2891-.3989.4639-.6938.4639Z" fill="#1e1e1e" stroke-width="0"/><path d="M110.2891,30.3975c-.1919,0-.3833-.0732-.5298-.2188l-4.687-4.6768c-.293-.293-.2935-.7676-.001-1.0605.292-.2949.7666-.2939,1.0605-.002l4.687,4.6768c.293.293.2935.7676.001,1.0605-.1465.1475-.3384.2207-.5308.2207Z" fill="#1e1e1e" stroke-width="0"/><path d="M127.6743,18.335c-.2939,0-.5732-.1738-.6929-.4619l-2.541-6.1143c-.1592-.3828.022-.8213.4048-.9805s.8218.0225.98.4043l2.541,6.1143c.1592.3828-.022.8213-.4048.9805-.0938.0391-.1914.0576-.2871.0576Z" fill="#1e1e1e" stroke-width="0"/><path d="M162.1595,75.5152c-1.9808-.5298-3.5089-1.282-4.4052-1.7501-1.9206-1.003-2.536-1.6955-4.2421-2.3251-1.6563-.6113-3.214-.7476-4.2094-.775-.9954.0275-2.5531.1637-4.2094.775-1.7061.6296-2.3215,1.3221-4.2421,2.3251-.8963.4681-2.4245,1.2203-4.4052,1.7501-1.2527.335-4.1115.8-7.4563.8v6.6003c0,8.5953,9.0945,15.5631,20.313,15.5631h0c11.2186,0,20.313-6.9679,20.313-15.5631v-6.6003c-3.3447,0-6.2036-.465-7.4563-.8Z" fill="#cef3f7" stroke-width="0"/><path d="M149.3027,99.2285c-11.6143,0-21.063-7.3184-21.063-16.3135v-6.5996c0-.4141.3359-.75.75-.75,3.4541,0,6.2607-.5068,7.2622-.7744,1.8706-.501,3.3223-1.2051,4.2515-1.6914.7524-.3926,1.2852-.7285,1.8003-1.0527.7739-.4883,1.4419-.9092,2.5303-1.3105,1.3579-.501,2.8545-.7773,4.4482-.8213,1.6348.0439,3.1313.3203,4.4897.8223,1.0879.4004,1.7559.8213,2.5298,1.3096.5151.3242,1.0479.6602,1.7998,1.0527.9297.4863,2.3813,1.1904,4.252,1.6914h0c1.0015.2676,3.8081.7744,7.2622.7744.4141,0,.75.3359.75.75v6.5996c0,8.9951-9.4487,16.3135-21.063,16.3135ZM129.7397,77.0576v5.8574c0,8.168,8.7759,14.8135,19.563,14.8135s19.563-6.6455,19.563-14.8135v-5.8574c-3.2524-.0645-5.8345-.5322-6.8999-.8174h0c-2.0146-.5391-3.5669-1.292-4.5591-1.8115-.8057-.4199-1.3896-.7881-1.9048-1.1133-.7314-.4609-1.3091-.8242-2.249-1.1709-1.2051-.4453-2.541-.6904-3.9707-.7295-1.3887.0391-2.7246.2842-3.9292.7285-.9404.3477-1.5181.7109-2.2495,1.1719-.5151.3252-1.0991.6934-1.9053,1.1143-.9917.5186-2.5439,1.2715-4.5586,1.8105-1.0654.2852-3.6475.7529-6.8999.8174Z" fill="#1e1e1e" stroke-width="0"/><path d="M128.9896,82.0682c1.6699.5723,4.1153,1.3323,7.1259,1.9835,12.429,2.6887,22.3831.9059,25.6673.2213,1.9736-.4114,4.6791-1.0808,7.833-2.2048" fill="#cef3f7" stroke-width="0"/><path d="M149.5645,86.2324c-4.0298,0-8.6455-.374-13.6074-1.4473-2.437-.5273-4.8628-1.2031-7.2104-2.0068-.3916-.1348-.6006-.5615-.4663-.9531.1338-.3926.5605-.6006.9526-.4668,2.2925.7861,4.6611,1.4453,7.0415,1.96,11.2764,2.4395,20.7261,1.1846,25.3555.2207,2.6035-.5439,5.2061-1.2764,7.7339-2.1768.3921-.1416.8198.0645.9585.4541.1392.3906-.0645.8193-.4546.958-2.5923.9248-5.2612,1.6758-7.9316,2.2334-2.7065.5635-7.0215,1.2246-12.3716,1.2246Z" fill="#1e1e1e" stroke-width="0"/><path d="M149.7661,93.8428c-3.0166,0-6.0801-.4727-9.1162-1.4189-4.4453-1.3857-8.6104-3.8623-12.0444-7.1611-.2988-.2871-.3081-.7617-.0215-1.0605.2881-.2979.7622-.3066,1.0605-.0215,3.2676,3.1387,7.2275,5.4941,11.4517,6.8115,6.1045,1.9023,12.3169,1.791,17.9678-.3184,3.7202-1.3906,7.0439-3.5693,9.8794-6.4756.29-.2979.7651-.3008,1.061-.0137.2964.2891.3022.7646.0132,1.0605-2.9912,3.0664-6.4995,5.3652-10.4282,6.833-3.1465,1.1758-6.4556,1.7646-9.8232,1.7646Z" fill="#1e1e1e" stroke-width="0"/><circle cx="149.3091" cy="186.0871" r="16.878" fill="#ced3f4" stroke-width="0"/><path d="M156.4185,193.4639h-14.2188c-1.3965,0-2.5327-1.1357-2.5327-2.5322v-8.0107c0-1.3965,1.1362-2.5332,2.5327-2.5332h2.8525l.395-.8828c.2163-.4824.6978-.7949,1.2271-.7949h5.1855c.5293,0,1.0107.3125,1.2271.7949l.395.8828h2.9365c1.3965,0,2.5327,1.1367,2.5327,2.5332v8.0107c0,1.3965-1.1362,2.5322-2.5327,2.5322ZM142.1997,181.8877c-.5693,0-1.0327.4639-1.0327,1.0332v8.0107c0,.5693.4634,1.0322,1.0327,1.0322h14.2188c.5693,0,1.0327-.4629,1.0327-1.0322v-8.0107c0-.5693-.4634-1.0332-1.0327-1.0332h-3.0376c-.5293,0-1.0107-.3125-1.2271-.7949l-.395-.8828h-4.9834l-.395.8828c-.2163.4824-.6978.7949-1.2271.7949h-2.9536Z" fill="#1e1e1e" stroke-width="0"/><path d="M149.3628,191.127c-2.4551,0-4.4526-1.9971-4.4526-4.4521s1.9976-4.4531,4.4526-4.4531,4.4531,1.998,4.4531,4.4531-1.9976,4.4521-4.4531,4.4521ZM149.3628,183.7217c-1.6279,0-2.9526,1.3252-2.9526,2.9531s1.3247,2.9521,2.9526,2.9521,2.9531-1.3242,2.9531-2.9521-1.3247-2.9531-2.9531-2.9531Z" fill="#1e1e1e" stroke-width="0"/><path d="M199.2617,106.8311c-.0928,0-.1875-.0176-.2793-.0537-.3843-.1553-.5708-.5918-.416-.9766.5479-1.3623,1.0366-2.7686,1.4531-4.1777.1177-.3975.5352-.6221.9316-.5078.397.1182.624.5352.5068.9316-.4297,1.4561-.9341,2.9072-1.5,4.3145-.1177.292-.3989.4697-.6963.4697Z" fill="#1e1e1e" stroke-width="0"/><path d="M149.3091,139.1377c-1.4014,0-2.8218-.0508-4.2217-.1514-.4131-.0293-.7241-.3887-.6943-.8018s.3906-.7178.8018-.6943c2.7593.1973,5.5708.1963,8.2949-.0049.4023-.0264.7729.2793.8027.6934.0303.4131-.2803.7725-.6934.8027-1.4136.1035-2.8569.1562-4.29.1562ZM136.8276,137.7656c-.0542,0-.1089-.0059-.1641-.0186-2.7744-.6201-5.5161-1.4551-8.1499-2.4814-.3857-.1504-.5767-.5859-.4263-.9717.1504-.3848.5859-.5723.9712-.4268,2.563.999,5.2319,1.8125,7.9321,2.417.4043.0898.6587.4912.5684.8955-.0781.3486-.3877.5859-.7314.5859ZM161.8569,137.752c-.3433,0-.6528-.2363-.7314-.585-.0908-.4043.1631-.8057.5674-.8965,2.6992-.6074,5.3662-1.4238,7.9263-2.4248.3867-.1514.8213.0391.9717.4248.1509.3857-.0391.8213-.4248.9717-2.6309,1.0293-5.3711,1.8672-8.144,2.4912-.0552.0127-.1108.0186-.165.0186ZM121.21,131.6738c-.1279,0-.2573-.0322-.376-.1016-2.4614-1.4277-4.8218-3.0557-7.0151-4.8389-.3213-.2617-.3701-.7334-.1089-1.0557.2617-.3193.7334-.3701,1.0552-.1084,2.1323,1.7344,4.4277,3.3174,6.8218,4.7061.3579.207.48.666.2725,1.0244-.1392.2402-.3911.374-.6494.374ZM177.458,131.6445c-.2583,0-.5098-.1338-.6489-.373-.208-.3584-.0864-.8174.2715-1.0254,2.3945-1.3916,4.6865-2.9766,6.8125-4.71.3203-.2617.793-.2148,1.0552.1074.2622.3203.2139.793-.1069,1.0547-2.187,1.7832-4.5444,3.4131-7.0068,4.8447-.1187.0693-.248.1016-.3765.1016ZM108.2212,121.0908c-.207,0-.4131-.085-.5615-.252-1.8965-2.1377-3.6152-4.4346-5.1084-6.8291-.2192-.3506-.1123-.8135.2393-1.0332.3511-.2168.8135-.1123,1.0332.2402,1.4487,2.3223,3.1167,4.5518,4.958,6.626.2749.3096.2466.7842-.063,1.0586-.1431.127-.3208.1895-.4976.1895ZM190.4297,121.0547c-.1768,0-.354-.0625-.4966-.1885-.3101-.2744-.3389-.749-.0645-1.0586,1.8379-2.0752,3.5034-4.3057,4.9507-6.6309.2188-.3525.6807-.46,1.0332-.2402.3516.2188.459.6816.2402,1.0332-1.4917,2.3955-3.2075,4.6943-5.1011,6.832-.1484.168-.3545.2529-.562.2529Z" fill="#1e1e1e" stroke-width="0"/><path d="M99.3564,106.8311c-.2974,0-.5786-.1777-.6963-.4697-.5659-1.4072-1.0703-2.8584-1.5-4.3145-.1172-.3965.1099-.8135.5068-.9316.3975-.1143.8149.1104.9316.5078.4165,1.4092.9053,2.8154,1.4531,4.1777.1548.3848-.0317.8213-.416.9766-.0918.0361-.1865.0537-.2793.0537Z" fill="#1e1e1e" stroke-width="0"/></svg>