<?xml version="1.0" encoding="UTF-8"?><svg id="c" xmlns="http://www.w3.org/2000/svg" viewBox="0 0 300 225"><path d="M190.0877,117.9229c-3.8724-26.956,2.4505-37.7432-6.2443-52.2548-6.0768-10.1421-17.9423-19.5218-32.0154-20.354-14.2441-.8423-29.0508,7.1725-36.343,18.9846-10.6193,17.2015,1.1436,32.0138-7.0112,69.0158-1.6124,7.3164-3.4943,13.1896-4.8202,16.9801,9.0005-4.71,20.329-9.42,29.3295-14.13l.8066-9.4326c-3.5842-3.8246-5.6082-8.3594-7.2276-12.6339-1.6858-4.4494-2.4924-8.4644-2.8906-11.5923-10.0331,1.727-14.2929-19.0284-1.3183-13.1418-.0399-1.8693-.045-3.8077-.0074-5.8108.0386-2.0533.1195-4.0372.2339-5.9472.6409.2639,12.2726,4.831,21.4991-2.2069,1.6676-1.272,3.2083-2.8924,4.5133-4.7022,1.5558,1.9708,3.7952,2.883,5.6552,3.5993,10.4269,4.0161,19.887-2.3955,22.5946,1.3425.2786.3846.4645,2.4282.5818,6.5093.0814,2.8324.1643,5.127.2198,6.583l.0043-.0781c12.3808-4.5528,9.1535,14.5613-.7734,13.9179l.0021-.0369c-.9677,7.3539-3.0568,17.4657-9.3015,24.1981l.7043,9.4326c9.3372,5.6412,22.1663,11.2823,31.5035,16.9235-3.1615-7.609-7.4805-19.7491-9.6951-35.1652Z" fill="#1e1e1e" stroke-width="0"/><path d="M199.7827,153.9609c-.1558,0-.312-.041-.4512-.126-4.6416-2.8037-10.2617-5.6641-15.6963-8.4307-5.4629-2.7803-11.1118-5.6553-15.8071-8.4922-.2422-.1465-.3984-.4004-.4194-.6816l-.7041-9.4326c-.0181-.2422.0654-.4814.2305-.6592,4.6694-5.0342,7.6377-12.792,9.0757-23.7188.061-.4648.4805-.8027.9463-.7549.0728.0068.1421.0225.208.0449,2.8013.0986,5.2476-1.6221,6.6797-4.5938,1.311-2.7188,1.2896-5.7637-.0503-7.2402-1.3916-1.5332-3.814-1.1211-5.6685-.4668-.1401.0986-.3091.1494-.4883.1562-.4658-.0039-.8486-.335-.8667-.8008-.0557-1.458-.1387-3.7559-.2197-6.5908-.1401-4.875-.3643-5.8799-.4546-6.085-.8955-1.2275-3.4136-.8193-6.6006-.3027-4.1045.6641-9.7241,1.5742-15.5625-.6758-1.4712-.5664-3.5952-1.3828-5.2817-3.043-1.2217,1.5498-2.605,2.9287-4.043,4.0264-8.1001,6.1768-17.9111,3.8018-21.2227,2.7275-.082,1.583-.1382,3.1748-.1675,4.749-.0361,1.9092-.0337,3.8525.0068,5.7754.0063.2998-.1416.582-.3921.7471s-.5684.1914-.8413.0664c-2.7485-1.2461-4.8604-1.293-5.9448-.1318-1.3374,1.4336-1.1973,4.6406.3257,7.4609.625,1.1562,2.9893,4.8809,7.1504,4.1572.2358-.04.4751.0176.667.1582.1914.1416.3169.3555.3472.5918.4956,3.8926,1.4512,7.7256,2.8408,11.3936,1.5938,4.207,3.5508,8.6133,7.0483,12.3467.1689.1807.2539.4248.2324.6709l-.8066,9.4326c-.0254.2969-.2007.5605-.4648.6992-4.519,2.3652-9.6958,4.7637-14.7021,7.084-4.9878,2.3105-10.1455,4.7012-14.627,7.0459-.3164.165-.7036.1221-.9756-.1133-.271-.2334-.3716-.6104-.2534-.9482,1.9229-5.498,3.5347-11.1768,4.7915-16.8799,3.9272-17.8193,3.2012-30.5234,2.6177-40.7305-.6216-10.8721-1.1128-19.46,4.5034-28.5566,7.5728-12.2656,22.8389-20.2334,37.1377-19.3965,15.5059.916,27.313,11.7646,32.7124,20.7764,5.2656,8.7891,5.1577,16.1729,5.0083,26.3926-.0991,6.7852-.2227,15.2285,1.3516,26.1865h0c1.7134,11.9287,4.9556,23.6895,9.6367,34.9541.145.3486.0493.751-.2368.9971-.1621.1396-.3652.2109-.5693.2109ZM169.1162,135.6494c4.5649,2.7295,10.0254,5.5088,15.3105,8.1992,4.624,2.3535,9.3809,4.7744,13.5801,7.1826-4.2173-10.668-7.1694-21.7529-8.7832-32.9844h0c-1.5938-11.0938-1.4688-19.6143-1.3687-26.46.145-9.9316.25-17.1074-4.7607-25.4707-5.1807-8.6455-16.4912-19.0537-31.3179-19.9307-13.6802-.8105-28.2988,6.8281-35.5488,18.5723-5.3267,8.6289-4.8735,16.5605-4.2456,27.5391.5894,10.3145,1.3232,23.1514-2.6558,41.2051-1.1157,5.0635-2.5083,10.1084-4.147,15.0264,4.0317-2.04,8.4653-4.0947,12.772-6.0908,4.8315-2.2383,9.8218-4.5508,14.2026-6.8252l.7329-8.5703c-3.5376-3.8887-5.5234-8.3652-7.1411-12.6338-1.3364-3.5283-2.2852-7.2041-2.8242-10.9395-3.2388.1982-6.2148-1.6914-8.0845-5.1514-1.624-3.0059-2.168-7.2285-.0659-9.4805,1.0435-1.1191,3.0308-2.085,6.687-.7783-.0181-1.5107-.0132-3.0264.0146-4.5215.0376-1.9834.1167-3.9971.2354-5.9824.0171-.2822.1689-.5381.4077-.6875.2383-.1504.5347-.1758.7959-.0684.4746.1953,11.7275,4.7041,20.6382-2.0938,1.5645-1.1934,3.0635-2.7568,4.3345-4.5186.1602-.2217.4155-.3564.689-.3623.2822.002.5347.1172.7041.332,1.3525,1.7139,3.271,2.5508,5.2837,3.3252,5.3984,2.0771,10.5312,1.248,14.6558.5811,3.7817-.6123,6.7686-1.0947,8.332,1.0645.3115.4297.5825,1.2529.7476,6.9961.061,2.1289.123,3.9531.1738,5.3457,3.5879-1.0059,5.5688.0781,6.6167,1.2334,1.8564,2.0459,1.9893,5.7314.3306,9.1719-1.6562,3.4355-4.5259,5.4736-7.7852,5.5811-1.5,10.6787-4.501,18.4072-9.1587,23.5879l.6426,8.6064Z" fill="#1e1e1e" stroke-width="0"/><path d="M150,183.9161c23.7557,0,44.58-11.718,56.2097-29.3013-9.4453-7.8932-19.2622-12.4131-20.6176-13.0243-13.8928-6.2642-26.3986-7.5478-33.8739-7.7539l.0171.0452c-.5816-.0128-1.1584-.0452-1.743-.0452-11.9483,0-23.2709,2.7209-33.4343,7.564-.1472.0654-.2921.1233-.4396.1898-1.4072.6346-11.9346,5.4768-21.6976,13.9385,11.7408,17.0706,32.2406,28.3871,55.5793,28.3871Z" fill="#b7fdc0" stroke-width="0"/><path d="M131.6133,87.2109c-.4399,0-.8179-.3311-.8667-.7783-.0522-.4795.2939-.9102.7729-.9629l7.4106-.8086c.4775-.0391.9102.2939.9624.7734s-.2939.9102-.7729.9629l-7.4106.8086c-.0322.0029-.064.0049-.0957.0049Z" fill="#1e1e1e" stroke-width="0"/><path d="M169.7153,87.2109c-.0317,0-.0635-.002-.0957-.0049l-7.4102-.8086c-.4795-.0527-.8252-.4834-.7729-.9629s.4893-.8115.9624-.7734l7.4102.8086c.4795.0527.8252.4834.7729.9629-.0488.4473-.4268.7783-.8667.7783Z" fill="#1e1e1e" stroke-width="0"/><path d="M135.562,97.8887c-.7983,0-1.4482-.6494-1.4482-1.4482v-4.3545c0-.7988.6499-1.4482,1.4482-1.4482s1.4482.6494,1.4482,1.4482v4.3545c0,.7988-.6499,1.4482-1.4482,1.4482Z" fill="#1e1e1e" stroke-width="0"/><path d="M164.6475,97.8887c-.7983,0-1.4482-.6494-1.4482-1.4482v-4.3545c0-.7988.6499-1.4482,1.4482-1.4482s1.4478.6494,1.4478,1.4482v4.3545c0,.7988-.6494,1.4482-1.4478,1.4482Z" fill="#1e1e1e" stroke-width="0"/><path d="M150.7622,110.4746c-.3232,0-.6338-.1797-.7852-.4902-.2114-.4336-.0317-.9561.4019-1.167l2.1626-1.0557c.3491-.1699.5845-.4873.646-.8701.062-.3828-.062-.7588-.3398-1.0293l-2.3525-2.2949c-.1685-.1641-.2637-.3896-.2637-.625v-11.6006c0-.4824.3911-.873.873-.873s.873.3906.873.873v11.2324l2.0889,2.0381c.6802.6631.9961,1.6191.8447,2.5576-.1509.9365-.751,1.7451-1.6045,2.1611l-2.1621,1.0547c-.123.0605-.2539.0889-.3823.0889Z" fill="#1e1e1e" stroke-width="0"/><path d="M152.0635,120.873c-4.5854,0-8.1636-1.6182-10.3618-2.9795-.4102-.2539-.5366-.792-.2827-1.2021.2539-.4092.792-.5361,1.2017-.2822,2.0054,1.2422,5.2686,2.7178,9.4424,2.7178h.0645c2.4824-.0098,4.9067-.5371,7.2046-1.5674.4395-.1982.9561,0,1.1533.4395.1973.4404.0005.957-.4395,1.1543-2.5215,1.1299-5.1836,1.709-7.9121,1.7197h-.0703Z" fill="#1e1e1e" stroke-width="0"/><path d="M167.575,126.732l.7125,14.7987s-4.9274,6.2443-17.3623,6.2443-17.5837-4.9297-17.5837-4.9297l.4483-16.1132" fill="#fff" stroke-width="0"/><path d="M150.9253,148.6484c-12.6401,0-17.9673-4.9609-18.1875-5.1719-.1782-.1709-.2759-.4082-.269-.6553l.4482-16.1133c.0132-.4814.436-.8369.897-.8486.4819.0137.8618.415.8481.8975l-.4365,15.6914c1.2095.9482,6.3823,4.4541,16.6997,4.4541,10.4604,0,15.4409-4.5967,16.4731-5.6865l-.6953-14.4414c-.0229-.4814.3486-.8906.8301-.9141.4771-.0332.8906.3496.9141.8301l.7124,14.7979c.0103.21-.0562.417-.1865.583-.2119.2686-5.3364,6.5771-18.0479,6.5771Z" fill="#1e1e1e" stroke-width="0"/><path d="M166.3356,128.016c-7.0355,8.7402-17.3496,12.5699-25.7608,9.7348-4.6963-1.5829-7.7161-4.8784-9.3608-7.1141l.6349-6.2814s2.3398,3.6071,6.5856,6.1462c4.2458,2.5392,8.3119,3.4389,11.5654,3.3352,3.2535-.1038,6.3021-.0101,11.0487-2.1696,2.3365-1.0092,5.2869-3.6512,5.2869-3.6512Z" fill="#1e1e1e" stroke-width="0"/><path d="M146.2847,139.5391c-2.0522,0-4.0669-.3135-5.9888-.9609-3.7598-1.2676-7.1436-3.835-9.7852-7.4238-.1284-.1748-.187-.3896-.1655-.6055l.6353-6.2812c.0376-.3682.3032-.6729.6626-.7598.3604-.0869.7358.0615.938.3721.0225.0342,2.2939,3.4756,6.3018,5.873,3.6499,2.1836,7.5981,3.332,11.0894,3.2119l.7778-.0225c2.9468-.0801,5.7295-.1562,9.9375-2.0703,2.1919-.9463,5.0371-3.4814,5.0654-3.5068.3384-.3027.853-.2969,1.1836.0176.3296.3125.3638.8262.0791,1.1807-5.627,6.9893-13.4102,10.9756-20.731,10.9756ZM132.1167,130.3867c1.7192,2.2637,4.5835,5.1367,8.7368,6.5371,5.9038,1.9873,12.8076.502,18.7314-3.7051-3.5654,1.3271-6.2144,1.3984-8.7876,1.4688l-.7695.0215c-2.7119.0898-7-.4434-12.0415-3.458-2.4883-1.4883-4.3379-3.3145-5.4883-4.6387l-.3813,3.7744Z" fill="#1e1e1e" stroke-width="0"/><path d="M150.8506,134.71c-14.7241,0-24.3604-10.8037-27.9023-31.2578-2.5581.0664-5.3765-1.3945-7.3828-3.9082-1.4346-1.7979-2.2783-3.9033-2.3755-5.9307-.1025-2.1328.623-3.9307,2.0435-5.0645,1.6431-1.3125,3.9644-1.499,6.2842-.5674l.3394-12.3672c.0127-.4814.418-.8691.8965-.8486.4819.0137.8618.415.8486.8975l-.3765,13.7256c-.0083.3076-.1792.5889-.4487.7393-.27.1504-.5991.1455-.8652-.0107-2.0796-1.2188-4.2217-1.2959-5.5889-.2041-.9707.7744-1.4639,2.0586-1.3892,3.6162.0801,1.6631.7891,3.4121,1.9961,4.9248,1.7671,2.2139,4.3169,3.4805,6.415,3.2188.0659-.0283.1367-.0469.2104-.0566.4702-.0684.897.2354.9731.7002,2.2754,13.9814,8.6895,30.6475,26.3223,30.6475,14.1196,0,22.5845-10.2754,25.1597-30.54.0596-.4668.4683-.8184.9448-.7588.0698.0059.1372.0205.2012.042h.0488c1.9863,0,4.252-1.251,5.8496-3.2529,1.207-1.5127,1.916-3.2617,1.9961-4.9248.0747-1.5576-.4185-2.8418-1.3887-3.6152-1.29-1.0303-3.3828-1.707-5.4424-.582-.1592.1475-.3721.2119-.5952.2334-.4712-.0117-.8506-.3564-.854-.8281-.0537-7.4521-.7861-12.9268-.7939-12.9814-.0645-.4775.27-.917.7476-.9824.478-.0615.917.2695.9829.7471.0068.0527.6631,4.9482.791,11.791,2.4194-.8037,4.7485.0361,6.2534,1.2373,1.4199,1.1338,2.1455,2.9316,2.043,5.0645-.0972,2.0273-.9409,4.1328-2.3755,5.9307-1.8379,2.3018-4.3726,3.7412-6.7812,3.8955-2.7983,20.4629-12.0498,31.2705-26.7871,31.2705Z" fill="#1e1e1e" stroke-width="0"/><path d="M124.3999,73.4971h-.0117c-.4824-.0068-.8677-.4023-.8613-.8848.0483-3.5547.9141-7.0967,2.5034-10.2412.2173-.4316.7432-.6016,1.1729-.3857.4307.2178.603.7432.3857,1.1729-1.4707,2.9102-2.2715,6.1865-2.3159,9.4775-.0068.4785-.396.8613-.873.8613Z" fill="#fff" stroke-width="0"/><path d="M148.895,29.7051c-.4819,0-.873-.3906-.873-.873v-8.1953c0-.4824.3911-.873.873-.873s.873.3906.873.873v8.1953c0,.4824-.3911.873-.873.873Z" fill="#1e1e1e" stroke-width="0"/><path d="M174.6621,34.3906c-.1113,0-.2241-.0215-.3335-.0664-.4453-.1846-.6572-.6953-.4727-1.1406l3.1357-7.5723c.1846-.4443.6953-.6543,1.1406-.4727.4453.1846.6572.6953.4727,1.1406l-3.1357,7.5723c-.1392.3359-.4644.5391-.8071.5391Z" fill="#1e1e1e" stroke-width="0"/><path d="M196.6772,48.5781c-.2231,0-.4468-.085-.6172-.2559-.3408-.3408-.3408-.8936,0-1.2344l5.7939-5.7959c.3408-.3418.8936-.3418,1.2344,0,.3408.3408.3408.8936,0,1.2344l-5.7939,5.7959c-.1704.1709-.3936.2559-.6172.2559Z" fill="#1e1e1e" stroke-width="0"/><path d="M211.5884,70.1094c-.3428,0-.6675-.2031-.8071-.5391-.1846-.4453.0269-.9561.4722-1.1406l7.5708-3.1377c.4468-.1836.9561.0273,1.1411.4727.1846.4453-.0269.9561-.4722,1.1406l-7.5708,3.1377c-.1094.0449-.2227.0664-.334.0664Z" fill="#1e1e1e" stroke-width="0"/><path d="M217.126,95.707c-.4819,0-.873-.3906-.873-.873,0-.4814.3906-.873.873-.873l8.1953-.002c.4819,0,.873.3906.873.873,0,.4814-.3906.873-.873.873l-8.1953.002Z" fill="#1e1e1e" stroke-width="0"/><path d="M220.021,124.6094c-.1108,0-.2241-.0215-.333-.0664l-7.5732-3.1328c-.4458-.1846-.6577-.6953-.4731-1.1406.1846-.4443.6948-.6562,1.1401-.4727l7.5732,3.1328c.4458.1846.6577.6953.4731,1.1406-.1392.3359-.4644.5391-.8071.5391Z" fill="#1e1e1e" stroke-width="0"/><path d="M80.8589,126.7344c-.3423,0-.6675-.2021-.8066-.5381-.1851-.4453.0264-.9561.4712-1.1416l7.5693-3.1426c.4478-.1826.9561.0264,1.1411.4717s-.0264.9561-.4712,1.1416l-7.5693,3.1426c-.1099.0449-.2231.0664-.3345.0664Z" fill="#1e1e1e" stroke-width="0"/><path d="M74.6787,98.0049c-.4819,0-.8726-.3906-.873-.8721-.0005-.4824.3901-.873.8721-.874l8.1953-.0078h.001c.4819,0,.8726.3906.873.8721.0005.4824-.3901.873-.8721.874l-8.1953.0078h-.001Z" fill="#1e1e1e" stroke-width="0"/><path d="M87.5356,72.2256c-.1108,0-.2236-.0215-.333-.0664l-7.5747-3.1289c-.4453-.1836-.6572-.6943-.4731-1.1396.1841-.4463.6929-.6562,1.1401-.4736l7.5747,3.1289c.4453.1836.6572.6943.4731,1.1396-.1387.3369-.4644.54-.8071.54Z" fill="#1e1e1e" stroke-width="0"/><path d="M101.7036,50.1982c-.2231,0-.4463-.085-.6167-.2549l-5.8013-5.7891c-.3413-.3408-.3418-.8936-.0015-1.2344.3413-.3418.8936-.3418,1.2349-.002l5.8013,5.7891c.3413.3408.3418.8936.0015,1.2344-.1709.1709-.3945.2568-.6182.2568Z" fill="#1e1e1e" stroke-width="0"/><path d="M123.2217,35.2676c-.3423,0-.667-.2021-.8066-.5381l-3.1445-7.5674c-.1851-.4453.0259-.9561.4712-1.1406.4443-.1875.9561.0254,1.1411.4707l3.1445,7.5674c.1851.4453-.0259.9561-.4712,1.1406-.1094.0459-.2231.0674-.3345.0674Z" fill="#1e1e1e" stroke-width="0"/><path d="M165.9054,106.0971c-2.4517-.6557-4.3431-1.5868-5.4525-2.1661-2.3771-1.2414-3.1389-2.0985-5.2506-2.8778-2.0501-.7566-3.9781-.9253-5.2101-.9593-1.232.034-3.16.2026-5.2101.9593-2.1117.7793-2.8734,1.6364-5.2506,2.8778-1.1094.5793-3.0008,1.5104-5.4525,2.1661-1.5505.4147-5.089.9902-9.2289.9902v8.1693c0,10.6386,11.2565,19.2629,25.142,19.2629h0c13.8856,0,25.142-8.6243,25.142-19.2629v-8.1693c-4.1399,0-7.6784-.5755-9.2289-.9902Z" fill="#cef3f7" stroke-width="0"/><path d="M149.9922,135.3926c-14.3447,0-26.0151-9.0332-26.0151-20.1357v-8.1699c0-.4824.3911-.873.873-.873,4.2827,0,7.7617-.6279,9.0034-.9609,2.3203-.6201,4.1206-1.4932,5.2729-2.0957.9341-.4873,1.6245-.9229,2.2339-1.3066.9546-.6025,1.7793-1.1221,3.1196-1.6172,1.6743-.6172,3.5205-.958,5.4878-1.0127,2.0161.0547,3.8623.3955,5.5366,1.0127,1.3403.4951,2.165,1.0146,3.1196,1.6172.6094.3838,1.2998.8193,2.2329,1.3066,1.1543.6035,2.9561,1.4766,5.2739,2.0957h0c1.2417.333,4.7207.9609,9.0034.9609.4819,0,.873.3906.873.873v8.1699c0,11.1025-11.6704,20.1357-26.0151,20.1357ZM125.7231,107.9521v7.3047c0,10.1396,10.8872,18.3896,24.269,18.3896s24.269-8.25,24.269-18.3896v-7.3047c-4.0469-.0762-7.2598-.6582-8.5815-1.0117-2.4854-.665-4.4038-1.5947-5.6309-2.2363-.9961-.5195-1.7188-.9756-2.356-1.377-.9072-.5723-1.624-1.0244-2.793-1.4551-1.4951-.5518-3.1548-.8564-4.9321-.9053-1.7285.0488-3.3882.3535-4.8833.9053-1.1689.4307-1.8857.8828-2.793,1.4551-.6372.4014-1.3599.8574-2.3564,1.377-1.2251.6416-3.1431,1.5713-5.6304,2.2363-1.3218.3535-4.5347.9355-8.5815,1.0117Z" fill="#1e1e1e" stroke-width="0"/><path d="M124.8501,114.208c2.0669.7084,5.0936,1.649,8.82,2.4551,15.3837,3.3279,27.7042,1.1212,31.7692.2739,2.4428-.5092,5.7915-1.3377,9.6951-2.729" fill="#cef3f7" stroke-width="0"/><path d="M150.3135,119.3076c-4.9834,0-10.6919-.4639-16.8281-1.791-3.0068-.6504-6.0073-1.4854-8.918-2.4824-.4561-.1562-.6992-.6533-.543-1.1094.1562-.4551.6514-.7002,1.1084-.543,2.8467.9756,5.7812,1.792,8.7217,2.4277,13.9692,3.0225,25.6733,1.4678,31.4062.2725,3.2202-.6709,6.4434-1.5781,9.5806-2.6963.4541-.1611.9531.0752,1.1152.5293s-.0752.9531-.5293,1.1152c-3.2119,1.1455-6.5127,2.0742-9.8101,2.7607-3.3481.6982-8.6855,1.5166-15.3037,1.5166Z" fill="#1e1e1e" stroke-width="0"/><path d="M150.5674,128.7266c-3.7295,0-7.5156-.584-11.269-1.7549-5.4927-1.7119-10.6401-4.7725-14.8853-8.8496-.3481-.334-.3589-.8867-.0249-1.2344.3345-.3477.8877-.3574,1.2339-.0254,4.0518,3.8906,8.9604,6.8105,14.1958,8.4434,7.5674,2.3574,15.2705,2.2217,22.2759-.3945,4.5483-1.7002,8.7837-4.4766,12.248-8.0283.3369-.3457.8906-.3506,1.2344-.0156.3452.3369.3521.8896.0156,1.2344-3.6426,3.7354-8.0986,6.6553-12.8867,8.4443-3.8877,1.4531-7.9771,2.1807-12.1377,2.1807Z" fill="#1e1e1e" stroke-width="0"/><path d="M129.1089,181.6387c-.0864,0-.1738-.0127-.2603-.04-1.688-.5254-3.3711-1.1211-5.0015-1.7686-.4482-.1787-.667-.6855-.4888-1.1338.1782-.4473.6855-.667,1.1333-.4893,1.5898.6318,3.2305,1.2119,4.8765,1.7256.46.1426.7173.6318.5737,1.0928-.1167.374-.4614.6133-.833.6133Z" fill="#1e1e1e" stroke-width="0"/><path d="M114.8335,175.3242c-.1504,0-.3027-.0391-.4419-.1211-3.0308-1.7842-5.9321-3.8145-8.6235-6.0332-.3721-.3066-.4253-.8574-.1182-1.2295.3062-.3711.8569-.4248,1.2285-.1182,2.6211,2.1611,5.4468,4.1387,8.3989,5.877.4155.2441.5542.7793.3096,1.1953-.1631.2764-.4541.4297-.7534.4297ZM98.8682,162.1396c-.2432,0-.4849-.1006-.6572-.2979-2.3247-2.6543-4.4282-5.5059-6.2529-8.4746-.2524-.4111-.124-.9482.2866-1.2012.4116-.25.9492-.123,1.2007.2871,1.7734,2.8857,3.8188,5.6572,6.0791,8.2383.3179.3633.2812.9141-.0815,1.2324-.1655.1445-.3706.2158-.5747.2158Z" fill="#1e1e1e" stroke-width="0"/><path d="M88.0508,144.498c-.3481,0-.6768-.209-.812-.5518-.6509-1.6445-1.2334-3.335-1.7319-5.0254-.1362-.4629.1279-.9482.5903-1.084.4604-.1367.9478.127,1.0845.5898.4834,1.6406,1.0488,3.2812,1.6802,4.877.1777.4482-.042.9561-.4902,1.1328-.1055.042-.2144.0615-.3208.0615Z" fill="#1e1e1e" stroke-width="0"/><path d="M211.9492,144.498c-.1064,0-.2153-.0195-.3208-.0615-.4482-.1768-.668-.6846-.4902-1.1328.6313-1.5957,1.1968-3.2363,1.6802-4.877.1362-.4629.6201-.7275,1.0845-.5898.4624.1357.7266.6211.5903,1.084-.4985,1.6904-1.0811,3.3809-1.7319,5.0254-.1353.3428-.4644.5518-.812.5518Z" fill="#1e1e1e" stroke-width="0"/><path d="M185.1704,175.3213c-.2993,0-.5903-.1533-.7534-.4297-.2446-.416-.106-.9512.3096-1.1953,2.9502-1.7373,5.7754-3.7139,8.397-5.876.3721-.3057.9224-.2529,1.2285.1182.3071.3721.2539.9229-.1182,1.2295-2.6919,2.2197-5.5928,4.249-8.6216,6.0322-.1392.082-.2915.1211-.4419.1211ZM201.1328,162.1387c-.2041,0-.4092-.0713-.5747-.2158-.3628-.3184-.3994-.8691-.0815-1.2324,2.2603-2.5811,4.3057-5.3525,6.0791-8.2383.2515-.4111.7886-.5391,1.2007-.2871.4106.2529.5391.79.2866,1.2012-1.8247,2.9688-3.9282,5.8203-6.2529,8.4746-.1724.1973-.4141.2979-.6572.2979Z" fill="#1e1e1e" stroke-width="0"/><path d="M170.8901,181.6387c-.3721,0-.7168-.2402-.833-.6143-.1431-.46.1138-.9492.5742-1.0928,1.6348-.5078,3.2749-1.0879,4.876-1.7246.4487-.1777.9561.041,1.1333.4893.1782.4482-.0405.9551-.4888,1.1338-1.6421.6523-3.3247,1.248-5.002,1.7695-.0864.0264-.1738.0391-.2598.0391Z" fill="#1e1e1e" stroke-width="0"/><circle cx="150" cy="183.4728" r="20.8904" fill="#ced3f4" stroke-width="0"/><path d="M158.7993,192.5488h-17.5986c-1.6982,0-3.0796-1.3818-3.0796-3.0801v-9.915c0-1.6982,1.3813-3.0801,3.0796-3.0801h3.5669l.5029-1.125c.2593-.5781.8354-.9512,1.4683-.9512h6.4185c.6338,0,1.2104.374,1.4683.9521l.5029,1.124h3.6709c1.6982,0,3.0796,1.3818,3.0796,3.0801v9.915c0,1.6982-1.3813,3.0801-3.0796,3.0801ZM141.2007,178.2197c-.7354,0-1.3335.5986-1.3335,1.334v9.915c0,.7354.5981,1.334,1.3335,1.334h17.5986c.7354,0,1.3335-.5986,1.3335-1.334v-9.915c0-.7354-.5981-1.334-1.3335-1.334h-3.7598c-.6328,0-1.209-.373-1.4678-.9502l-.5034-1.126h-6.2407l-.5029,1.125c-.2593.5781-.8354.9512-1.4683.9512h-3.6558Z" fill="#1e1e1e" stroke-width="0"/><path d="M150.0669,189.6562c-3.0088,0-5.4565-2.4482-5.4565-5.457s2.4478-5.4561,5.4565-5.4561,5.4561,2.4473,5.4561,5.4561-2.4478,5.457-5.4561,5.457ZM150.0669,180.4893c-2.0459,0-3.7104,1.6641-3.7104,3.71s1.6646,3.7109,3.7104,3.7109,3.71-1.665,3.71-3.7109-1.6641-3.71-3.71-3.71Z" fill="#1e1e1e" stroke-width="0"/></svg>