<?xml version="1.0" encoding="UTF-8"?><svg id="c" xmlns="http://www.w3.org/2000/svg" width="300" height="225" viewBox="0 0 300 225"><path d="M169.1045,103.3922c-1.9831-.3281-14.0415-2.5135-19.5789-12.7687-2.5917-4.8-2.7194-9.4499-2.797-12.2823-.0774-2.821-.1851-10.9219,5.2291-17.9979,1.2416-1.6228,2.2494-2.9398,4.0131-4.013,6.8323-4.1575,16.4998.4707,19.5787,1.9457,14.4364,6.9164,21.1808,27.7111,26.2534,45.9723,5.1025,18.3689,11.0993,43.484,15.5559,74.2741-21.4131,0-30.52-.4633-51.9331-.4633,1.2263-24.8889,2.4525-49.7779,3.6788-74.6668Z" fill="#1e1e1e" stroke-width="0"/><polygon points="121.5911 130.693 112.7341 166.3512 148.3446 154.2848 144.6964 130.693 121.5911 130.693" fill="#1e1e1e" stroke-width="0"/><circle cx="210.1207" cy="48.5041" r="20.8904" fill="#ced3f4" stroke-width="0"/><path d="M206.1914,43.1292c.7134.4419,2.377,1.3355,4.6444,1.3269,1.573-.006,2.8038-.4437,3.5215-.7655" fill="none" stroke="#1e1e1e" stroke-linecap="round" stroke-linejoin="round" stroke-width="1.7459"/><path d="M218.0312,47.5927l.3319,6.8944s-2.2956,2.9091-8.0888,2.9091-8.192-2.2967-8.192-2.2967l.2089-7.5069" fill="none" stroke="#1e1e1e" stroke-linecap="round" stroke-linejoin="round" stroke-width="1.7459"/><path d="M221.7888,39.612c-1.3585,5.9445-4.5306,11.2906-11.5491,11.2906-6.7686,0-10.1418-4.9722-11.7871-10.6581" fill="none" stroke="#1e1e1e" stroke-linecap="round" stroke-linejoin="round" stroke-width="1.7459"/><path d="M214.1232,168.6531c-6.613-6.5639-15.6362-13.2609-27.5212-17.5988-6.7595-2.467-35.8667-11.9826-60.9628,4.1341-8.1127,5.21-13.6531,11.7183-17.4812,17.4915,13.8249,11.2793,31.4726,18.0507,50.7063,18.0507,21.4199,0,40.8644-8.4056,55.2589-22.0776Z" fill="#b7fdc0" stroke-width="0"/><path d="M172.4793,116.8613l-1.0644,35.0522s-4.4995,7.2964-14.4713,7.2964-14.4713-4.8643-14.4713-4.8643l.4864-18.0909" fill="#fff" stroke="#1e1e1e" stroke-linecap="round" stroke-linejoin="round" stroke-width="1.7459"/><path d="M172.4793,116.8613s-9.7305,28.9344-29.5205,31.7515v-8.3446s8.5583-4.0761,12.0667-6.4554c3.5085-2.3793,13.1059-16.4357,13.1059-16.4357l4.3478-.5158Z" fill="#1e1e1e" stroke-width="0"/><path d="M132.7438,83.8135c-4.9658,6.8467-11.8051,18.6973-12.2261,33.7998-.1742,6.25-.2707,13.7077,5.0393,19.0615,5.1158,5.158,12.1794,5.2675,13.5841,5.2583,8.6226-.056,14.537-5.9487,19.3135-10.7077,5.0313-5.0129,7.981-10.2105,9.677-13.8483,0,0,10.9446-.1216,14.1065-6.5668,3.1617-6.4452.8512-9.2421.8512-9.2421-3.8509.608-7.7018,1.2161-11.5527,1.8241" fill="#fff" stroke="#1e1e1e" stroke-linecap="round" stroke-linejoin="round" stroke-width="1.7459"/><path d="M130.4361,71.4626c-2.3166,2.7324-4.7578,6.4942-4.0334,10.2598,1.9135,9.9454,18.3866,6.6262,24.2986,3.471,4.955-2.6445,10.783-7.7103,10.6426-13.816-.1165-5.068-5.1872-11.0656-10.4857-11.0794-1.5066-.0039-2.9845.394-4.4173.8597-5.3359,1.7342-10.515,4.6163-14.5133,8.6748-.4893.4966-.9941,1.0435-1.4915,1.6301Z" fill="#1e1e1e" stroke-width="0"/><path d="M171.6222,104.2483c2.2755-1.9673,6.6147-5.2041,12.9541-7.0679,6.4225-1.8883,11.8898-1.4829,14.876-1.0451-4.8582-15.927-11.5749-31.9531-23.9028-37.8593-3.0788-1.4751-12.7464-6.1033-19.5786-1.9457-1.7638,1.0732-2.7716,2.3902-4.0132,4.013-5.4141,7.076-5.3064,15.1769-5.2291,17.9978.0752,2.7403.198,7.274,2.797,12.2824,3.735,7.1975,10.9591,12.2467,18.4404,13.3783,1.4904.2254,2.7571.26,3.6562.2465Z" fill="#1e1e1e" stroke-width="0"/><path d="M147.24,68.2268c-.9246,2.8757-1.5753,6.2833-1.5001,10.1143" fill="none" stroke="#fff" stroke-linecap="round" stroke-linejoin="round" stroke-width="1.7459"/><line x1="123.8564" y1="94.6074" x2="131.3062" y2="94.3449" fill="none" stroke="#1e1e1e" stroke-linecap="round" stroke-linejoin="round" stroke-width="1.7459"/><line x1="151.7391" y1="96.4332" x2="144.3286" y2="95.6249" fill="none" stroke="#1e1e1e" stroke-linecap="round" stroke-linejoin="round" stroke-width="1.7459"/><rect x="127.741" y="100.0492" width="1.1503" height="5.5048" rx=".5751" ry=".5751" transform="translate(7.8862 -9.1351) rotate(4.2064)" fill="none" stroke="#1e1e1e" stroke-linecap="round" stroke-linejoin="round" stroke-width="1.7459"/><rect x="146.0967" y="101.6067" width="1.1503" height="5.5048" rx=".5751" ry=".5751" fill="none" stroke="#1e1e1e" stroke-linecap="round" stroke-linejoin="round" stroke-width="1.7459"/><path d="M136.6131,101.0734l-1.7389,11.4698-2.6697,1.9158c-1.1523.8269-1.1367,2.546.0304,3.3518l1.9802,1.3673" fill="none" stroke="#1e1e1e" stroke-linecap="round" stroke-linejoin="round" stroke-width="1.7459"/><path d="M131.9649,126.4161c.7982.8786,2.4829,2.4422,4.9297,2.7935,3.9322.5645,8.2595-2.2281,10.3524-7.0659" fill="none" stroke="#1e1e1e" stroke-linecap="round" stroke-linejoin="round" stroke-width="1.7459"/><line x1="171.3758" y1="109.5888" x2="177.4557" y2="107.6169" fill="none" stroke="#1e1e1e" stroke-linecap="round" stroke-linejoin="round" stroke-width="1.7459"/><path d="M141.9893,112.8752c-3.3051-2.1095-4.1287-4.8824-6.458-4.6659-1.9669.1829-2.0257,2.2201-5.5375,3.8442-.7025.3249-2.8624,1.2574-5.587.9038-1.3413-.1741-2.4714-.6219-3.4015-1.1356-.2593,1.8727-.432,3.8018-.4875,5.7914-.1742,6.25-.2707,13.7077,5.0393,19.0615,5.1158,5.158,12.1794,5.2674,13.5841,5.2583,8.6226-.0561,14.537-5.9487,19.3134-10.7077,5.0314-5.0128,7.981-10.2105,9.677-13.8483,0,0,.325-4.7541-3.315-5.4604-2.6516-.5145-9.1113,2.9641-10.9686,2.937-5.2007-.0759-8.404.2264-11.8587-1.9784Z" fill="#cef3f7" stroke="#1e1e1e" stroke-miterlimit="10" stroke-width="1.7459"/><path d="M120.5228,117.4413c1.2481,1.4338,3.4221,3.5767,6.6774,5.2112,3.8738,1.9451,7.2929,2.1732,9.2021,2.3005,11.594.7734,29.6368-9.9929,31.157-10.7861" fill="none" stroke="#1e1e1e" stroke-linecap="round" stroke-linejoin="round" stroke-width="1.7459"/><path d="M120.4654,121.4208c.9269,2.106,3.75,7.7425,9.8842,10.3242,1.1728.4936,4.0434,1.5392,8.8461,1.1777,12.7431-.9592,24.4953-10.7263,28.1524-13.9424" fill="none" stroke="#1e1e1e" stroke-linecap="round" stroke-linejoin="round" stroke-width="1.7459"/><path d="M164.8165,111.9167s.2764-13.152,7.6628-15.8877" fill="none" stroke="#1e1e1e" stroke-linecap="round" stroke-linejoin="round" stroke-width="1.7459"/><circle cx="81.7503" cy="86.4803" r="20.8904" fill="#ced3f4" stroke-width="0"/><path d="M81.3568,74.7571c-1.7036,4.0612-2.9982,6.5663-3.9021,8.1435-.8991,1.5689-1.5336,3.3184-2.6806,4.7164-.2854.3479-.7641.8962-.984,1.7644-.0589.2327-.4222,1.7677.509,3.0538.5243.7242,1.213,1.0297,1.7984,1.2894.7467.3313,1.3745.4217,2.5109.5768,1.6978.2318,1.9398.0536,2.477.4072.6489.4271,1.0938,1.2123,1.1537,2.0359.0498.6846-.1796,1.2145-.3054,1.459" fill="none" stroke="#1e1e1e" stroke-linecap="round" stroke-linejoin="round" stroke-width="1.7459"/><path d="M78.4727,91.2137c.4405-.2015,1.1179-.4396,1.968-.475.3567-.0149,1.4325-.0227,2.6127.5768.632.3211,1.0795.7074,1.3572.984" fill="none" stroke="#1e1e1e" stroke-linecap="round" stroke-linejoin="round" stroke-width="1.7459"/><path d="M85.8018,87.5492c.5114.512,1.3917,1.5534,1.6966,3.0877.1157.5825.258,1.3503-.0679,2.2395-.39,1.0641-1.2048,1.632-1.5269,1.8323" fill="none" stroke="#1e1e1e" stroke-linecap="round" stroke-linejoin="round" stroke-width="1.7459"/><circle cx="204.3782" cy="176.4959" r="20.8904" fill="#ced3f4" stroke-width="0"/><path d="M214.5213,172.8889c-1.5488-1.4665-2.572-2.5635-4.4624-3.559-1.4804-.7796-2.3183-.8786-2.9978-.8213-1.3136.1107-2.2518.824-2.6829,1.2046-.4311-.3805-1.3693-1.0938-2.6829-1.2046-.6794-.0573-1.5174.0417-2.9977.8213-1.8904.9955-2.9136,2.0924-4.4624,3.559-.9522.9016-2.3287,2.1565-4.0929,3.6001.8294.8384,2.0629,2.0148,3.6685,3.2989,1.9528,1.5617,3.1778,2.5501,5.0921,3.3947,1.2208.5386,3.0282,1.3141,5.4753,1.3141,2.4471,0,4.2546-.7755,5.4754-1.3141,1.9143-.8446,3.1394-1.8331,5.0921-3.3947,1.6056-1.2841,2.8391-2.4605,3.6685-3.2989-1.7641-1.4436-3.1406-2.6985-4.0928-3.6001Z" fill="none" stroke="#1e1e1e" stroke-linecap="round" stroke-linejoin="round" stroke-width="1.7459"/><path d="M195.7761,176.4959s3.6742-3.1723,8.6021-3.1723,8.6021,3.1723,8.6021,3.1723c0,0-3.8203,3.1723-8.6021,3.1723s-8.6021-3.1723-8.6021-3.1723Z" fill="none" stroke="#1e1e1e" stroke-linecap="round" stroke-linejoin="round" stroke-width="1.7459"/><path d="M182.123,34.1416c-.0845,0-.1699-.0117-.2549-.0381-1.6445-.501-3.3271-.9531-5.0005-1.3457-.4697-.1094-.7612-.5791-.6514-1.0488s.5781-.7598,1.0488-.6504c1.7109.4004,3.4307.8623,5.1118,1.375.4614.1406.7212.6279.5806,1.0898-.1147.376-.4604.6182-.8345.6182Z" fill="#1e1e1e" stroke-width="0"/><path d="M107.3379,49.168c-.251,0-.4995-.1074-.6724-.3154-.3076-.3711-.2568-.9219.1143-1.2295,2.3975-1.9893,4.936-3.8613,7.5459-5.5625.4033-.2627.9453-.1484,1.208.2549.2632.4033.1494.9443-.2549,1.208-2.5537,1.665-5.0381,3.4961-7.3838,5.4434-.1631.1348-.3608.2012-.5571.2012ZM122.8506,39.0557c-.3203,0-.6289-.1768-.7817-.4834-.2153-.4316-.0396-.9561.3921-1.1709,2.7886-1.3896,5.689-2.6309,8.6196-3.6885.4517-.1611.9541.0703,1.1177.5254.1636.4531-.0713.9531-.5249,1.1172-2.8677,1.0352-5.7051,2.249-8.4341,3.6084-.125.0625-.2578.0918-.3887.0918ZM140.2695,32.7725c-.396,0-.7549-.2715-.8491-.6738-.1099-.4697.1816-.9395.6509-1.0488,3.0288-.71,6.1372-1.249,9.2393-1.6045.4839-.0537.9116.2891.9663.7676.0552.4795-.2891.9121-.7681.9668-3.0352.3477-6.0762.876-9.0391,1.5693-.0669.0156-.1343.0234-.2002.0234ZM167.9312,31.1895c-.0332,0-.0669-.002-.1011-.0059-3.021-.3486-6.1025-.5254-9.1587-.5254-.4819,0-.873-.3906-.873-.873s.3911-.873.873-.873c3.1226,0,6.2715.1807,9.3589.5371.479.0557.8223.4883.7671.9668-.0513.4453-.4287.7734-.8662.7734Z" fill="#1e1e1e" stroke-width="0"/><path d="M97.0479,59.3906c-.1982,0-.3979-.0674-.5615-.2051-.3687-.3105-.4165-.8613-.106-1.2295,1.1299-1.3438,2.3188-2.6689,3.5337-3.9385.3335-.3496.8872-.3604,1.2344-.0273.3481.334.3604.8857.0273,1.2344-1.1895,1.2432-2.3535,2.54-3.4595,3.8545-.1724.2061-.4194.3115-.6685.3115Z" fill="#1e1e1e" stroke-width="0"/><path d="M226.4829,154.4287c-.1606,0-.3237-.0449-.4692-.1377-.4062-.2598-.5249-.7998-.2651-1.2061.9277-1.4502,1.8188-2.9473,2.6479-4.4492.2334-.4209.7642-.5732,1.186-.3428.4219.2334.5752.7646.3423,1.1865-.8472,1.5352-1.7578,3.0645-2.7056,4.5469-.1665.2598-.4482.4023-.7363.4023Z" fill="#1e1e1e" stroke-width="0"/><path d="M233.6299,140.4121c-.106,0-.2139-.0195-.3184-.0605-.4492-.1758-.6704-.6816-.4946-1.1309,1.2612-3.2188,2.3203-6.5527,3.1479-9.9102.1152-.4668.585-.7568,1.0566-.6387.4683.1152.7539.5889.6387,1.0566-.8462,3.4316-1.9287,6.8389-3.2173,10.1289-.1353.3447-.4644.5547-.813.5547ZM238.6514,120.042c-.0317,0-.0645-.002-.0972-.0059-.479-.0527-.8247-.4844-.7715-.9629.3213-2.9053.4844-5.8711.4844-8.8154,0-.5264-.0054-1.0518-.0156-1.5762-.0093-.4814.374-.8799.856-.8896.4834.0254.8809.374.8901.8564.0103.5342.0156,1.0713.0156,1.6094,0,3.0078-.1665,6.0381-.4951,9.0068-.0493.4473-.4277.7773-.8667.7773ZM238.2354,99.0615c-.4248,0-.7969-.3105-.8623-.7422-.5161-3.418-1.2656-6.8359-2.2261-10.1592-.1343-.4629.1328-.9473.5957-1.0811.4614-.1328.9468.1328,1.0811.5967.9824,3.3955,1.748,6.8887,2.2759,10.3818.0718.4775-.2563.9219-.7329.9941-.0439.0068-.0879.0098-.1313.0098Z" fill="#1e1e1e" stroke-width="0"/><path d="M232.3975,78.8877c-.3359,0-.6562-.1953-.7998-.5225-.6885-1.5693-1.4395-3.1416-2.2324-4.6719-.2222-.4277-.0547-.9541.373-1.1768.4282-.2207.9551-.0537,1.1768.374.8105,1.5635,1.5781,3.1689,2.2812,4.7734.1938.4414-.0073.9561-.4487,1.1504-.1143.0498-.2329.0732-.3501.0732Z" fill="#1e1e1e" stroke-width="0"/><path d="M79.2676,124.2715c-.4199,0-.79-.3037-.8604-.7314-.2847-1.7354-.5161-3.502-.6875-5.251-.0474-.4795.3037-.9062.7837-.9541.4775-.0469.9072.3047.9536.7842.168,1.7109.3945,3.4395.6729,5.1377.0781.4756-.2441.9248-.7197,1.0029-.0479.0078-.0957.0117-.1426.0117Z" fill="#1e1e1e" stroke-width="0"/><path d="M158.6025,191.6035h-.0005c-3.8125-.0029-7.6475-.2725-11.3994-.8018-.4771-.0674-.8096-.5088-.7422-.9863s.5068-.8105.9863-.7422c3.6714.5176,7.4253.7812,11.1562.7842.4824,0,.873.3916.8726.874-.0005.4814-.3911.8721-.873.8721ZM136.2695,188.4453c-.0806,0-.1621-.0107-.2432-.0342-3.6489-1.0566-7.2563-2.3828-10.7217-3.9434-.4395-.1982-.6357-.7148-.4375-1.1543.1978-.4395.7158-.6357,1.1543-.4375,3.3906,1.5264,6.9199,2.8242,10.4902,3.8574.4629.1348.73.6182.5957,1.0811-.1104.3828-.459.6309-.8379.6309ZM115.709,179.1895c-.1592,0-.3208-.0439-.4658-.1348-3.2065-2.0283-6.3037-4.3066-9.2051-6.7715-.3677-.3115-.4126-.8623-.1006-1.2305.3125-.3672.8623-.4121,1.2305-.0996,2.8398,2.4121,5.8706,4.6406,9.0088,6.625.4072.2578.5288.7979.271,1.2051-.166.2627-.4492.4062-.7388.4062ZM98.5186,164.5859c-.2407,0-.4805-.0986-.6528-.293-2.5269-2.8408-4.875-5.8867-6.979-9.0508-.2666-.4014-.1577-.9434.2437-1.21.4009-.2686.9429-.1582,1.2104.2432,2.0591,3.0967,4.3569,6.0771,6.8296,8.8574.3203.3604.2881.9121-.0723,1.2324-.1665.1475-.3735.2207-.5796.2207ZM86.0308,145.7979c-.3257,0-.6382-.1826-.7881-.4961-1.6401-3.4307-3.0498-7.0098-4.1895-10.6367-.1445-.46.1113-.9502.5713-1.0947.4609-.1445.9502.1113,1.0947.5713,1.1147,3.5488,2.4937,7.0508,4.0986,10.4062.208.4355.0239.9561-.4111,1.1641-.1211.0586-.2495.0859-.376.0859Z" fill="#1e1e1e" stroke-width="0"/><path d="M169.917,190.8203c-.4282,0-.8022-.3154-.8633-.752-.0674-.4775.2651-.9189.7427-.9854,1.709-.2402,3.4263-.5381,5.104-.8857.4756-.0996.9341.2051,1.0322.6777.0977.4717-.2056.9336-.6777,1.0312-1.7148.3555-3.4697.6602-5.2153.9053-.0415.0059-.082.0088-.1226.0088Z" fill="#1e1e1e" stroke-width="0"/></svg>