<?xml version="1.0" encoding="UTF-8"?><svg id="c" xmlns="http://www.w3.org/2000/svg" width="300" height="225" viewBox="0 0 300 225"><path d="M207.8123,38.3675c-13.1911,1.044-23.8548,11.7673-24.8356,24.9632-.2812,3.7833.2155,7.4164,1.3458,10.7575,2.6666,7.8819,1.9273,16.5196-1.7367,23.9902l-1.2071,2.4612,4.7762-3.121c6.2168-4.0623,13.6434-5.8137,21.0296-5.0426,1.5013.1567,3.0392.1906,4.6038.0909,13.3448-.8503,24.2507-11.594,25.2724-24.9268,1.2787-16.6863-12.5541-30.4938-29.2485-29.1726Z" fill="#ced3f4" stroke-width="0"/><path d="M208.0859,80.7988c-8.4902,0-15.3975-6.9072-15.3975-15.3975s6.9072-15.3975,15.3975-15.3975c7.6084,0,14.002,5.4453,15.2031,12.9473.1016.6348-.3311,1.2314-.9658,1.333-.6299.1006-1.2314-.3311-1.333-.9658-1.0195-6.3662-6.4463-10.9863-12.9043-10.9863-7.2061,0-13.0693,5.8633-13.0693,13.0693s5.8633,13.0693,13.0693,13.0693c.6426,0,1.1641.5215,1.1641,1.1641s-.5215,1.1641-1.1641,1.1641Z" fill="#1e1e1e" stroke-width="0"/><polygon points="211.5767 58.8501 212.6672 57.059 221.4849 62.4407 226.2087 53.2521 228.0727 54.2126 222.3174 65.4021 211.5767 58.8501" fill="#1e1e1e" stroke-width="0"/><path d="M216.2053,78.357h-1.971v-7.5976l-2.3529.7297v-1.6027l4.1125-1.4731h.2114v9.9437Z" fill="#1e1e1e" stroke-width="0"/><path d="M219.7244,73.4739l.5729-5.0469h5.5652v1.6436h-3.9488l-.2455,2.1347c.4683-.2501.9662-.3751,1.4936-.3751.9457,0,1.6868.2933,2.2233.8798s.8048,1.4072.8048,2.462c0,.6411-.1353,1.2151-.4058,1.7221s-.6581.9002-1.1628,1.1799-1.1003.4194-1.7869.4194c-.6002,0-1.1571-.1216-1.6709-.3649s-.9196-.5854-1.2174-1.0264-.4558-.9434-.474-1.5072h1.9505c.0409.4138.1853.7354.4331.965s.5717.3444.9719.3444c.4456,0,.7889-.1603,1.0298-.4808s.3615-.7741.3615-1.3606c0-.5638-.1387-.9957-.416-1.2958s-.6706-.4501-1.1799-.4501c-.4683,0-.848.1228-1.139.3683l-.191.1773-1.5686-.3887Z" fill="#1e1e1e" stroke-width="0"/><path d="M123.7163,104.7792c1.8665-.7459,13.1752-5.4677,16.3832-16.6722,1.5015-5.2443.6285-9.8133.0966-12.5964-.5297-2.7719-2.1626-10.7072-8.9689-16.4568-1.5609-1.3186-2.8277-2.3887-4.7807-3.0585-7.5652-2.5948-16.0146,3.9999-18.7052,6.1012-12.6162,9.8527-14.7418,31.6103-15.7782,50.5345-1.0424,19.0359-1.6983,28.2544.5551,59.2836,26.322,9.8251,29.8972,9.5975,50.8116,5.0031-6.5378-24.0462-13.0757-48.0924-19.6135-72.1386Z" fill="#1e1e1e" stroke-width="0"/><polygon points="175.9808 121.2498 189.7797 168.4789 154.9121 150.0324 153.4136 126.2073 175.9808 121.2498" fill="#1e1e1e" stroke-width="0"/><path d="M196.6497,172.5718c-1.2572-1.9277-2.2465-3.2333-2.7824-3.9269-4.7211-6.1104-12.709-16.449-27.1681-22.3479-24.7256-10.0875-48.025,1.1098-53.1218,3.7441-2.8111,1.4528-13.4995,7.2362-24.0006,20.7948-.205.2647-.4034.5446-.6068.8133,14.3199,13.1281,33.4016,21.1453,54.3598,21.1453,20.4581,0,39.1211-7.6477,53.3199-20.2226Z" fill="#b7fdc0" stroke-width="0"/><path d="M127.7001,115.8479l1.0644,35.0522s4.4995,7.2964,14.4713,7.2964c9.9718,0,14.4713-4.8643,14.4713-4.8643l-.4864-18.0909" fill="#fff" stroke-width="0"/><path d="M143.2354,159.0693c-10.3398,0-15.0195-7.3955-15.2139-7.7109-.0801-.1299-.125-.2783-.1299-.4316l-1.0645-35.0527c-.0137-.4814.3643-.8848.8467-.8994.4414-.001.8848.3643.8994.8467l1.0566,34.8057c.7695,1.1221,5.0264,6.6963,13.6055,6.6963,8.2285,0,12.5605-3.4189,13.5889-4.3516l-.4766-17.707c-.0127-.4824.3672-.8828.8496-.8965.5029-.0117.8828.3682.8965.8496l.4863,18.0908c.0059.2275-.0771.4492-.2324.6162-.1943.21-4.876,5.1445-15.1123,5.1445Z" fill="#1e1e1e" stroke-width="0"/><path d="M123.31,118.6587s15.7121,26.1728,35.6455,24.6781l-1.7904-8.1503s-9.2335-2.1449-13.1708-3.716c-3.9373-1.5711-16.3271-13.241-16.3271-13.241l-4.3572.4291Z" fill="#1e1e1e" stroke-width="0"/><path d="M155.0294,77.8549c6.3192,5.6218,15.5418,15.729,19.1934,30.3894,1.5112,6.067,3.2055,13.3303-.8321,19.6988-3.89,6.1355-10.7656,7.758-12.1395,8.0505-8.4338,1.7953-15.4748-2.6911-21.1611-6.3144-5.9897-3.8166-9.9859-8.2603-12.423-11.4495,0,0-10.7159,2.2295-15.1869-3.3872-4.471-5.6167-2.8144-8.8443-2.8144-8.8443,3.8916-.2324,7.7833-.4647,11.675-.6971" fill="#fff" stroke-width="0"/><path d="M157.3643,137.2783c-6.9746,0-12.8613-3.752-17.7432-6.8633-4.6904-2.9883-8.832-6.7646-12.3203-11.2314-2.3232.3887-11.2988,1.4863-15.5029-3.7969-4.7676-5.9893-2.9863-9.6348-2.9082-9.7871.1406-.2744.416-.4541.7246-.4727l11.6748-.6973c.4668-.0352.8936.3379.9229.8193s-.3379.8945-.8193.9229l-11.0723.6611c-.1895.9805-.2529,3.5762,2.8428,7.4658,4.0791,5.125,14.2246,3.0957,14.3262,3.0762.335-.0684.668.0576.8711.3242,3.4307,4.4883,7.5342,8.2715,12.1982,11.2432,5.5361,3.5283,12.4268,7.915,20.5107,6.1973,1.8232-.3877,8.0479-2.0859,11.584-7.6641,3.9209-6.1836,2.1475-13.3008.7227-19.0205-2.7451-11.0186-9.2891-21.374-18.9268-29.9482-.3604-.3203-.3926-.8721-.0723-1.2324.3213-.3623.874-.3916,1.2324-.0723,9.9014,8.8086,16.6309,19.4697,19.46,30.8311,1.4268,5.7236,3.3799,13.5625-.9414,20.3779-3.9014,6.1533-10.7031,8.0127-12.6953,8.4355-1.3955.2979-2.751.4316-4.0684.4316Z" fill="#1e1e1e" stroke-width="0"/><path d="M154.6334,65.2966c2.8489,2.1717,6.0404,5.3222,6.1408,9.1555.265,10.1244-16.5366,10.4169-22.9879,8.6036-5.407-1.5197-12.1862-5.2171-13.3591-11.2108-.9736-4.975,2.6922-11.9208,7.8643-13.0712,1.4706-.3271,2.9996-.2555,4.4989-.1081,5.5837.5489,11.2606,2.2527,16.0366,5.3588.5844.3801,1.1948.8059,1.8065,1.2722Z" fill="#1e1e1e" stroke-width="0"/><path d="M121.4409,106.1555c-2.6446-1.4332-7.5772-3.6636-14.1689-4.1239-6.6781-.4663-11.9311,1.1027-14.7538,2.171,1.3278-16.5984,4.4496-33.6924,15.2231-42.1061,2.6906-2.1013,11.14-8.696,18.7052-6.1012,1.953.6698,3.2199,1.7399,4.7808,3.0585,6.8063,5.7495,8.4392,13.6849,8.9689,16.4567.5145,2.6926,1.3673,7.1471-.0966,12.5965-2.1037,7.8313-8.0763,14.3128-15.1405,17.0233-1.4074.54-2.6371.8455-3.5181,1.0252Z" fill="#1e1e1e" stroke-width="0"/><path d="M141.1611,76.1719c-.4082,0-.7725-.2871-.8555-.7021-.6475-3.25-1.8359-6.375-3.5332-9.2891-.2432-.417-.1025-.9512.3145-1.1934.417-.2451.9512-.1025,1.1934.3145,1.7949,3.0811,3.0527,6.3877,3.7383,9.8262.0938.4727-.2129.9326-.6855,1.0273-.0576.0107-.1152.0166-.1719.0166Z" fill="#fff" stroke-width="0"/><path d="M158.6924,88.7061c-.4131,0-.7803-.2949-.8574-.7158-.0869-.4746.2266-.9287.7012-1.0156l7.332-1.3428c.4717-.0898.9287.2275,1.0156.7012.0869.4746-.2266.9287-.7012,1.0156l-7.332,1.3428c-.0527.0098-.1064.0146-.1582.0146Z" fill="#1e1e1e" stroke-width="0"/><path d="M139.1846,95.1289c-.3643,0-.7041-.2295-.8271-.5947-.1543-.457.0918-.9521.5488-1.1055l7.0645-2.3789c.4541-.1553.9512.0908,1.1055.5488.1543.457-.0918.9521-.5488,1.1055l-7.0645,2.3789c-.0918.0312-.1865.0459-.2783.0459Z" fill="#1e1e1e" stroke-width="0"/><path d="M161.1797,113.585c-.2139,0-.4268-.0781-.5957-.2344-.3525-.3291-.3711-.8809-.043-1.2344l1.6416-1.7607c.2646-.2832.3701-.6641.291-1.0439-.0801-.3799-.3301-.6855-.6865-.8389l-3.0186-1.2979c-.2158-.0928-.3857-.2686-.4697-.4883l-4.1602-10.8301c-.1738-.4502.0518-.9551.501-1.1279.4502-.1758.9551.0508,1.1279.501l4.0283,10.4873,2.6807,1.1523c.873.375,1.5098,1.1543,1.7051,2.084s-.0742,1.8984-.7217,2.5938l-1.6416,1.7607c-.1719.1836-.4053.2773-.6387.2773Z" fill="#1e1e1e" stroke-width="0"/><path d="M158.0693,124.4268c-3.4834,0-7.1719-2.0186-9.6895-5.5117-.2822-.3916-.1934-.9375.1973-1.2188.3906-.2822.9375-.1924,1.2188.1973,2.792,3.873,7.1582,5.6709,10.6133,4.373,1.9082-.7148,3.1006-2.2451,3.7646-3.4033.2402-.418.7705-.5645,1.1914-.3223.418.2393.5625.7725.3223,1.1914-.8066,1.4062-2.2705,3.2715-4.665,4.1689-.9443.3545-1.9404.5254-2.9531.5254Z" fill="#1e1e1e" stroke-width="0"/><path d="M122.8281,112.1914c-.0283,0-.0566-.001-.0859-.0039l-6.3613-.6211c-.4795-.0469-.8311-.4746-.7842-.9541s.459-.8369.9541-.7842l6.3613.6211c.4795.0469.8311.4746.7842.9541-.0439.4512-.4238.7881-.8682.7881Z" fill="#1e1e1e" stroke-width="0"/><path d="M152.2347,108.2236c2.7755-2.7695,2.985-5.6545,5.3065-5.9428,1.9603-.2434,2.4549,1.7337,6.2334,2.5665.7558.1666,3.0656.6139,5.6508-.316,1.2727-.4578,2.2804-1.1377,3.0786-1.839.6551,1.7734,1.2377,3.6206,1.7187,5.552,1.5111,6.067,3.2055,13.3304-.8321,19.6988-3.89,6.1355-10.7656,7.758-12.1395,8.0505-8.4338,1.7953-15.4748-2.6912-21.1611-6.3145-5.9897-3.8166-9.9859-8.2603-12.4229-11.4495,0,0-1.3375-4.5737,2.0662-6.0445,2.4794-1.0714,9.5351.9401,11.3433.5152,5.0633-1.19,8.2569-1.582,11.158-4.4767Z" fill="#cef3f7" stroke-width="0"/><path d="M157.3643,137.2783c-6.9746,0-12.8613-3.752-17.7432-6.8633-4.8379-3.082-9.0928-7.0039-12.6475-11.6553l-.0986-.1289-.0459-.1562c-.5371-1.8379-.6943-5.6855,2.5576-7.0908,1.6924-.7295,4.8486-.2744,7.6328.1279,1.5381.2227,3.2764.4707,3.8584.3389.6484-.1523,1.2666-.292,1.8574-.4248,3.9326-.8867,6.5303-1.4727,8.8828-3.8203h0c1.082-1.0801,1.752-2.1865,2.3428-3.1621.874-1.4443,1.6992-2.8086,3.4727-3.0283,1.2803-.1562,2.1045.3955,2.9736.9834.8369.5654,1.7852,1.2061,3.5547,1.5967,1.7754.3896,3.5635.292,5.1689-.2852,1.0176-.3662,1.9326-.9141,2.7969-1.6729l.9541-.8398.4414,1.1924c.6963,1.8867,1.2842,3.7852,1.7461,5.6436,1.4268,5.7236,3.3799,13.5625-.9414,20.3779-3.9014,6.1533-10.7041,8.0127-12.6953,8.4355-1.3955.2979-2.751.4316-4.0684.4316ZM128.4678,117.8389c3.4082,4.4277,7.4756,8.1621,12.0908,11.1035,5.5361,3.5283,12.4268,7.915,20.5107,6.1973,1.8232-.3877,8.0469-2.0859,11.584-7.6641,3.9209-6.1836,2.1475-13.3008.7227-19.0205-.3555-1.4268-.7871-2.8779-1.2871-4.3301-.7441.5176-1.5371.9287-2.3672,1.2275-1.915.6885-4.0352.8096-6.1348.3477-2.0957-.4619-3.2871-1.2676-4.1572-1.8555-.7959-.5381-1.1699-.7666-1.7812-.6973-.8936.1113-1.3428.792-2.1943,2.1992-.6104,1.0088-1.3701,2.2646-2.6035,3.4951-2.708,2.7031-5.6543,3.3672-9.7314,4.2871-.5859.1318-1.1992.2695-1.8428.4209-.8564.2031-2.2705.0146-4.5068-.3096-2.3018-.333-5.4512-.7891-6.6895-.2539-2.3672,1.0234-1.7812,4.1416-1.6123,4.8525Z" fill="#1e1e1e" stroke-width="0"/><path d="M152.9316,120.5771c-5.5527,0-13.5264-1.0977-24.877-4.541-.3604-.1084-.6133-.1855-.7461-.2217-.4648-.126-.7402-.6055-.6143-1.0713s.6025-.7402,1.0713-.6143c.1406.0381.4121.1201.7959.2363,17.7656,5.3906,26.9229,4.9404,31.4785,3.6182,1.8564-.54,4.96-1.4434,8.1875-4.0615,2.1064-1.709,3.8516-3.8164,5.1865-6.2627.2324-.4238.7617-.5771,1.1846-.3486.4238.2314.5791.7617.3486,1.1846-1.4453,2.6475-3.3359,4.9297-5.6201,6.7822-3.501,2.8408-6.9463,3.8428-8.7969,4.3809-1.7969.5225-4.2607.9189-7.5986.9189Z" fill="#1e1e1e" stroke-width="0"/><path d="M154.9902,128.3711c-10.4961,0-20.9404-4.8291-26.6367-7.9805-.4219-.2334-.5742-.7646-.3408-1.1865s.7646-.5742,1.1865-.3408c6.3018,3.4854,18.5693,9.0996,29.9424,7.4775,3.2432-.4609,5.9365-1.4355,8.0068-2.8975,4.8096-3.3955,6.5039-8.7646,7.0869-11.6631.0947-.4727.5557-.7783,1.0273-.6836.4727.0947.7793.5547.6836,1.0273-.6328,3.1533-2.4873,9.002-7.79,12.7451-2.2988,1.623-5.249,2.7002-8.7686,3.2002-1.458.207-2.9287.3018-4.3975.3018Z" fill="#1e1e1e" stroke-width="0"/><path d="M129.7324,113.0586c-.3936,0-.751-.2686-.8477-.668-.0293-.1221-3.0459-12.2227-10.165-13.2148-.4775-.0664-.8105-.5068-.7441-.9844s.5166-.8145.9844-.7441c8.2949,1.1553,11.4902,13.9873,11.6221,14.5332.1133.4688-.1748.9395-.6436,1.0537-.0684.0166-.1377.0244-.2061.0244Z" fill="#1e1e1e" stroke-width="0"/><path d="M140.4072,103.3916c-.0176,0-.0352-.001-.0518-.002-.4814-.0283-.8486-.4414-.8203-.9219.0479-.8262.3936-3.666,2.8027-5.5596,2.417-1.9014,5.9727-2.0527,8.8457-.375.416.2432.5566.7783.3135,1.1943-.2432.415-.7764.5576-1.1943.3135-2.2607-1.3213-5.0283-1.2236-6.8857.2393-1.8359,1.4434-2.1016,3.6484-2.1396,4.2891-.0273.4639-.4121.8223-.8701.8223Z" fill="#1e1e1e" stroke-width="0"/><path d="M160.8311,95.3008c-.1338,0-.2695-.0312-.3975-.0967-.4287-.2197-.5986-.7461-.3779-1.1748.4619-.9014,1.542-2.5781,3.5859-3.6855,2.6172-1.418,5.1934-1.0322,6.1787-.7998.4688.1104.7598.5801.6494,1.0498-.1104.4688-.5781.7588-1.0498.6494-.791-.1846-2.8574-.4961-4.9463.6357-1.6309.8828-2.4951,2.2256-2.8652,2.9473-.1543.3018-.46.4746-.7773.4746Z" fill="#1e1e1e" stroke-width="0"/><path d="M133.0928,193.0225c-.0371,0-.0742-.002-.1113-.0068-.502-.0645-1.0029-.1328-1.502-.2061-.4766-.0693-.8066-.5127-.7363-.9902.0693-.4766.5107-.8154.9902-.7363.4873.0713.9785.1377,1.4688.2002.4785.0615.8164.499.7559.9766-.0566.4414-.4326.7627-.8652.7627Z" fill="#1e1e1e" stroke-width="0"/><path d="M148.7041,193.4912c-.4561,0-.8398-.3535-.8701-.8154-.0322-.4805.332-.8965.8135-.9287,1.0322-.0684,2.0605-.1562,3.082-.2637.4727-.0459.9092.2979.959.7773.0508.4795-.2979.9082-.7773.959-1.043.1094-2.0928.1992-3.1484.2695-.0195.001-.0391.002-.0586.002ZM167.1143,190.0947c-.373,0-.7178-.2402-.834-.6152-.1426-.4609.1152-.9492.5762-1.0918.9902-.3066,1.9717-.6309,2.9453-.9736.4531-.1602.9541.0791,1.1133.5332.1602.4551-.0781.9531-.5332,1.1133-.9951.3506-1.998.6826-3.0098.9951-.0859.0264-.1729.0391-.2578.0391ZM184.2402,182.5078c-.2988,0-.5889-.1533-.752-.4287-.2461-.415-.1084-.9502.3066-1.1953.8896-.5264,1.7676-1.0693,2.6338-1.6289.4053-.2627.9463-.1455,1.207.2598.2617.4053.1455.9453-.2598,1.207-.8857.5713-1.7832,1.126-2.6924,1.6641-.1396.083-.292.1221-.4434.1221ZM199.1416,171.168c-.2285,0-.458-.0898-.6289-.2676-.334-.3477-.3242-.9004.0234-1.2344.7432-.7148,1.4727-1.4443,2.1865-2.1875.334-.3496.8867-.3584,1.2344-.0254.3477.335.3594.8867.0254,1.2344-.7314.7607-1.4766,1.5059-2.2354,2.2363-.1699.1631-.3877.2441-.6055.2441ZM211.0322,156.7109c-.1621,0-.3262-.0449-.4717-.1396-.4053-.2607-.5225-.8008-.2607-1.2061.5566-.8643,1.0977-1.7402,1.6211-2.6289.2441-.415.7783-.5527,1.1953-.3086.415.2441.5537.7793.3086,1.1953-.5352.9082-1.0879,1.8037-1.6582,2.6875-.167.2588-.4473.4004-.7344.4004ZM219.2646,139.9004c-.0957,0-.1934-.0156-.2891-.0498-.4551-.1592-.6943-.6572-.5342-1.1123.3408-.9717.6631-1.9512.9688-2.9395.1416-.4609.6279-.7197,1.0918-.5762.4609.1426.7188.6309.5762,1.0918-.3115,1.0098-.6416,2.0107-.9902,3.002-.126.3594-.4629.584-.8232.584ZM223.3662,121.6357c-.0303,0-.0605-.002-.0908-.0049-.4795-.0498-.8281-.4785-.7783-.958.1064-1.0225.1934-2.0508.2617-3.084.0312-.4814.4502-.832.9287-.8135.4814.0322.8457.4482.8135.9287-.0703,1.0547-.1592,2.1045-.2676,3.1484-.0469.4492-.4258.7832-.8672.7832Z" fill="#1e1e1e" stroke-width="0"/><path d="M223.1465,102.8818c-.4326,0-.8086-.3213-.8652-.7627-.0625-.4912-.1289-.9805-.2012-1.4678-.0713-.4766.2578-.9209.7354-.9912.4678-.0781.9199.2578.9912.7354.0742.499.1426,1,.207,1.5029.0605.4775-.2773.915-.7559.9766-.0371.0049-.0742.0068-.1113.0068Z" fill="#1e1e1e" stroke-width="0"/><path d="M181.6865,42.4346c-.1406,0-.2832-.0342-.416-.1064-.4336-.2354-.8701-.4668-1.3086-.6953-.4277-.2227-.5947-.749-.3721-1.1768.2217-.4287.75-.5977,1.1768-.3721.4482.2324.8945.4697,1.3379.7109.4238.2295.5801.7598.3496,1.1836-.1582.291-.458.4561-.7676.4561Z" fill="#1e1e1e" stroke-width="0"/><path d="M69.2383,144.6533c-.3389,0-.6621-.1992-.8037-.5312-.3936-.9268-.7705-1.8604-1.1299-2.8037-.1719-.4502.0537-.9541.5049-1.126.4473-.1699.9541.0537,1.126.5049.3516.9219.7207,1.8359,1.1064,2.7412.1885.4434-.0186.9561-.4619,1.1455-.1113.0469-.2275.0693-.3418.0693ZM64.126,127.5059c-.4141,0-.7822-.2959-.8584-.7188-.1777-.9883-.3379-1.9834-.4785-2.9844-.0674-.4775.2646-.9189.7422-.9863.4834-.0684.9189.2666.9863.7422.1387.9795.2949,1.9531.4688,2.9199.085.4746-.2305.9277-.7051,1.0137-.0518.0088-.1045.0137-.1553.0137ZM62.9355,109.6484c-.0137,0-.0264,0-.0391-.001-.4814-.0215-.8555-.4287-.834-.9102.0439-1.0098.1064-2.0146.1865-3.0137.0381-.4805.4639-.8379.9395-.8008.4805.0381.8389.459.8008.9395-.0781.9795-.1387,1.9629-.1826,2.9512-.0205.4688-.4072.835-.8711.835ZM65.6846,91.9727c-.0771,0-.1543-.0098-.2314-.0312-.4648-.127-.7393-.6074-.6113-1.0723.2666-.9727.5498-1.9395.8496-2.8975.1445-.459.6299-.7168,1.0938-.5723.46.1436.7168.6338.5723,1.0938-.2939.9385-.5713,1.8848-.832,2.8369-.1064.3877-.458.6426-.8408.6426ZM72.293,75.3477c-.1387,0-.2793-.0332-.4111-.1035-.4248-.2275-.585-.7559-.3574-1.1816.4746-.8867.9639-1.7646,1.4697-2.6318.2422-.417.7754-.5586,1.1934-.3145.417.2422.5576.7764.3145,1.1934-.4941.8496-.9736,1.708-1.4385,2.5771-.1572.2939-.459.4609-.7705.4609ZM82.418,60.6055c-.2021,0-.4053-.0693-.5703-.2119-.3652-.3154-.4053-.8662-.0908-1.2314.6592-.7627,1.3311-1.5127,2.0166-2.249.3291-.3525.8809-.374,1.2334-.0439.3525.3281.373.8799.0439,1.2334-.6699.7207-1.3281,1.4531-1.9717,2.2002-.1729.2002-.416.3027-.6611.3027ZM95.541,48.4434c-.2676,0-.5312-.1221-.7031-.3545-.2861-.3877-.2041-.9336.1836-1.2207.8105-.5986,1.6318-1.1836,2.4639-1.752.3975-.2715.9414-.1699,1.2129.2285.2725.3975.1699.9414-.2285,1.2129-.8145.5566-1.6172,1.1279-2.4111,1.7148-.1553.1152-.3379.1709-.5176.1709ZM111.0225,39.4697c-.335,0-.6553-.1943-.7988-.5215-.1943-.4414.0059-.957.4473-1.1504.9238-.4062,1.8555-.7939,2.7959-1.165.4463-.1797.9561.042,1.1318.4912.1777.4482-.042.9551-.4912,1.1318-.9189.3633-1.8311.7432-2.7334,1.1396-.1143.0508-.2334.0742-.3516.0742ZM166.5371,36.1191c-.083,0-.167-.0117-.251-.0371-.9414-.2832-1.8906-.5498-2.8467-.7979-.4658-.1211-.7461-.5977-.625-1.0645.1201-.4668.5967-.748,1.0645-.625.9775.2539,1.9463.5264,2.9092.8154.4619.1387.7236.625.585,1.0869-.1133.3779-.46.6221-.8359.6221ZM128.1113,34.1592c-.4102,0-.7764-.291-.8564-.709-.0908-.4736.2197-.9307.6934-1.0215.9863-.1885,1.9785-.3594,2.9766-.5127.4678-.0723.9219.2549.9951.7314.0723.4766-.2549.9219-.7314.9951-.9766.1494-1.9473.3164-2.9121.501-.0557.0107-.1104.0156-.165.0156ZM148.9336,32.9141c-.0205,0-.041-.001-.0615-.002-.9795-.0674-1.9639-.1172-2.9521-.1494-.4814-.0146-.8594-.418-.8438-.9004.0146-.4814.415-.8848.9004-.8438,1.0098.0322,2.0156.082,3.0166.1514.4805.0332.8438.4502.8105.9316-.0322.46-.415.8125-.8701.8125Z" fill="#1e1e1e" stroke-width="0"/><path d="M77.207,159.0713c-.2764,0-.5479-.1309-.7178-.375-.2881-.4141-.5723-.832-.8525-1.251-.2686-.4014-.1602-.9434.2402-1.2109.4023-.2676.9434-.1611,1.2109.2402.2744.4111.5527.8193.835,1.2256.2754.3955.1777.9395-.2188,1.2148-.1514.1055-.3252.1562-.4971.1562Z" fill="#1e1e1e" stroke-width="0"/><rect x="83.3166" y="157.5035" width="35.5883" height="35.6475" rx="1.4595" ry="1.4595" fill="#ced3f4" stroke-width="0"/><path d="M94.8547,160.7525h-6.9352c-.7507,0-1.3593.6086-1.3593,1.3593v6.9352c0,.7507.6086,1.3593,1.3593,1.3593h6.9352c.7507,0,1.3593-.6086,1.3593-1.3593v-6.9352c0-.7507-.6086-1.3593-1.3593-1.3593ZM93.5134,169.065h-4.2527c-.7507,0-1.3593-.6086-1.3593-1.3593v-4.2527c0-.7507.6086-1.3593,1.3593-1.3593h4.2527c.7507,0,1.3593.6086,1.3593,1.3593v4.2527c0,.7507-.6086,1.3593-1.3593,1.3593Z" fill="#1e1e1e" stroke-width="0"/><rect x="89.2924" y="163.4847" width="4.1894" height="4.1894" rx="1.3593" ry="1.3593" fill="#1e1e1e" stroke-width="0"/><path d="M106.0075,162.1118v6.9352c0,.7507.6086,1.3593,1.3593,1.3593h6.9352c.7507,0,1.3593-.6086,1.3593-1.3593v-6.9352c0-.7507-.6086-1.3593-1.3593-1.3593h-6.9352c-.7507,0-1.3593.6086-1.3593,1.3593ZM112.9607,169.065h-4.2527c-.7507,0-1.3593-.6086-1.3593-1.3593v-4.2527c0-.7507.6086-1.3593,1.3593-1.3593h4.2527c.7507,0,1.3593.6086,1.3593,1.3593v4.2527c0,.7507-.6086,1.3593-1.3593,1.3593Z" fill="#1e1e1e" stroke-width="0"/><rect x="108.7397" y="163.4847" width="4.1894" height="4.1894" rx="1.3593" ry="1.3593" fill="#1e1e1e" stroke-width="0"/><path d="M87.9195,189.7298h6.9352c.7507,0,1.3593-.6086,1.3593-1.3593v-6.9352c0-.7507-.6086-1.3593-1.3593-1.3593h-6.9352c-.7507,0-1.3593.6086-1.3593,1.3593v6.9352c0,.7507.6086,1.3593,1.3593,1.3593ZM89.2607,181.4173h4.2527c.7507,0,1.3593.6086,1.3593,1.3593v4.2527c0,.7507-.6086,1.3593-1.3593,1.3593h-4.2527c-.7507,0-1.3593-.6086-1.3593-1.3593v-4.2527c0-.7507.6086-1.3593,1.3593-1.3593Z" fill="#1e1e1e" stroke-width="0"/><rect x="89.2924" y="182.8082" width="4.1894" height="4.1894" rx="1.3593" ry="1.3593" fill="#1e1e1e" stroke-width="0"/><rect x="86.5602" y="171.782" width="2.7322" height="1.3865" rx=".6739" ry=".6739" fill="#1e1e1e" stroke-width="0"/><path d="M94.8478,172.5606c0,.3722.3017.6739.6739.6739h.7191v1.3276h-2.7591s0,.1896,0,.1896v1.197s0,1.3822,0,1.3822v1.3865s0,.0006,0,.0006h1.3661s0-.0006,0-.0006h2.1245c.3722,0,.6739-.3017.6739-.6739v-.0387c0-.3722-.3017-.6739-.6739-.6739h-1.4505c-.3722,0-.6739-.3017-.6739-.6739v-.0343c0-.3722.3017-.6739.6739-.6739h1.4505c.3722,0,.6739.3017.6739.6739v.0337c0,.3722.3017.6739.6739.6739h.0182c.3722,0,.6739-.3017.6739-.6739v-.7076s0-1.197,0-1.197v-.1896s-.0461,0-.0461,0c-.7507,0-1.3593-.6086-1.3593-1.3593v-.0004c0-.7507-.6086-1.3593-1.3593-1.3593h-.0068s0,.0048,0,.0048h-.7191c-.3722,0-.6739.3017-.6739.6739v.0387Z" fill="#1e1e1e" stroke-width="0"/><path d="M103.0775,176.6225v.0387c0,.3722-.3017.6739-.6739.6739h-.0182c-.3722,0-.6739.3017-.6739.6739v.0343c0,.3722-.3017.6739-.6739.6739h-.0182c-.3722,0-.6739.3017-.6739.6739v.7133h-1.333s0,.7039,0,.7039c0,.3722-.3017.6739-.6739.6739h-.0182c-.3722,0-.6739-.3017-.6739-.6739v-1.4169c0-.3721.3015-.6738.6736-.6739h.0189c.3721-.0002.6736-.3019.6736-.6739v-.0389c0-.3722.3017-.6739.6739-.6739h.0182c.3722,0,.6739-.3017.6739-.6739v-.0344c0-.3722.3017-.6739.6739-.6739h1.3512c.3722,0,.6739.3017.6739.6739Z" fill="#1e1e1e" stroke-width="0"/><path d="M105.8981,182.8082v-1.3257s0-.0608,0-.0608v-1.3257s-1.3661,0-1.3661,0v1.3257h-3.4796c-.3722,0-.6739.3017-.6739.6739v.0387c0,.3722.3017.6739.6739.6739h.0017c.3722,0,.6739.3017.6739.6739v.1211c0,.3722-.3017.6739-.6739.6739h-.0017c-.3722,0-.6739-.3017-.6739-.6739v-.1211c0-.3722-.3017-.6739-.6739-.6739h-.0182c-.3722,0-.6739.3017-.6739.6739v.0927c0,.3722-.3017.6739-.6739.6739h-.0524c-.3722,0-.6739.3017-.6739.6739v.0387c0,.3722.3017.6739.6739.6739h.0524c.3722,0,.6739.3017.6739.6739v.0144c0,.3722-.3017.6739-.6739.6739h-.0524c-.3722,0-.6739.3017-.6739.6739v.699c0,.7507.6086,1.3593,1.3593,1.3593h.041s1.2988,0,1.2988,0h.0673s0-2.0582,0-2.0582c0-.3722.3017-.6739.6739-.6739h.0017c.3722,0,.6739-.3017.6739-.6739v-.0407c0-.3722.3017-.6739.6739-.6739h.0182c.3722,0,.6739-.3017.6739-.6739v-.7675c0-.7507.6086-1.3593,1.3593-1.3593h1.4447Z" fill="#1e1e1e" stroke-width="0"/><path d="M104.4602,187.6715v.0387c0,.3722.3017.6739.6739.6739h2.8139c.3722,0,.6739.3017.6739.6739v.0387c0,.3722.3017.6739.6739.6739h2.852c.3722,0,.6739-.3017.6739-.6739v-.0387c0-.3722-.3017-.6739-.6739-.6739h-.8088c-.7507,0-1.3593-.6086-1.3593-1.3593v-.0273s0-.7147,0-.7147c0-.3722-.3017-.6739-.6739-.6739h-.0182c-.3722,0-.6739.3017-.6739.6739v.0407c0,.3722-.3017.6739-.6739.6739h-2.8056c-.3722,0-.6739.3017-.6739.6739Z" fill="#1e1e1e" stroke-width="0"/><rect x="101.7445" y="188.3841" width="2.7156" height="1.3865" rx=".6739" ry=".6739" fill="#1e1e1e" stroke-width="0"/><rect x="103.0776" y="174.5621" width="2.8475" height="1.3865" rx=".6739" ry=".6739" fill="#1e1e1e" stroke-width="0"/><path d="M114.0852,176.6235v.0205c0,.3722.3017.6739.6739.6739h.0126c.3722,0,.6739.3017.6739.6739v.0411c0,.3722-.3017.6739-.6739.6739h-.0182c-.3722,0-.6739-.3017-.6739-.6739v-.0411c0-.3722-.3017-.6739-.6739-.6739h-.0182c-.3722,0-.6739.3017-.6739.6739v.0411c0,.3722-.3017.6739-.6739.6739h-.0182c-.3722,0-.6739-.3017-.6739-.6739v-.0411c0-.3722-.3017-.6739-.6739-.6739h-.0088c-.3722,0-.6739-.3017-.6739-.6739v-.7231c0-.7502.6078-1.3586,1.358-1.3593l.6762-.0006c.372-.0003.6733-.302.6733-.6739v-.0006c0-.3722-.3017-.6739-.6739-.6739h-.0522c-.3722,0-.6739-.3017-.6739-.6739v-.0387c0-.3722.3017-.6739.6739-.6739h.7331c.7507,0,1.3593.6086,1.3593,1.3593v.0273h-.0002s0,.6764,0,.6764c0,.3722.3017.6739.6739.6739h.075c.3722,0,.6739.3017.6739.6739v.0387c0,.3722-.3017.6739-.6739.6739h-.0541c-.3722,0-.6739.3017-.6739.6739Z" fill="#1e1e1e" stroke-width="0"/><path d="M101.7115,179.392v.0387c0,.3722.3017.6739.6739.6739h.0182c.3722,0,.6739-.3017.6739-.6739v-.035c0-.3722.3017-.6739.6739-.6739h.0182c.3722,0,.6739-.3017.6739-.6739v-.0387c0-.3722-.3017-.6739-.6739-.6739h-.0182c-.3722,0-.6739.3017-.6739.6739v.035c0,.3722-.3017.6739-.6739.6739h-.0182c-.3722,0-.6739.3017-.6739.6739Z" fill="#1e1e1e" stroke-width="0"/><rect x="103.0941" y="185.609" width="1.3661" height="1.3886" rx=".6739" ry=".6739" fill="#1e1e1e" stroke-width="0"/><rect x="111.3474" y="185.6073" width="1.3661" height="1.3886" rx=".6739" ry=".6739" fill="#1e1e1e" stroke-width="0"/><rect x="105.9006" y="177.3352" width="1.3661" height="1.3865" rx=".6739" ry=".6739" fill="#1e1e1e" stroke-width="0"/><path d="M106.599,174.5621h.0182c.3722,0,.6739-.3017.6739-.6739h0c0-.3722.3017-.6739.6739-.6739h1.4099c.3722,0,.6739-.3017.6739-.6739v-.0387c0-.3722-.3017-.6739-.6739-.6739h-2.0907c-.7507,0-1.3593.6086-1.3593,1.3593v.0273s0,0,0,0v.6739c0,.3722.3017.6739.6739.6739Z" fill="#1e1e1e" stroke-width="0"/><rect x="86.5602" y="174.5563" width="1.3661" height="4.1618" rx=".6739" ry=".6739" fill="#1e1e1e" stroke-width="0"/><path d="M98.9663,171.848h.0461v2.0402c0,.3722.3017.6739.6739.6739h.0182c.3722,0,.6739-.3017.6739-.6739v-.0801c0-.3722.3017-.6739.6739-.6739h.6922s0-1.2861,0-1.2861h2.0324s0-.0048,0-.0048h.7625s0-4.8826,0-4.8826c0-.3722-.3017-.6739-.6739-.6739h-.0182c-.3722,0-.6739.3017-.6739.6739v.0926c0,.3722-.3017.6739-.6739.6739h-.0809c-.3722,0-.6739.3017-.6739.6739v.0182c0,.3722.3017.6739.6739.6739h.0809c.3722,0,.6739.3017.6739.6739v.0407c0,.3722-.3017.6739-.6739.6739h-.0809c-.3722,0-.6739-.3017-.6739-.6739v-.0407c0-.3722-.3017-.6739-.6739-.6739h-.0182c-.3722,0-.6739.3017-.6739.6739v.0407c0,.3722-.3017.6739-.6739.6739h-.0575c-.3722,0-.6739-.3017-.6739-.6739v-2.825c0-.3722.3017-.6739.6739-.6739h.0182c.3722,0,.6739-.3017.6739-.6739v-4.2086c0-.3722-.3017-.6739-.6739-.6739h-.0182c-.3722,0-.6739.3017-.6739.6739v.0412c0,.3722-.3017.6739-.6739.6739h-.0182c-.3722,0-.6739.3017-.6739.6739v1.4304c0,.3722.3017.6739.6739.6739h.0182c.3722,0,.6739.3017.6739.6739v.019c0,.3722-.3017.6739-.6739.6739h-.0182c-.3722,0-.6739.3017-.6739.6739v3.5233c0,.7507.6086,1.3593,1.3593,1.3593h0v.0048Z" fill="#1e1e1e" stroke-width="0"/><path d="M114.0796,182.1409v.1018c0,.3722-.3017.6739-.6739.6739h-.0182c-.3722,0-.6739-.3017-.6739-.6739v-.1018c0-.3722-.3017-.6739-.6739-.6739h-.0189c-.3722,0-.6739-.3017-.6739-.6739v-1.4121c0-.3722-.3017-.6739-.6739-.6739h-.0088c-.3722,0-.6739-.3017-.6739-.6739v-.0411c0-.3722-.3017-.6739-.6739-.6739h-.0182c-.3722,0-.6739.3017-.6739.6739v.0558c0,.3722-.3017.6739-.6739.6739h-.0094c-.3722,0-.6739.3017-.6739.6739v2.7386c0,.3722-.3017.6739-.6739.6739h-.0207c-.3722,0-.6739.3017-.6739.6739v.7127s1.2396,0,1.2396,0v.7402c0,.3722.3017.6739.6739.6739h.1282c.3722,0,.6739-.3017.6739-.6739v-.0662c0-.3722.3017-.6739.6739-.6739h.0182c.3722,0,.6739-.3017.6739-.6739v-.7162s.0008.0018.0008.0018h1.3661s0-.0058,0-.0058l.0007.0058v.7127c0,.3722.3017.6739.6739.6739h.0182c.3722,0,.6739.3017.6739.6739v.0662c0,.3722.3017.6739.6739.6739h.0182c.3722,0,.6739.3017.6739.6739v1.4139c0,.3722.3017.6739.6739.6739h.0182c.3722,0,.6739-.3017.6739-.6739v-5.5543c0-.3722-.3017-.6739-.6739-.6739h-.0182c-.3722,0-.6739.3017-.6739.6739ZM109.9798,181.4199h-1.3471v-1.333h1.3479s-.0008,1.333-.0008,1.333Z" fill="#1e1e1e" stroke-width="0"/><rect x="112.7135" y="178.707" width="1.3661" height="2.76" rx=".6739" ry=".6739" fill="#1e1e1e" stroke-width="0"/><rect x="109.9807" y="184.1932" width="1.3668" height="1.4141" rx=".6739" ry=".6739" fill="#1e1e1e" stroke-width="0"/><path d="M104.5288,161.4447v-.0182c0-.3722-.3017-.6739-.6739-.6739h-.6815s-1.0438,0-1.0438,0h-.385s0,2.1281,0,2.1281c0,.3722.3017.6739.6739.6739h.0809c.3722,0,.6739-.3017.6739-.6739v-.0881c0-.3722.3017-.6739.6739-.6739h.0075c.3722,0,.6739-.3017.6739-.6739Z" fill="#1e1e1e" stroke-width="0"/><rect x="101.7446" y="164.9206" width="1.4288" height="1.3661" rx=".6739" ry=".6739" fill="#1e1e1e" stroke-width="0"/><rect x="103.1733" y="163.5545" width="1.4288" height="1.3661" rx=".6739" ry=".6739" fill="#1e1e1e" stroke-width="0"/><rect x="90.6585" y="177.3302" width="1.3661" height="1.3878" rx=".6739" ry=".6739" fill="#1e1e1e" stroke-width="0"/><path d="M92.0246,174.6506v-1.4433c0-.7507-.6086-1.3593-1.3593-1.3593h-.0068s0,1.3206,0,1.3206h-.0068c-.7507,0-1.3593.6086-1.3593,1.3593v1.4431c0,.7507.6086,1.3593,1.3593,1.3593h.0068s0-1.3204,0-1.3204h.0068c.7507,0,1.3593-.6086,1.3593-1.3593Z" fill="#1e1e1e" stroke-width="0"/></svg>